{
.appVersion = "1346";
DisplayStrings = (
"",
"HOV/space n´eépk¨ä%#\012/twoinferior/threeinferior/ring ¸/alef-hb/qamatsqatan-hb/alefqamats-hb/dagesh-hb/he-hb/hedagesh-hb/tbar/descender-cy.case/Pe-cy/Pedescender-cy"
);
classes = (
{
code = "zero one two three four five six seven eight nine parenleft parenright";
name = standard;
},
{
code = "zerosuperior onesuperior twosuperior threesuperior foursuperior fivesuperior sixsuperior sevensuperior eightsuperior ninesuperior parenleftsuperior parenrightsuperior";
name = sups;
},
{
code = "zeroinferior oneinferior twoinferior threeinferior fourinferior fiveinferior sixinferior seveninferior eightinferior nineinferior parenleftinferior parenrightinferior";
name = subs;
},
{
code = "zero.numerator one.numerator two.numerator three.numerator four.numerator five.numerator six.numerator seven.numerator eight.numerator nine.numerator parenleft.numerator parenright.numerator";
name = numerator;
},
{
code = "zero.denominator one.denominator two.denominator three.denominator four.denominator five.denominator six.denominator seven.denominator eight.denominator nine.denominator parenleft.denominator parenright.denominator";
name = denominator;
},
{
code = "zero.otlf one.otlf two.otlf three.otlf four.otlf five.otlf six.otlf seven.otlf eight.otlf nine.otlf parenleft.otlf parenright.otlf";
name = tnum1;
},
{
code = "alef-hb bet-hb gimel-hb dalet-hb he-hb vav-hb zayin-hb het-hb tet-hb yod-hb finalkaf-hb kaf-hb lamed-hb finalmem-hb mem-hb finalnun-hb nun-hb samekh-hb ayin-hb finalpe-hb pe-hb finaltsadi-hb tsadi-hb qof-hb resh-hb shin-hb tav-hb ";
name = HebrewLetters;
}
);
copyright = "Copyright 2015 The Rubik Project Authors (https://github.com/googlefonts/rubik)";
customParameters = (
{
name = license;
value = "This Font Software is licensed under the SIL Open Font License, Version 1.1. This license is available with a FAQ at: http://scripts.sil.org/OFL";
},
{
name = licenseURL;
value = "http://scripts.sil.org/OFL";
},
{
name = fsType;

glyphs = (
{
color = 1;
glyphname = A;
layers = (
{
anchors = (
{
name = bottom;
position = "{378, 0}";
},
{
name = ogonek;
position = "{679, 10}";
},
{
name = top;
position = "{378, 700}";
}
);
layerId = "EC64484B-0978-4CB1-9EE9-C40A2D8C4059";
paths = (
{
closed = 1;
nodes = (
"700 150 LINE",
"650 200 LINE",
"650 300 LINE",
"600 300 LINE",
"600 400 LINE",
"550 450 LINE",
"550 550 LINE",
"500 600 LINE",
"500 650 LINE",
"450 700 LINE",
"250 700 LINE",
"200 650 LINE",
"200 600 LINE",
"150 550 LINE",
"150 450 LINE",
"100 400 LINE",
"100 300 LINE",
"50 300 LINE",
"50 200 LINE",
"0 150 LINE",
"0 0 LINE",
"200 0 LINE",
"250 50 LINE",
"450 50 LINE",
"500 0 LINE",
"750 0 LINE",
"700 50 LINE"
);
},
{
closed = 1;
nodes = (
"464 80 LINE",
"464 96 LINE",
"480 96 LINE",
"480 160 LINE",
"432 160 LINE",
"432 176 LINE",
"240 176 LINE",
"240 160 LINE",
"224 160 LINE",
"224 112 LINE",
"112 112 LINE",
"112 160 LINE",
"224 160 LINE",
"224 176 LINE",
"240 176 LINE",
"240 208 LINE",
"224 208 LINE",
"224 224 LINE",
"208 224 LINE",
"208 304 LINE",
"176 304 LINE",
"176 336 LINE",
"144 336 LINE",
"144 400 LINE",
"176 400 LINE",
"176 336 LINE",
"208 336 LINE",
"208 560 LINE",
"240 560 LINE",
"240 592 LINE",
"272 592 LINE",
"272 528 LINE",
"304 528 LINE",
"304 624 LINE",
"336 624 LINE",
"336 656 LINE",
"368 656 LINE",
"368 496 LINE",
"432 496 LINE",
"432 432 LINE",
"464 432 LINE",
"464 272 LINE",
"560 272 LINE",
"560 240 LINE",
"528 240 LINE",
"528 208 LINE",
"560 208 LINE",
"560 176 LINE",
"592 176 LINE",
"592 160 LINE",
"544 160 LINE",
"544 144 LINE",
"496 144 LINE",
"496 112 LINE",
"528 112 LINE",
"528 80 LINE",
"544 80 LINE",
"544 48 LINE",
"496 48 LINE",
"496 80 LINE"
);
},
{
closed = 1;
nodes = (
"400 656 LINE",
"432 656 LINE",
"432 560 LINE",
"496 560 LINE",
"496 464 LINE",
"464 464 LINE",
"464 528 LINE",
"400 528 LINE"
);
},
{
closed = 1;
nodes = (
"432 208 LINE",
"432 400 LINE",
"400 400 LINE",
"400 464 LINE",
"336 464 LINE",
"336 528 LINE",
"304 528 LINE",
"304 400 LINE",
"272 400 LINE",
"272 528 LINE",
"240 528 LINE",
"240 208 LINE"
);
},
{
closed = 1;
nodes = (
"350 400 LINE",
"400 350 LINE",
"400 250 LINE",
"300 250 LINE",
"300 350 LINE"
);
},
{
closed = 1;
nodes = (
"528 352 LINE",
"496 352 LINE",
"496 400 LINE",
"528 400 LINE"
);
},
{
closed = 1;
nodes = (
"544 304 LINE",
"544 336 LINE",
"560 336 LINE",
"560 304 LINE"
);
},
{
closed = 1;
nodes = (
"176 272 LINE",
"176 224 LINE",
"112 224 LINE",
"112 240 LINE",
"144 240 LINE",
"144 272 LINE"
);
},
{
closed = 1;
nodes = (
"528 208 LINE",
"432 208 LINE",
"432 176 LINE",
"528 176 LINE"
);
},
{
closed = 1;
nodes = (
"80 96 LINE",
"48 96 LINE",
"48 144 LINE",
"80 144 LINE"
);
},
{
closed = 1;
nodes = (
"608 112 LINE",
"608 144 LINE",
"656 144 LINE",
"656 112 LINE"
);
},
{
closed = 1;
nodes = (
"160 80 LINE",
"176 80 LINE",
"176 48 LINE",
"160 48 LINE"
);
},
{
closed = 1;
nodes = (
"608 48 LINE",
"608 80 LINE",
"656 80 LINE",
"656 48 LINE"
);
}
);
width = 755;
}
);
leftKerningGroup = A;
rightKerningGroup = A;
unicode = 0041;
userData = {
com.typemytype.robofont.guides = (
{
angle = 0;
isGlobal = 0;
magnetic = 5;
x = 0;
y = 680;
},
{
angle = 90;
isGlobal = 0;
magnetic = 5;
x = 35;
y = 0;
},
{
angle = 90;
isGlobal = 0;
magnetic = 5;
x = 637;
y = 0;
},
{
angle = 90;
isGlobal = 0;
magnetic = 5;
x = 336;
y = 0;
}
);
};
},
{
color = 1;
glyphname = Aogonek;
layers = (
{
hints = (
{
horizontal = 1;
place = "{-2147483648, 0}";
type = Tag;
name = hr01;
}
);
layerId = "EC64484B-0978-4CB1-9EE9-C40A2D8C4059";
paths = (
{
closed = 1;
nodes = (
"700 150 LINE",
"650 200 LINE",
"650 300 LINE",
"600 300 LINE",
"600 400 LINE",
"550 450 LINE",
"550 550 LINE",
"500 600 LINE",
"500 650 LINE",
"450 700 LINE",
"250 700 LINE",
"200 650 LINE",
"200 600 LINE",
"150 550 LINE",
"150 450 LINE",
"100 400 LINE",
"100 300 LINE",
"50 300 LINE",
"50 200 LINE",
"0 150 LINE",
"0 0 LINE",
"200 0 LINE",
"250 50 LINE",
"450 50 LINE",
"500 0 LINE",
"500 -100 LINE",
"600 -200 LINE",
"700 -200 LINE",
"700 -50 LINE",
"650 0 LINE",
"750 0 LINE",
"700 50 LINE"
);
},
{
closed = 1;
nodes = (
"592 104 LINE",
"592 136 LINE",
"560 136 LINE",
"560 168 LINE",
"528 168 LINE",
"528 104 LINE",
"560 104 LINE",
"560 72 LINE",
"656 72 LINE",
"656 40 LINE",
"528 40 LINE",
"528 72 LINE",
"496 72 LINE",
"496 104 LINE",
"112 104 LINE",
"112 264 LINE",
"144 264 LINE",
"144 296 LINE",
"176 296 LINE",
"176 168 LINE",
"240 168 LINE",
"240 200 LINE",
"208 200 LINE",
"208 328 LINE",
"240 328 LINE",
"240 200 LINE",
"432 200 LINE",
"432 424 LINE",
"400 424 LINE",
"400 456 LINE",
"336 456 LINE",
"336 520 LINE",
"304 520 LINE",
"304 424 LINE",
"272 424 LINE",
"272 520 LINE",
"240 520 LINE",
"240 360 LINE",
"208 360 LINE",
"208 552 LINE",
"240 552 LINE",
"240 584 LINE",
"272 584 LINE",
"272 520 LINE",
"304 520 LINE",
"304 616 LINE",
"336 616 LINE",
"336 648 LINE",
"368 648 LINE",
"368 488 LINE",
"432 488 LINE",
"432 456 LINE",
"464 456 LINE",
"464 264 LINE",
"592 264 LINE",
"592 232 LINE",
"528 232 LINE",
"528 200 LINE",
"592 200 LINE",
"592 168 LINE",
"624 168 LINE",
"624 136 LINE",
"656 136 LINE",
"656 104 LINE"
);
},
{
closed = 1;
nodes = (
"272 616 LINE",
"240 616 LINE",
"240 648 LINE",
"272 648 LINE"
);
},
{
closed = 1;
nodes = (
"400 648 LINE",
"432 648 LINE",
"432 552 LINE",
"496 552 LINE",
"496 488 LINE",
"464 488 LINE",
"464 520 LINE",
"400 520 LINE"
);
},
{
closed = 1;
nodes = (
"528 328 LINE",
"560 328 LINE",
"560 296 LINE",
"496 296 LINE",
"496 424 LINE",
"528 424 LINE"
);
},
{
closed = 1;
nodes = (
"400 250 LINE",
"300 250 LINE",
"300 350 LINE",
"350 400 LINE",
"400 350 LINE"
);
},
{
closed = 1;
nodes = (
"176 392 LINE",
"176 328 LINE",
"144 328 LINE",
"144 392 LINE"
);
},
{
closed = 1;
nodes = (
"432 200 LINE",
"432 168 LINE",
"528 168 LINE",
"528 200 LINE"
);
},
{
closed = 1;
nodes = (
"432 136 LINE",
"432 168 LINE",
"240 168 LINE",
"240 136 LINE"
);
},
{
closed = 1;
nodes = (
"48 40 LINE",
"48 136 LINE",
"80 136 LINE",
"80 72 LINE",
"176 72 LINE",
"176 40 LINE"
);
},
{
closed = 1;
nodes = (
"656 -152 LINE",
"624 -152 LINE",
"624 -120 LINE",
"592 -120 LINE",
"592 -88 LINE",
"560 -88 LINE",
"560 8 LINE",
"592 8 LINE",
"592 -56 LINE",
"624 -56 LINE",
"624 -88 LINE",
"656 -88 LINE"
);
}
);
width = 755;
}
);
leftKerningGroup = A;
rightKerningGroup = A;
unicode = 0104;
},
{
color = 1;
glyphname = AE;
layers = (
{
anchors = (
{
name = bottom;
position = "{503, 0}";
},
{
name = top;
position = "{503, 700}";
}
);
layerId = "EC64484B-0978-4CB1-9EE9-C40A2D8C4059";
paths = (
{
closed = 1;
nodes = (
"250 700 LINE",
"200 650 LINE",
"200 600 LINE",
"150 550 LINE",
"150 450 LINE",
"100 400 LINE",
"100 300 LINE",
"50 250 LINE",
"50 150 LINE",
"0 100 LINE",
"0 0 LINE",
"250 0 LINE",
"250 50 LINE",
"400 50 LINE",
"400 0 LINE",
"950 0 LINE",
"950 150 LINE",
"650 150 LINE",
"650 250 LINE",
"900 250 LINE",
"900 400 LINE",
"650 400 LINE",
"650 500 LINE",
"950 500 LINE",
"950 650 LINE",
"900 700 LINE"
);
},
{
closed = 1;
nodes = (
"552 648 LINE",
"600 648 LINE",
"600 312 LINE",
"552 312 LINE"
);
},
{
closed = 1;
nodes = (
"350 350 LINE",
"350 500 LINE",
"400 500 LINE",
"400 250 LINE",
"300 250 LINE",
"300 300 LINE"
);
},
{
closed = 1;
nodes = (
"264 264 LINE",
"216 264 LINE",
"216 312 LINE",
"264 312 LINE"
);
},
{
closed = 1;
nodes = (
"600 168 LINE",
"552 168 LINE",
"552 216 LINE",
"600 216 LINE"
);
}
);
width = 1005;
}
);
leftKerningGroup = AE;
rightKerningGroup = E;
unicode = 00C6;
userData = {
com.typemytype.robofont.guides = (
{
angle = 0;
isGlobal = 0;
magnetic = 5;
x = 0;
y = 505;
},
{
angle = 90;
isGlobal = 0;
magnetic = 5;
x = 431;
y = 0;
}
);
};
},
{
color = 1;
glyphname = B;
layers = (
{
hints = (
{
horizontal = 1;
place = "{-2147483648, 0}";
type = Tag;
name = hr00;
}
);
layerId = "EC64484B-0978-4CB1-9EE9-C40A2D8C4059";
paths = (
{
closed = 1;
nodes = (
"550 350 LINE",
"600 350 LINE",
"600 550 LINE",
"500 650 LINE",
"400 650 LINE",
"350 700 LINE",
"0 700 LINE",
"0 0 LINE",
"550 0 LINE",
"600 50 LINE",
"600 100 LINE",
"650 150 LINE",
"650 200 LINE",
"600 250 LINE",
"600 300 LINE"
);
},
{
closed = 1;
nodes = (
"120 120 LINE",
"552 120 LINE",
"552 88 LINE",
"88 88 LINE",
"88 648 LINE",
"120 648 LINE"
);
},
{
closed = 1;
nodes = (
"184 608 LINE",
"168 608 LINE",
"168 648 LINE",
"184 648 LINE"
);
},
{
closed = 1;
nodes = (
"200 608 LINE",
"200 648 LINE",
"216 648 LINE",
"216 608 LINE"
);
},
{
closed = 1;
nodes = (
"280 648 LINE",
"280 608 LINE",
"248 608 LINE",
"248 648 LINE"
);
},
{
closed = 1;
nodes = (
"296 608 LINE",
"296 648 LINE",
"312 648 LINE",
"312 608 LINE"
);
},
{
closed = 1;
nodes = (
"360 632 LINE",
"344 632 LINE",
"344 648 LINE",
"360 648 LINE"
);
},
{
closed = 1;
nodes = (
"456 552 LINE",
"456 456 LINE",
"552 456 LINE",
"552 440 LINE",
"504 440 LINE",
"504 424 LINE",
"552 424 LINE",
"552 408 LINE",
"488 408 LINE",
"488 440 LINE",
"408 440 LINE",
"408 504 LINE",
"376 504 LINE",
"376 520 LINE",
"360 520 LINE",
"360 552 LINE",
"352 552 LINE",
"352 568 LINE",
"360 568 LINE",
"360 552 LINE",
"376 552 LINE",
"376 536 LINE",
"392 536 LINE",
"392 568 LINE",
"376 568 LINE",
"376 584 LINE",
"352 584 LINE",
"352 600 LINE",
"408 600 LINE",
"408 552 LINE"
);
},
{
closed = 1;
nodes = (
"552 520 LINE",
"552 504 LINE",
"504 504 LINE",
"504 552 LINE",
"520 552 LINE",
"520 520 LINE"
);
},
{
closed = 1;
nodes = (
"536 536 LINE",
"536 552 LINE",
"552 552 LINE",
"552 536 LINE"
);
},
{
closed = 1;
nodes = (
"168 544 LINE",
"184 544 LINE",
"184 352 LINE",
"168 352 LINE"
);
},
{
closed = 1;
nodes = (
"216 352 LINE",
"200 352 LINE",
"200 544 LINE",
"216 544 LINE"
);
},
{
closed = 1;
nodes = (
"424 456 LINE",
"440 456 LINE",
"440 520 LINE",
"424 520 LINE",
"424 536 LINE",
"392 536 LINE",
"392 520 LINE",
"408 520 LINE",
"408 504 LINE",
"424 504 LINE"
);
},
{
closed = 1;
nodes = (
"300 400 LINE",
"250 400 LINE",
"250 500 LINE",
"300 500 LINE",
"350 450 LINE"
);
},
{
closed = 1;
nodes = (
"408 408 LINE",
"408 424 LINE",
"472 424 LINE",
"472 408 LINE"
);
},
{
closed = 1;
nodes = (
"456 344 LINE",
"440 344 LINE",
"440 392 LINE",
"456 392 LINE"
);
},
{
closed = 1;
nodes = (
"280 352 LINE",
"248 352 LINE",
"248 360 LINE",
"280 360 LINE"
);
},
{
closed = 1;
nodes = (
"296 344 LINE",
"296 360 LINE",
"408 360 LINE",
"408 352 LINE",
"352 352 LINE",
"352 344 LINE"
);
},
{
closed = 1;
nodes = (
"352 328 LINE",
"352 312 LINE",
"288 312 LINE",
"288 328 LINE"
);
},
{
closed = 1;
nodes = (
"392 288 LINE",
"392 280 LINE",
"408 280 LINE",
"408 264 LINE",
"424 264 LINE",
"424 248 LINE",
"440 248 LINE",
"440 280 LINE",
"424 280 LINE",
"424 296 LINE",
"416 296 LINE",
"416 312 LINE",
"456 312 LINE",
"456 224 LINE",
"424 224 LINE",
"424 232 LINE",
"408 232 LINE",
"408 264 LINE",
"376 264 LINE",
"376 280 LINE",
"360 280 LINE",
"360 288 LINE"
);
},
{
closed = 1;
nodes = (
"168 168 LINE",
"168 288 LINE",
"184 288 LINE",
"184 184 LINE",
"216 184 LINE",
"216 168 LINE"
);
},
{
closed = 1;
nodes = (
"200 288 LINE",
"216 288 LINE",
"216 200 LINE",
"200 200 LINE"
);
},
{
closed = 1;
nodes = (
"488 248 LINE",
"488 264 LINE",
"568 264 LINE",
"568 248 LINE"
);
},
{
closed = 1;
nodes = (
"300 250 LINE",
"350 200 LINE",
"300 150 LINE",
"250 150 LINE",
"250 250 LINE"
);
},
{
closed = 1;
nodes = (
"544 216 LINE",
"552 216 LINE",
"552 200 LINE",
"544 200 LINE"
);
},
{
closed = 1;
nodes = (
"416 168 LINE",
"408 168 LINE",
"408 184 LINE",
"416 184 LINE"
);
},
{
closed = 1;
nodes = (
"552 184 LINE",
"552 168 LINE",
"544 168 LINE",
"544 184 LINE"
);
}
);
width = 734;
}
);
leftKerningGroup = I;
unicode = 0042;
userData = {
com.typemytype.robofont.guides = (
{
angle = 0;
isGlobal = 0;
magnetic = 5;
x = 0;
y = 271;
},
{
angle = 0;
isGlobal = 0;
magnetic = 5;
x = 0;
y = 437;
},
{
angle = 0;
isGlobal = 0;
magnetic = 5;
x = 0;
y = 521;
},
{
angle = 0;
isGlobal = 0;
magnetic = 5;
x = 0;
y = 198;
},
{
angle = 0;
isGlobal = 0;
magnetic = 5;
x = 0;
y = 9;
},
{
angle = 90;
isGlobal = 0;
magnetic = 5;
x = 355;
y = 0;
},
{
angle = 90;
isGlobal = 0;
magnetic = 5;
x = 583;
y = 0;
},
{
angle = 90;
isGlobal = 0;
magnetic = 5;
x = 94;
y = 0;
}
);
};
},
{
color = 1;
glyphname = C;
layers = (
{
anchors = (
{
name = bottom;
position = "{367, 0}";
},
{
name = top;
position = "{367, 700}";
}
);
layerId = "EC64484B-0978-4CB1-9EE9-C40A2D8C4059";
paths = (
{
closed = 1;
nodes = (
"650 400 LINE",
"700 450 LINE",
"700 500 LINE",
"650 550 LINE",
"650 600 LINE",
"600 600 LINE",
"550 650 LINE",
"450 650 LINE",
"400 700 LINE",
"300 700 LINE",
"250 650 LINE",
"150 650 LINE",
"50 550 LINE",
"50 500 LINE",
"0 450 LINE",
"0 200 LINE",
"50 150 LINE",
"50 100 LINE",
"150 0 LINE",
"550 0 LINE",
"600 50 LINE",
"650 50 LINE",
"650 100 LINE",
"700 150 LINE",
"700 200 LINE",
"650 250 LINE",
"450 250 LINE",
"400 200 LINE",
"400 150 LINE",
"350 150 LINE",
"250 250 LINE",
"250 400 LINE",
"350 500 LINE",
"400 500 LINE",
"400 450 LINE",
"450 400 LINE"
);
}
);
width = 733;
}
);
leftKerningGroup = O;
rightKerningGroup = C;
unicode = 0043;
userData = {
com.typemytype.robofont.guides = (
{
angle = 0;
isGlobal = 0;
magnetic = 5;
x = 0;
y = 434;
},
{
angle = 0;
isGlobal = 0;
magnetic = 5;
x = 0;
y = 266;
},
{
angle = 0;
isGlobal = 0;
magnetic = 5;
x = 0;
y = 710;
},
{
angle = 0;
isGlobal = 0;
magnetic = 5;
x = 0;
y = "-10";
},
{
angle = 90;
isGlobal = 0;
magnetic = 5;
x = 599;
y = 0;
},
{
angle = 90;
isGlobal = 0;
magnetic = 5;
x = 209;
y = 0;
},
{
angle = 90;
isGlobal = 0;
magnetic = 5;
x = 149;
y = 0;
},
{
angle = 90;
isGlobal = 0;
magnetic = 5;
x = 332;
y = 0;
}
);
};
},
{
color = 1;
glyphname = Ccedilla;
layers = (
{
hints = (
{
horizontal = 1;
place = "{-2147483648, 0}";
type = Tag;
name = hr00;
}
);
layerId = "EC64484B-0978-4CB1-9EE9-C40A2D8C4059";
paths = (
{
closed = 1;
nodes = (
"650 400 LINE",
"700 450 LINE",
"700 500 LINE",
"650 550 LINE",
"650 600 LINE",
"600 600 LINE",
"550 650 LINE",
"450 650 LINE",
"400 700 LINE",
"300 700 LINE",
"250 650 LINE",
"150 650 LINE",
"50 550 LINE",
"50 500 LINE",
"0 450 LINE",
"0 200 LINE",
"50 150 LINE",
"50 100 LINE",
"150 0 LINE",
"250 0 LINE",
"250 -50 LINE",
"300 -100 LINE",
"350 -100 LINE",
"350 -150 LINE",
"250 -150 LINE",
"300 -200 LINE",
"400 -200 LINE",
"450 -150 LINE",
"450 -100 LINE",
"350 0 LINE",
"550 0 LINE",
"600 50 LINE",
"650 50 LINE",
"650 100 LINE",
"700 150 LINE",
"700 200 LINE",
"650 250 LINE",
"450 250 LINE",
"400 200 LINE",
"400 150 LINE",
"350 150 LINE",
"250 250 LINE",
"250 400 LINE",
"350 500 LINE",
"400 500 LINE",
"400 450 LINE",
"450 400 LINE"
);
},
{
closed = 1;
nodes = (
"328 544 LINE",
"328 656 LINE",
"344 656 LINE",
"344 560 LINE",
"456 560 LINE",
"456 552 LINE",
"432 552 LINE",
"432 544 LINE"
);
},
{
closed = 1;
nodes = (
"360 656 LINE",
"376 656 LINE",
"376 592 LINE",
"488 592 LINE",
"488 520 LINE",
"472 520 LINE",
"472 576 LINE",
"360 576 LINE"
);
},
{
closed = 1;
nodes = (
"312 512 LINE",
"296 512 LINE",
"296 640 LINE",
"312 640 LINE"
);
},
{
closed = 1;
nodes = (
"408 640 LINE",
"408 624 LINE",
"424 624 LINE",
"424 608 LINE",
"392 608 LINE",
"392 640 LINE"
);
},
{
closed = 1;
nodes = (
"152 608 LINE",
"168 608 LINE",
"168 560 LINE",
"184 560 LINE",
"184 360 LINE",
"176 360 LINE",
"176 336 LINE",
"168 336 LINE",
"168 544 LINE",
"152 544 LINE"
);
},
{
closed = 1;
nodes = (
"232 608 LINE",
"248 608 LINE",
"248 448 LINE",
"232 448 LINE"
);
},
{
closed = 1;
nodes = (
"280 480 LINE",
"264 480 LINE",
"264 608 LINE",
"280 608 LINE"
);
},
{
closed = 1;
nodes = (
"216 368 LINE",
"200 368 LINE",
"200 576 LINE",
"184 576 LINE",
"184 584 LINE",
"208 584 LINE",
"208 592 LINE",
"216 592 LINE"
);
},
{
closed = 1;
nodes = (
"536 584 LINE",
"536 592 LINE",
"552 592 LINE",
"552 584 LINE"
);
},
{
closed = 1;
nodes = (
"136 552 LINE",
"120 552 LINE",
"120 576 LINE",
"136 576 LINE"
);
},
{
closed = 1;
nodes = (
"560 552 LINE",
"560 544 LINE",
"552 544 LINE",
"552 552 LINE",
"560 552 LINE",
"560 576 LINE",
"568 576 LINE",
"568 560 LINE",
"584 560 LINE",
"584 552 LINE"
);
},
{
closed = 1;
nodes = (
"536 496 LINE",
"536 512 LINE",
"520 512 LINE",
"520 528 LINE",
"504 528 LINE",
"504 552 LINE",
"520 552 LINE",
"520 544 LINE",
"536 544 LINE",
"536 528 LINE",
"552 528 LINE",
"552 512 LINE",
"632 512 LINE",
"632 496 LINE"
);
},
{
closed = 1;
nodes = (
"88 544 LINE",
"104 544 LINE",
"104 496 LINE",
"120 496 LINE",
"120 296 LINE",
"112 296 LINE",
"112 272 LINE",
"104 272 LINE",
"104 480 LINE",
"88 480 LINE"
);
},
{
closed = 1;
nodes = (
"592 528 LINE",
"592 544 LINE",
"616 544 LINE",
"616 528 LINE"
);
},
{
closed = 1;
nodes = (
"152 320 LINE",
"168 320 LINE",
"168 304 LINE",
"184 304 LINE",
"184 288 LINE",
"200 288 LINE",
"200 264 LINE",
"184 264 LINE",
"184 272 LINE",
"168 272 LINE",
"168 288 LINE",
"152 288 LINE",
"152 304 LINE",
"136 304 LINE",
"136 512 LINE",
"120 512 LINE",
"120 520 LINE",
"144 520 LINE",
"144 528 LINE",
"152 528 LINE"
);
},
{
closed = 1;
nodes = (
"496 488 LINE",
"496 480 LINE",
"488 480 LINE",
"488 488 LINE",
"496 488 LINE",
"496 512 LINE",
"504 512 LINE",
"504 496 LINE",
"520 496 LINE",
"520 488 LINE"
);
},
{
closed = 1;
nodes = (
"472 432 LINE",
"472 448 LINE",
"456 448 LINE",
"456 464 LINE",
"440 464 LINE",
"440 488 LINE",
"456 488 LINE",
"456 480 LINE",
"472 480 LINE",
"472 464 LINE",
"488 464 LINE",
"488 448 LINE",
"632 448 LINE",
"632 432 LINE"
);
},
{
closed = 1;
nodes = (
"656 480 LINE",
"664 480 LINE",
"664 464 LINE",
"656 464 LINE"
);
},
{
closed = 1;
nodes = (
"72 464 LINE",
"88 464 LINE",
"88 256 LINE",
"104 256 LINE",
"104 240 LINE",
"120 240 LINE",
"120 224 LINE",
"136 224 LINE",
"136 200 LINE",
"120 200 LINE",
"120 208 LINE",
"104 208 LINE",
"104 224 LINE",
"88 224 LINE",
"88 240 LINE",
"72 240 LINE"
);
},
{
closed = 1;
nodes = (
"40 448 LINE",
"56 448 LINE",
"56 232 LINE",
"48 232 LINE",
"48 208 LINE",
"40 208 LINE"
);
},
{
closed = 1;
nodes = (
"208 328 LINE",
"208 336 LINE",
"216 336 LINE",
"216 304 LINE",
"200 304 LINE",
"200 320 LINE",
"184 320 LINE",
"184 328 LINE"
);
},
{
closed = 1;
nodes = (
"120 256 LINE",
"120 264 LINE",
"144 264 LINE",
"144 272 LINE",
"152 272 LINE",
"152 264 LINE",
"144 264 LINE",
"144 240 LINE",
"136 240 LINE",
"136 256 LINE"
);
},
{
closed = 1;
nodes = (
"616 112 LINE",
"616 96 LINE",
"232 96 LINE",
"232 112 LINE",
"216 112 LINE",
"216 128 LINE",
"200 128 LINE",
"200 144 LINE",
"184 144 LINE",
"184 160 LINE",
"168 160 LINE",
"168 176 LINE",
"152 176 LINE",
"152 232 LINE",
"168 232 LINE",
"168 192 LINE",
"184 192 LINE",
"184 176 LINE",
"200 176 LINE",
"200 160 LINE",
"216 160 LINE",
"216 144 LINE",
"232 144 LINE",
"232 128 LINE",
"248 128 LINE",
"248 112 LINE"
);
},
{
closed = 1;
nodes = (
"208 192 LINE",
"200 192 LINE",
"200 200 LINE",
"208 200 LINE",
"208 224 LINE",
"216 224 LINE",
"216 208 LINE",
"232 208 LINE",
"232 200 LINE",
"208 200 LINE"
);
},
{
closed = 1;
nodes = (
"80 200 LINE",
"80 208 LINE",
"88 208 LINE",
"88 200 LINE",
"80 200 LINE",
"80 176 LINE",
"72 176 LINE",
"72 192 LINE",
"56 192 LINE",
"56 200 LINE"
);
},
{
closed = 1;
nodes = (
"472 208 LINE",
"488 208 LINE",
"488 176 LINE",
"664 176 LINE",
"664 160 LINE",
"472 160 LINE"
);
},
{
closed = 1;
nodes = (
"648 208 LINE",
"648 192 LINE",
"504 192 LINE",
"504 208 LINE"
);
},
{
closed = 1;
nodes = (
"240 168 LINE",
"240 160 LINE",
"232 160 LINE",
"232 168 LINE",
"240 168 LINE",
"240 192 LINE",
"248 192 LINE",
"248 176 LINE",
"264 176 LINE",
"264 168 LINE"
);
},
{
closed = 1;
nodes = (
"456 168 LINE",
"440 168 LINE",
"440 192 LINE",
"456 192 LINE"
);
},
{
closed = 1;
nodes = (
"168 32 LINE",
"168 48 LINE",
"152 48 LINE",
"152 64 LINE",
"136 64 LINE",
"136 80 LINE",
"120 80 LINE",
"120 96 LINE",
"104 96 LINE",
"104 112 LINE",
"88 112 LINE",
"88 168 LINE",
"104 168 LINE",
"104 128 LINE",
"120 128 LINE",
"120 112 LINE",
"136 112 LINE",
"136 96 LINE",
"152 96 LINE",
"152 80 LINE",
"168 80 LINE",
"168 64 LINE",
"184 64 LINE",
"184 48 LINE",
"536 48 LINE",
"536 32 LINE"
);
},
{
closed = 1;
nodes = (
"144 136 LINE",
"144 128 LINE",
"136 128 LINE",
"136 136 LINE",
"144 136 LINE",
"144 160 LINE",
"152 160 LINE",
"152 144 LINE",
"168 144 LINE",
"168 136 LINE"
);
},
{
closed = 1;
nodes = (
"312 128 LINE",
"264 128 LINE",
"264 136 LINE",
"272 136 LINE",
"272 160 LINE",
"280 160 LINE",
"280 144 LINE",
"312 144 LINE"
);
},
{
closed = 1;
nodes = (
"632 144 LINE",
"632 128 LINE",
"440 128 LINE",
"440 136 LINE",
"464 136 LINE",
"464 144 LINE"
);
},
{
closed = 1;
nodes = (
"176 104 LINE",
"176 96 LINE",
"168 96 LINE",
"168 104 LINE",
"176 104 LINE",
"176 128 LINE",
"184 128 LINE",
"184 112 LINE",
"200 112 LINE",
"200 104 LINE"
);
},
{
closed = 1;
nodes = (
"200 64 LINE",
"200 72 LINE",
"208 72 LINE",
"208 96 LINE",
"216 96 LINE",
"216 80 LINE",
"568 80 LINE",
"568 64 LINE"
);
},
{
closed = 1;
nodes = (
"312 -64 LINE",
"312 -48 LINE",
"296 -48 LINE",
"296 -32 LINE",
"328 -32 LINE",
"328 -48 LINE",
"344 -48 LINE",
"344 -64 LINE"
);
},
{
closed = 1;
nodes = (
"408 -112 LINE",
"408 -144 LINE",
"392 -144 LINE",
"392 -112 LINE"
);
}
);
width = 733;
}
);
leftKerningGroup = O;
rightKerningGroup = C;
unicode = 00C7;
userData = {
com.typemytype.robofont.guides = (
{
angle = 0;
isGlobal = 0;
magnetic = 5;
x = 0;
y = "-174";
},
{
angle = 0;
isGlobal = 0;
magnetic = 5;
x = 0;
y = "-220";
},
{
angle = 0;
isGlobal = 0;
magnetic = 5;
x = 0;
y = "-96";
},
{
angle = 0;
isGlobal = 0;
magnetic = 5;
x = 0;
y = "-50";
},
{
angle = 0;
isGlobal = 0;
magnetic = 5;
x = 0;
y = "-135";
},
{
angle = 90;
isGlobal = 0;
magnetic = 5;
x = 331;
y = 0;
},
{
angle = 90;
isGlobal = 0;
magnetic = 5;
x = 342;
y = 0;
}
);
};
},
{
color = 1;
glyphname = D;
layers = (
{
hints = (
{
horizontal = 1;
place = "{-2147483648, 0}";
type = Tag;
name = hr00;
}
);
layerId = "EC64484B-0978-4CB1-9EE9-C40A2D8C4059";
paths = (
{
closed = 1;
nodes = (
"600 550 LINE",
"550 600 LINE",
"500 600 LINE",
"450 650 LINE",
"350 650 LINE",
"300 700 LINE",
"0 700 LINE",
"0 0 LINE",
"500 0 LINE",
"600 100 LINE",
"600 200 LINE",
"650 250 LINE",
"650 400 LINE",
"600 450 LINE"
);
},
{
closed = 1;
nodes = (
"504 84 LINE",
"504 72 LINE",
"144 72 LINE",
"144 60 LINE",
"492 60 LINE",
"492 36 LINE",
"36 36 LINE",
"36 660 LINE",
"60 660 LINE",
"60 624 LINE",
"72 624 LINE",
"72 648 LINE",
"84 648 LINE",
"84 660 LINE",
"108 660 LINE",
"108 648 LINE",
"120 648 LINE",
"120 624 LINE",
"132 624 LINE",
"132 660 LINE",
"156 660 LINE",
"156 156 LINE",
"204 156 LINE",
"204 132 LINE",
"144 132 LINE",
"144 120 LINE",
"504 120 LINE",
"504 108 LINE",
"540 108 LINE",
"540 84 LINE"
);
},
{
closed = 1;
nodes = (
"180 660 LINE",
"204 660 LINE",
"204 180 LINE",
"180 180 LINE"
);
},
{
closed = 1;
nodes = (
"528 228 LINE",
"528 216 LINE",
"552 216 LINE",
"552 204 LINE",
"564 204 LINE",
"564 180 LINE",
"552 180 LINE",
"552 168 LINE",
"528 168 LINE",
"528 156 LINE",
"564 156 LINE",
"564 132 LINE",
"372 132 LINE",
"372 156 LINE",
"432 156 LINE",
"432 180 LINE",
"420 180 LINE",
"420 204 LINE",
"432 204 LINE",
"432 240 LINE",
"444 240 LINE",
"444 444 LINE",
"420 444 LINE",
"420 456 LINE",
"408 456 LINE",
"408 468 LINE",
"396 468 LINE",
"396 492 LINE",
"372 492 LINE",
"372 504 LINE",
"360 504 LINE",
"360 516 LINE",
"348 516 LINE",
"348 540 LINE",
"228 540 LINE",
"228 552 LINE",
"216 552 LINE",
"216 648 LINE",
"228 648 LINE",
"228 660 LINE",
"252 660 LINE",
"252 648 LINE",
"264 648 LINE",
"264 564 LINE",
"372 564 LINE",
"372 552 LINE",
"408 552 LINE",
"408 516 LINE",
"420 516 LINE",
"420 504 LINE",
"456 504 LINE",
"456 468 LINE",
"468 468 LINE",
"468 264 LINE",
"504 264 LINE",
"504 252 LINE",
"564 252 LINE",
"564 228 LINE"
);
},
{
closed = 1;
nodes = (
"144 108 LINE",
"144 120 LINE",
"120 120 LINE",
"120 624 LINE",
"108 624 LINE",
"108 648 LINE",
"84 648 LINE",
"84 624 LINE",
"72 624 LINE",
"72 72 LINE",
"144 72 LINE",
"144 84 LINE",
"504 84 LINE",
"504 108 LINE"
);
},
{
closed = 1;
nodes = (
"252 564 LINE",
"252 648 LINE",
"228 648 LINE",
"228 552 LINE",
"264 552 LINE",
"264 564 LINE"
);
},
{
closed = 1;
nodes = (
"492 276 LINE",
"492 492 LINE",
"468 492 LINE",
"468 516 LINE",
"444 516 LINE",
"444 540 LINE",
"420 540 LINE",
"420 564 LINE",
"396 564 LINE",
"396 588 LINE",
"276 588 LINE",
"276 636 LINE",
"300 636 LINE",
"300 612 LINE",
"420 612 LINE",
"420 588 LINE",
"444 588 LINE",
"444 564 LINE",
"468 564 LINE",
"468 540 LINE",
"492 540 LINE",
"492 516 LINE",
"516 516 LINE",
"516 300 LINE",
"612 300 LINE",
"612 276 LINE"
);
},
{
closed = 1;
nodes = (
"60 60 LINE",
"60 624 LINE",
"48 624 LINE",
"48 48 LINE",
"144 48 LINE",
"144 60 LINE"
);
},
{
closed = 1;
nodes = (
"132 132 LINE",
"144 132 LINE",
"144 624 LINE",
"132 624 LINE"
);
},
{
closed = 1;
nodes = (
"600 312 LINE",
"552 312 LINE",
"552 324 LINE",
"540 324 LINE",
"540 540 LINE",
"516 540 LINE",
"516 564 LINE",
"540 564 LINE",
"540 540 LINE",
"564 540 LINE",
"564 360 LINE",
"600 360 LINE",
"600 348 LINE",
"612 348 LINE",
"612 324 LINE",
"600 324 LINE"
);
},
{
closed = 1;
nodes = (
"396 516 LINE",
"396 540 LINE",
"372 540 LINE",
"372 552 LINE",
"360 552 LINE",
"360 516 LINE",
"372 516 LINE",
"372 504 LINE",
"408 504 LINE",
"408 516 LINE"
);
},
{
closed = 1;
nodes = (
"444 468 LINE",
"444 492 LINE",
"420 492 LINE",
"420 504 LINE",
"408 504 LINE",
"408 468 LINE",
"420 468 LINE",
"420 456 LINE",
"456 456 LINE",
"456 468 LINE"
);
},
{
closed = 1;
nodes = (
"250 500 LINE",
"300 500 LINE",
"400 400 LINE",
"400 250 LINE",
"300 150 LINE",
"250 150 LINE"
);
},
{
closed = 1;
nodes = (
"564 360 LINE",
"552 360 LINE",
"552 324 LINE",
"600 324 LINE",
"600 348 LINE",
"564 348 LINE"
);
},
{
closed = 1;
nodes = (
"468 252 LINE",
"468 264 LINE",
"456 264 LINE",
"456 240 LINE",
"444 240 LINE",
"444 228 LINE",
"456 228 LINE",
"456 204 LINE",
"432 204 LINE",
"432 180 LINE",
"456 180 LINE",
"456 168 LINE",
"528 168 LINE",
"528 180 LINE",
"552 180 LINE",
"552 204 LINE",
"528 204 LINE",
"528 216 LINE",
"504 216 LINE",
"504 228 LINE",
"528 228 LINE",
"528 240 LINE",
"504 240 LINE",
"504 252 LINE"
);
},
{
closed = 1;
nodes = (
"432 156 LINE",
"432 144 LINE",
"528 144 LINE",
"528 156 LINE"
);
}
);
width = 740;
}
);
leftKerningGroup = I;
rightKerningGroup = D;
unicode = 0044;
userData = {
com.typemytype.robofont.guides = (
{
angle = 0;
isGlobal = 0;
magnetic = 5;
x = 0;
y = 425;
},
{
angle = 0;
isGlobal = 0;
magnetic = 5;
x = 0;
y = 276;
},
{
angle = 0;
isGlobal = 0;
magnetic = 5;
x = 0;
y = 9;
},
{
angle = 90;
isGlobal = 0;
magnetic = 5;
x = 320;
y = 0;
},
{
angle = 90;
isGlobal = 0;
magnetic = 5;
x = 603;
y = 0;
},
{
angle = 90;
isGlobal = 0;
magnetic = 5;
x = 94;
y = 0;
}
);
};
},
{
color = 1;
glyphname = Eth;
layers = (
{
hints = (
{
horizontal = 1;
place = "{-2147483648, 0}";
type = Tag;
name = hr00;
}
);
layerId = "EC64484B-0978-4CB1-9EE9-C40A2D8C4059";
paths = (
{
closed = 1;
nodes = (
"550 650 LINE",
"400 650 LINE",
"350 700 LINE",
"100 700 LINE",
"50 650 LINE",
"50 400 LINE",
"0 400 LINE",
"0 250 LINE",
"50 250 LINE",
"50 0 LINE",
"600 0 LINE",
"600 50 LINE",
"700 150 LINE",
"700 500 LINE"
);
},
{
closed = 1;
nodes = (
"96 608 LINE",
"112 608 LINE",
"112 656 LINE",
"144 656 LINE",
"144 648 LINE",
"168 648 LINE",
"168 456 LINE",
"264 456 LINE",
"264 168 LINE",
"240 168 LINE",
"240 144 LINE",
"208 144 LINE",
"208 400 LINE",
"112 400 LINE",
"112 416 LINE",
"96 416 LINE"
);
},
{
closed = 1;
nodes = (
"208 656 LINE",
"240 656 LINE",
"240 648 LINE",
"264 648 LINE",
"264 504 LINE",
"240 504 LINE",
"240 496 LINE",
"208 496 LINE"
);
},
{
closed = 1;
nodes = (
"624 144 LINE",
"496 144 LINE",
"496 480 LINE",
"480 480 LINE",
"480 496 LINE",
"432 496 LINE",
"432 528 LINE",
"368 528 LINE",
"368 544 LINE",
"288 544 LINE",
"288 608 LINE",
"304 608 LINE",
"304 656 LINE",
"336 656 LINE",
"336 648 LINE",
"360 648 LINE",
"360 608 LINE",
"480 608 LINE",
"480 600 LINE",
"504 600 LINE",
"504 552 LINE",
"552 552 LINE",
"552 224 LINE",
"608 224 LINE",
"608 216 LINE",
"648 216 LINE",
"648 168 LINE",
"624 168 LINE"
);
},
{
closed = 1;
nodes = (
"112 416 LINE",
"120 416 LINE",
"120 408 LINE",
"216 408 LINE",
"216 168 LINE",
"240 168 LINE",
"240 432 LINE",
"160 432 LINE",
"160 608 LINE",
"144 608 LINE",
"144 648 LINE",
"120 648 LINE",
"120 608 LINE",
"112 608 LINE"
);
},
{
closed = 1;
nodes = (
"216 504 LINE",
"240 504 LINE",
"240 648 LINE",
"216 648 LINE"
);
},
{
closed = 1;
nodes = (
"552 216 LINE",
"552 224 LINE",
"544 224 LINE",
"544 176 LINE",
"528 176 LINE",
"528 480 LINE",
"544 480 LINE",
"544 544 LINE",
"480 544 LINE",
"480 528 LINE",
"464 528 LINE",
"464 544 LINE",
"480 544 LINE",
"480 600 LINE",
"360 600 LINE",
"360 608 LINE",
"336 608 LINE",
"336 648 LINE",
"312 648 LINE",
"312 608 LINE",
"304 608 LINE",
"304 560 LINE",
"312 560 LINE",
"312 552 LINE",
"368 552 LINE",
"368 544 LINE",
"456 544 LINE",
"456 504 LINE",
"480 504 LINE",
"480 496 LINE",
"496 496 LINE",
"496 480 LINE",
"504 480 LINE",
"504 168 LINE",
"544 168 LINE",
"544 160 LINE",
"608 160 LINE",
"608 168 LINE",
"624 168 LINE",
"624 176 LINE",
"608 176 LINE",
"608 216 LINE"
);
},
{
closed = 1;
nodes = (
"648 264 LINE",
"600 264 LINE",
"600 272 LINE",
"592 272 LINE",
"592 528 LINE",
"624 528 LINE",
"624 504 LINE",
"648 504 LINE",
"648 304 LINE",
"656 304 LINE",
"656 272 LINE",
"648 272 LINE"
);
},
{
closed = 1;
nodes = (
"624 504 LINE",
"600 504 LINE",
"600 272 LINE",
"648 272 LINE",
"648 304 LINE",
"624 304 LINE"
);
},
{
closed = 1;
nodes = (
"400 400 LINE",
"300 400 LINE",
"300 500 LINE",
"350 500 LINE",
"450 450 LINE",
"450 200 LINE",
"350 150 LINE",
"300 150 LINE",
"300 250 LINE",
"350 250 LINE",
"400 300 LINE"
);
},
{
closed = 1;
nodes = (
"544 32 LINE",
"96 32 LINE",
"96 288 LINE",
"32 288 LINE",
"32 352 LINE",
"48 352 LINE",
"48 368 LINE",
"80 368 LINE",
"80 360 LINE",
"168 360 LINE",
"168 120 LINE",
"552 120 LINE",
"552 80 LINE",
"560 80 LINE",
"560 48 LINE",
"544 48 LINE"
);
},
{
closed = 1;
nodes = (
"336 312 LINE",
"336 304 LINE",
"304 304 LINE",
"304 368 LINE",
"336 368 LINE",
"336 360 LINE",
"360 360 LINE",
"360 312 LINE"
);
},
{
closed = 1;
nodes = (
"544 80 LINE",
"544 96 LINE",
"160 96 LINE",
"160 352 LINE",
"80 352 LINE",
"80 360 LINE",
"72 360 LINE",
"72 352 LINE",
"48 352 LINE",
"48 304 LINE",
"112 304 LINE",
"112 48 LINE",
"544 48 LINE",
"544 72 LINE",
"552 72 LINE",
"552 80 LINE"
);
},
{
closed = 1;
nodes = (
"336 360 LINE",
"312 360 LINE",
"312 312 LINE",
"336 312 LINE"
);
}
);
width = 766;
}
);
leftKerningGroup = I;
rightKerningGroup = D;
unicode = 00D0;
userData = {
com.typemytype.robofont.guides = (
{
angle = 0;
isGlobal = 0;
magnetic = 5;
x = 0;
y = 350;
}
);
};
},
{
color = 1;
glyphname = Dcroat;
layers = (
{
hints = (
{
horizontal = 1;
place = "{-2147483648, 0}";
type = Tag;
name = hr00;
}
);
layerId = "EC64484B-0978-4CB1-9EE9-C40A2D8C4059";
paths = (
{
closed = 1;
nodes = (
"550 650 LINE",
"400 650 LINE",
"350 700 LINE",
"100 700 LINE",
"50 650 LINE",
"50 400 LINE",
"0 400 LINE",
"0 250 LINE",
"50 250 LINE",
"50 0 LINE",
"600 0 LINE",
"600 50 LINE",
"700 150 LINE",
"700 500 LINE"
);
},
{
closed = 1;
nodes = (
"168 440 LINE",
"160 440 LINE",
"160 608 LINE",
"136 608 LINE",
"136 648 LINE",
"168 648 LINE"
);
},
{
closed = 1;
nodes = (
"120 416 LINE",
"104 416 LINE",
"104 608 LINE",
"120 608 LINE"
);
},
{
closed = 1;
nodes = (
"360 600 LINE",
"360 608 LINE",
"416 608 LINE",
"416 600 LINE"
);
},
{
closed = 1;
nodes = (
"504 536 LINE",
"488 536 LINE",
"488 520 LINE",
"504 520 LINE",
"504 504 LINE",
"472 504 LINE",
"472 520 LINE",
"456 520 LINE",
"456 536 LINE",
"488 536 LINE",
"488 552 LINE",
"472 552 LINE",
"472 568 LINE",
"456 568 LINE",
"456 600 LINE",
"504 600 LINE"
);
},
{
closed = 1;
nodes = (
"416 544 LINE",
"408 544 LINE",
"408 552 LINE",
"416 552 LINE"
);
},
{
closed = 1;
nodes = (
"350 250 LINE",
"400 300 LINE",
"400 400 LINE",
"300 400 LINE",
"300 500 LINE",
"350 500 LINE",
"450 450 LINE",
"450 200 LINE",
"350 150 LINE",
"300 150 LINE",
"300 250 LINE"
);
},
{
closed = 1;
nodes = (
"136 408 LINE",
"136 416 LINE",
"160 416 LINE",
"160 424 LINE",
"168 424 LINE",
"168 408 LINE"
);
},
{
closed = 1;
nodes = (
"136 88 LINE",
"136 96 LINE",
"160 96 LINE",
"160 352 LINE",
"120 352 LINE",
"120 360 LINE",
"168 360 LINE",
"168 120 LINE",
"552 120 LINE",
"552 88 LINE"
);
},
{
closed = 1;
nodes = (
"104 312 LINE",
"120 312 LINE",
"120 96 LINE",
"104 96 LINE"
);
},
{
closed = 1;
nodes = (
"552 224 LINE",
"608 224 LINE",
"608 216 LINE",
"552 216 LINE"
);
},
{
closed = 1;
nodes = (
"608 168 LINE",
"608 160 LINE",
"600 160 LINE",
"600 168 LINE"
);
}
);
width = 764;
}
);
leftKerningGroup = I;
rightKerningGroup = D;
unicode = 0110;
userData = {
com.typemytype.robofont.guides = (
{
angle = 0;
isGlobal = 0;
magnetic = 5;
x = 0;
y = 352;
},
{
angle = 90;
isGlobal = 0;
magnetic = 5;
x = 340;
y = 0;
},
{
angle = 90;
isGlobal = 0;
magnetic = 5;
x = 105;
y = 0;
}
);
};
},
{
color = 1;
glyphname = E;
layers = (
{
anchors = (
{
name = bottom;
position = "{334, 0}";
},
{
name = ogonek;
position = "{600, 10}";
},
{
name = top;
position = "{334, 700}";
},
{
name = topleft;
position = "{20, 700}";
}
);
layerId = "EC64484B-0978-4CB1-9EE9-C40A2D8C4059";
paths = (
{
closed = 1;
nodes = (
"0 700 LINE",
"0 0 LINE",
"550 0 LINE",
"550 150 LINE",
"200 150 LINE",
"200 250 LINE",
"550 250 LINE",
"550 400 LINE",
"200 400 LINE",
"200 500 LINE",
"550 500 LINE",
"550 650 LINE",
"500 700 LINE"
);
},
{
closed = 1;
nodes = (
"496 80 LINE",
"496 60 LINE",
"516 60 LINE",
"516 36 LINE",
"36 36 LINE",
"36 660 LINE",
"60 660 LINE",
"60 656 LINE",
"80 656 LINE",
"80 80 LINE"
);
},
{
closed = 1;
nodes = (
"108 660 LINE",
"132 660 LINE",
"132 656 LINE",
"144 656 LINE",
"144 132 LINE",
"156 132 LINE",
"156 108 LINE",
"108 108 LINE"
);
},
{
closed = 1;
nodes = (
"156 540 LINE",
"156 660 LINE",
"180 660 LINE",
"180 656 LINE",
"208 656 LINE",
"208 592 LINE",
"496 592 LINE",
"496 564 LINE",
"516 564 LINE",
"516 540 LINE"
);
},
{
closed = 1;
nodes = (
"504 600 LINE",
"216 600 LINE",
"216 648 LINE",
"228 648 LINE",
"228 660 LINE",
"252 660 LINE",
"252 656 LINE",
"496 656 LINE",
"496 648 LINE",
"504 648 LINE",
"504 636 LINE",
"516 636 LINE",
"516 612 LINE",
"504 612 LINE"
);
},
{
closed = 1;
nodes = (
"60 60 LINE",
"60 656 LINE",
"48 656 LINE",
"48 48 LINE",
"496 48 LINE",
"496 60 LINE"
);
},
{
closed = 1;
nodes = (
"112 112 LINE",
"144 112 LINE",
"144 132 LINE",
"132 132 LINE",
"132 656 LINE",
"112 656 LINE"
);
},
{
closed = 1;
nodes = (
"176 560 LINE",
"496 560 LINE",
"496 564 LINE",
"180 564 LINE",
"180 656 LINE",
"176 656 LINE"
);
},
{
closed = 1;
nodes = (
"252 648 LINE",
"252 656 LINE",
"240 656 LINE",
"240 648 LINE",
"228 648 LINE",
"228 612 LINE",
"504 612 LINE",
"504 636 LINE",
"496 636 LINE",
"496 648 LINE"
);
},
{
closed = 1;
nodes = (
"496 336 LINE",
"496 324 LINE",
"516 324 LINE",
"516 300 LINE",
"156 300 LINE",
"156 348 LINE",
"176 348 LINE",
"176 368 LINE",
"208 368 LINE",
"208 336 LINE"
);
},
{
closed = 1;
nodes = (
"180 324 LINE",
"180 348 LINE",
"176 348 LINE",
"176 304 LINE",
"496 304 LINE",
"496 324 LINE"
);
}
);
width = 667;
}
);
leftKerningGroup = I;
rightKerningGroup = E;
unicode = 0045;
userData = {
com.typemytype.robofont.guides = (
{
angle = 0;
isGlobal = 0;
magnetic = 5;
x = 0;
y = 334;
},
{
angle = 0;
isGlobal = 0;
magnetic = 5;
x = 0;
y = 9;
},
{
angle = 0;
isGlobal = 0;
magnetic = 5;
x = 0;
y = 376;
},
{
angle = 0;
isGlobal = 0;
magnetic = 5;
x = 0;
y = 691;
},
{
angle = 0;
isGlobal = 0;
magnetic = 5;
x = 0;
y = 649;
},
{
angle = 90;
isGlobal = 0;
magnetic = 5;
x = 664;
y = 0;
},
{
angle = 90;
isGlobal = 0;
magnetic = 5;
x = 94;
y = 0;
},
{
angle = 90;
isGlobal = 0;
magnetic = 5;
x = 511;
y = 0;
}
);
};
},
{
color = 1;
glyphname = Eogonek;
layers = (
{
hints = (
{
horizontal = 1;
place = "{-2147483648, 0}";
type = Tag;
name = hr01;
}
);
layerId = "EC64484B-0978-4CB1-9EE9-C40A2D8C4059";
paths = (
{
closed = 1;
nodes = (
"0 700 LINE",
"0 0 LINE",
"350 0 LINE",
"350 -150 LINE",
"400 -150 LINE",
"450 -200 LINE",
"550 -200 LINE",
"550 -50 LINE",
"500 -50 LINE",
"450 0 LINE",
"550 0 LINE",
"550 150 LINE",
"200 150 LINE",
"200 250 LINE",
"550 250 LINE",
"550 400 LINE",
"200 400 LINE",
"200 500 LINE",
"550 500 LINE",
"550 650 LINE",
"500 700 LINE"
);
},
{
closed = 1;
nodes = (
"56 628 LINE",
"40 628 LINE",
"40 656 LINE",
"56 656 LINE"
);
},
{
closed = 1;
nodes = (
"88 628 LINE",
"72 628 LINE",
"72 656 LINE",
"88 656 LINE"
);
},
{
closed = 1;
nodes = (
"520 112 LINE",
"520 96 LINE",
"108 96 LINE",
"108 628 LINE",
"104 628 LINE",
"104 656 LINE",
"120 656 LINE",
"120 112 LINE"
);
},
{
closed = 1;
nodes = (
"136 656 LINE",
"152 656 LINE",
"152 144 LINE",
"168 144 LINE",
"168 128 LINE",
"136 128 LINE"
);
},
{
closed = 1;
nodes = (
"168 544 LINE",
"168 656 LINE",
"184 656 LINE",
"184 560 LINE",
"520 560 LINE",
"520 544 LINE"
);
},
{
closed = 1;
nodes = (
"200 576 LINE",
"200 656 LINE",
"216 656 LINE",
"216 592 LINE",
"520 592 LINE",
"520 576 LINE"
);
},
{
closed = 1;
nodes = (
"232 608 LINE",
"232 656 LINE",
"248 656 LINE",
"248 624 LINE",
"520 624 LINE",
"520 608 LINE"
);
},
{
closed = 1;
nodes = (
"488 656 LINE",
"488 640 LINE",
"264 640 LINE",
"264 656 LINE"
);
},
{
closed = 1;
nodes = (
"168 288 LINE",
"168 368 LINE",
"184 368 LINE",
"184 304 LINE",
"520 304 LINE",
"520 288 LINE"
);
},
{
closed = 1;
nodes = (
"216 336 LINE",
"520 336 LINE",
"520 320 LINE",
"200 320 LINE",
"200 368 LINE",
"216 368 LINE"
);
},
{
closed = 1;
nodes = (
"520 368 LINE",
"520 352 LINE",
"232 352 LINE",
"232 368 LINE"
);
},
{
closed = 1;
nodes = (
"108 64 LINE",
"108 80 LINE",
"520 80 LINE",
"520 64 LINE"
);
},
{
closed = 1;
nodes = (
"40 32 LINE",
"40 52 LINE",
"56 52 LINE",
"56 48 LINE",
"520 48 LINE",
"520 32 LINE"
);
},
{
closed = 1;
nodes = (
"456 -160 LINE",
"456 -144 LINE",
"440 -144 LINE",
"440 -128 LINE",
"424 -128 LINE",
"424 -112 LINE",
"392 -112 LINE",
"392 -16 LINE",
"408 -16 LINE",
"408 -96 LINE",
"440 -96 LINE",
"440 -112 LINE",
"456 -112 LINE",
"456 -128 LINE",
"472 -128 LINE",
"472 -144 LINE",
"520 -144 LINE",
"520 -160 LINE"
);
},
{
closed = 1;
nodes = (
"472 -80 LINE",
"488 -80 LINE",
"488 -96 LINE",
"504 -96 LINE",
"504 -112 LINE",
"520 -112 LINE",
"520 -128 LINE",
"488 -128 LINE",
"488 -112 LINE",
"472 -112 LINE",
"472 -96 LINE",
"456 -96 LINE",
"456 -80 LINE",
"424 -80 LINE",
"424 -48 LINE",
"440 -48 LINE",
"440 -64 LINE",
"472 -64 LINE"
);
}
);
width = 667;
}
);
leftKerningGroup = I;
rightKerningGroup = E;
unicode = 0118;
userData = {
com.typemytype.robofont.guides = (
{
angle = 90;
isGlobal = 0;
magnetic = 5;
x = 355;
y = 0;
}
);
};
},
{
color = 1;
glyphname = F;
layers = (
{
hints = (
{
horizontal = 1;
place = "{-2147483648, 0}";
type = Tag;
name = hr00;
}
);
layerId = "EC64484B-0978-4CB1-9EE9-C40A2D8C4059";
paths = (
{
closed = 1;
nodes = (
"0 700 LINE",
"0 0 LINE",
"250 0 LINE",
"250 200 LINE",
"500 200 LINE",
"500 400 LINE",
"250 400 LINE",
"250 450 LINE",
"500 450 LINE",
"550 500 LINE",
"550 650 LINE",
"500 700 LINE"
);
},
{
closed = 1;
nodes = (
"72 72 LINE",
"72 648 LINE",
"120 648 LINE",
"120 120 LINE",
"216 120 LINE",
"216 72 LINE"
);
},
{
closed = 1;
nodes = (
"216 168 LINE",
"168 168 LINE",
"168 648 LINE",
"216 648 LINE"
);
},
{
closed = 1;
nodes = (
"264 504 LINE",
"264 648 LINE",
"312 648 LINE",
"312 552 LINE",
"504 552 LINE",
"504 504 LINE"
);
},
{
closed = 1;
nodes = (
"360 600 LINE",
"360 648 LINE",
"504 648 LINE",
"504 600 LINE"
);
},
{
closed = 1;
nodes = (
"312 360 LINE",
"312 312 LINE",
"456 312 LINE",
"456 264 LINE",
"264 264 LINE",
"264 360 LINE"
);
}
);
width = 646;
}
);
leftKerningGroup = I;
unicode = 0046;
userData = {
com.typemytype.robofont.guides = (
{
angle = 0;
isGlobal = 0;
magnetic = 5;
x = 0;
y = 320;
},
{
angle = 0;
isGlobal = 0;
magnetic = 5;
x = 0;
y = 691;
},
{
angle = 0;
isGlobal = 0;
magnetic = 5;
x = 0;
y = 649;
},
{
angle = 0;
isGlobal = 0;
magnetic = 5;
x = 0;
y = 362;
},
{
angle = 0;
isGlobal = 0;
magnetic = 5;
x = 0;
y = 9;
},
{
angle = 90;
isGlobal = 0;
magnetic = 5;
x = 761;
y = 0;
},
{
angle = 90;
isGlobal = 0;
magnetic = 5;
x = 94;
y = 0;
},
{
angle = 90;
isGlobal = 0;
magnetic = 5;
x = 487;
y = 0;
},
{
angle = 90;
isGlobal = 0;
magnetic = 5;
x = 139;
y = 0;
}
);
};
},
{
color = 1;
glyphname = G;
layers = (
{
hints = (
{
horizontal = 1;
place = "{-2147483648, 0}";
type = Tag;
name = hr01;
}
);
layerId = "EC64484B-0978-4CB1-9EE9-C40A2D8C4059";
paths = (
{
closed = 1;
nodes = (
"350 500 LINE",
"400 450 LINE",
"700 450 LINE",
"700 500 LINE",
"650 550 LINE",
"650 600 LINE",
"600 600 LINE",
"550 650 LINE",
"500 650 LINE",
"450 700 LINE",
"250 700 LINE",
"200 650 LINE",
"150 650 LINE",
"50 550 LINE",
"50 500 LINE",
"0 450 LINE",
"0 200 LINE",
"50 150 LINE",
"50 100 LINE",
"150 0 LINE",
"550 0 LINE",
"650 100 LINE",
"650 150 LINE",
"700 200 LINE",
"700 350 LINE",
"650 400 LINE",
"400 400 LINE",
"350 350 LINE",
"350 250 LINE",
"450 250 LINE",
"350 150 LINE",
"250 250 LINE",
"250 400 LINE"
);
},
{
closed = 1;
nodes = (
"304 656 LINE",
"336 656 LINE",
"336 528 LINE",
"304 528 LINE"
);
},
{
closed = 1;
nodes = (
"368 656 LINE",
"400 656 LINE",
"400 560 LINE",
"432 560 LINE",
"432 528 LINE",
"624 528 LINE",
"624 496 LINE",
"400 496 LINE",
"400 528 LINE",
"368 528 LINE"
);
},
{
closed = 1;
nodes = (
"240 624 LINE",
"272 624 LINE",
"272 464 LINE",
"240 464 LINE"
);
},
{
closed = 1;
nodes = (
"464 592 LINE",
"560 592 LINE",
"560 560 LINE",
"464 560 LINE",
"464 592 LINE",
"432 592 LINE",
"432 624 LINE",
"464 624 LINE"
);
},
{
closed = 1;
nodes = (
"304 112 LINE",
"208 112 LINE",
"208 176 LINE",
"176 176 LINE",
"176 216 LINE",
"112 216 LINE",
"112 208 LINE",
"144 208 LINE",
"144 144 LINE",
"176 144 LINE",
"176 80 LINE",
"528 80 LINE",
"528 48 LINE",
"144 48 LINE",
"144 112 LINE",
"112 112 LINE",
"112 176 LINE",
"80 176 LINE",
"80 208 LINE",
"48 208 LINE",
"48 432 LINE",
"80 432 LINE",
"80 360 LINE",
"112 360 LINE",
"112 560 LINE",
"144 560 LINE",
"144 360 LINE",
"176 360 LINE",
"176 592 LINE",
"208 592 LINE",
"208 360 LINE",
"216 360 LINE",
"216 216 LINE",
"208 216 LINE",
"208 208 LINE",
"240 208 LINE",
"240 144 LINE",
"304 144 LINE"
);
},
{
closed = 1;
nodes = (
"624 368 LINE",
"624 336 LINE",
"656 336 LINE",
"656 304 LINE",
"592 304 LINE",
"592 368 LINE"
);
},
{
closed = 1;
nodes = (
"80 360 LINE",
"72 360 LINE",
"72 216 LINE",
"112 216 LINE",
"112 240 LINE",
"80 240 LINE"
);
},
{
closed = 1;
nodes = (
"176 272 LINE",
"176 304 LINE",
"144 304 LINE",
"144 360 LINE",
"112 360 LINE",
"112 272 LINE",
"144 272 LINE",
"144 240 LINE",
"176 240 LINE",
"176 216 LINE",
"208 216 LINE",
"208 272 LINE"
);
},
{
closed = 1;
nodes = (
"176 360 LINE",
"176 336 LINE",
"208 336 LINE",
"208 360 LINE"
);
},
{
closed = 1;
nodes = (
"400 336 LINE",
"560 336 LINE",
"560 272 LINE",
"656 272 LINE",
"656 240 LINE",
"528 240 LINE",
"528 304 LINE",
"400 304 LINE"
);
},
{
closed = 1;
nodes = (
"464 176 LINE",
"464 208 LINE",
"624 208 LINE",
"624 176 LINE"
);
},
{
closed = 1;
nodes = (
"592 144 LINE",
"592 112 LINE",
"400 112 LINE",
"400 144 LINE"
);
}
);
width = 753;
}
);
leftKerningGroup = O;
rightKerningGroup = G;
unicode = 0047;
userData = {
com.typemytype.robofont.guides = (
{
angle = 0;
isGlobal = 0;
magnetic = 5;
x = 0;
y = "-10";
},
{
angle = 0;
isGlobal = 0;
magnetic = 5;
x = 0;
y = 260;
},
{
angle = 0;
isGlobal = 0;
magnetic = 5;
x = 0;
y = 440;
},
{
angle = 90;
isGlobal = 0;
magnetic = 5;
x = 334;
y = 0;
},
{
angle = 90;
isGlobal = 0;
magnetic = 5;
x = 133;
y = 0;
},
{
angle = 90;
isGlobal = 0;
magnetic = 5;
x = 604;
y = 0;
},
{
angle = 90;
isGlobal = 0;
magnetic = 5;
x = 67;
y = 0;
}
);
};
},
{
color = 1;
glyphname = H;
layers = (
{
layerId = "EC64484B-0978-4CB1-9EE9-C40A2D8C4059";
paths = (
{
closed = 1;
nodes = (
"400 700 LINE",
"400 450 LINE",
"250 450 LINE",
"250 650 LINE",
"200 700 LINE",
"0 700 LINE",
"0 0 LINE",
"250 0 LINE",
"250 200 LINE",
"400 200 LINE",
"400 0 LINE",
"650 0 LINE",
"650 650 LINE",
"600 700 LINE"
);
},
{
closed = 1;
nodes = (
"48 48 LINE",
"48 656 LINE",
"80 656 LINE",
"80 80 LINE",
"208 80 LINE",
"208 48 LINE"
);
},
{
closed = 1;
nodes = (
"112 112 LINE",
"112 656 LINE",
"144 656 LINE",
"144 144 LINE",
"208 144 LINE",
"208 112 LINE"
);
},
{
closed = 1;
nodes = (
"432 432 LINE",
"432 656 LINE",
"464 656 LINE",
"464 464 LINE",
"592 464 LINE",
"592 432 LINE"
);
},
{
closed = 1;
nodes = (
"496 496 LINE",
"496 656 LINE",
"528 656 LINE",
"528 528 LINE",
"592 528 LINE",
"592 496 LINE"
);
},
{
closed = 1;
nodes = (
"592 560 LINE",
"560 560 LINE",
"560 656 LINE",
"592 656 LINE"
);
},
{
closed = 1;
nodes = (
"208 176 LINE",
"176 176 LINE",
"176 624 LINE",
"208 624 LINE"
);
},
{
closed = 1;
nodes = (
"432 48 LINE",
"432 240 LINE",
"240 240 LINE",
"240 400 LINE",
"272 400 LINE",
"272 272 LINE",
"464 272 LINE",
"464 80 LINE",
"592 80 LINE",
"592 48 LINE"
);
},
{
closed = 1;
nodes = (
"496 112 LINE",
"496 304 LINE",
"304 304 LINE",
"304 400 LINE",
"336 400 LINE",
"336 336 LINE",
"528 336 LINE",
"528 144 LINE",
"592 144 LINE",
"592 112 LINE"
);
},
{
closed = 1;
nodes = (
"592 176 LINE",
"560 176 LINE",
"560 368 LINE",
"368 368 LINE",
"368 400 LINE",
"592 400 LINE"
);
}
);
width = 772;
}
);
leftKerningGroup = I;
rightKerningGroup = I;
unicode = 0048;
userData = {
com.typemytype.robofont.guides = (
{
angle = 0;
isGlobal = 0;
magnetic = 5;
x = 0;
y = 350;
},
{
angle = 0;
isGlobal = 0;
magnetic = 5;
x = 0;
y = 9;
},
{
angle = 0;
isGlobal = 0;
magnetic = 5;
x = 0;
y = 691;
},
{
angle = 90;
isGlobal = 0;
magnetic = 5;
x = 94;
y = 0;
},
{
angle = 90;
isGlobal = 0;
magnetic = 5;
x = 139;
y = 0;
},
{
angle = 90;
isGlobal = 0;
magnetic = 5;
x = 543;
y = 0;
},
{
angle = 90;
isGlobal = 0;
magnetic = 5;
x = 588;
y = 0;
}
);
};
},
{
color = 1;
glyphname = Hbar;
layers = (
{
components = (
{
name = H;
}
);
hints = (
{
horizontal = 1;
place = "{-2147483648, 0}";
type = Tag;
name = hr00;
}
);
layerId = "EC64484B-0978-4CB1-9EE9-C40A2D8C4059";
paths = (
{
closed = 1;
nodes = (
"0 600 LINE",
"0 500 LINE",
"650 500 LINE",
"650 600 LINE"
);
}
);
width = 772;
}
);
leftKerningGroup = I;
rightKerningGroup = I;
unicode = 0126;
},
{
color = 1;
glyphname = I;
layers = (
{
anchors = (
{
name = bottom;
position = "{184, 0}";
},
{
name = ogonek;
position = "{331, 10}";
},
{
name = top;
position = "{184, 700}";
},
{
name = topleft;
position = "{20, 700}";
}
);
layerId = "EC64484B-0978-4CB1-9EE9-C40A2D8C4059";
paths = (
{
closed = 1;
nodes = (
"0 700 LINE",
"0 0 LINE",
"250 0 LINE",
"250 650 LINE",
"200 700 LINE"
);
},
{
closed = 1;
nodes = (
"48 48 LINE",
"48 656 LINE",
"80 656 LINE",
"80 80 LINE",
"208 80 LINE",
"208 48 LINE"
);
},
{
closed = 1;
nodes = (
"112 112 LINE",
"112 656 LINE",
"144 656 LINE",
"144 144 LINE",
"208 144 LINE",
"208 112 LINE"
);
},
{
closed = 1;
nodes = (
"208 176 LINE",
"176 176 LINE",
"176 624 LINE",
"208 624 LINE"
);
}
);
width = 368;
}
);
leftKerningGroup = I;
rightKerningGroup = I;
unicode = 0049;
userData = {
com.typemytype.robofont.guides = (
{
angle = 90;
isGlobal = 0;
magnetic = 5;
x = 85;
y = 0;
},
{
angle = 90;
isGlobal = 0;
magnetic = 5;
x = 148;
y = 0;
}
);
};
},
{
color = 1;
glyphname = IJ;
layers = (
{
hints = (
{
horizontal = 1;
place = "{-2147483648, 0}";
type = Tag;
name = hr01;
}
);
layerId = "EC64484B-0978-4CB1-9EE9-C40A2D8C4059";
paths = (
{
closed = 1;
nodes = (
"0 700 LINE",
"0 0 LINE",
"250 0 LINE",
"250 650 LINE",
"200 700 LINE"
);
},
{
closed = 1;
nodes = (
"450 700 LINE",
"400 650 LINE",
"400 200 LINE",
"350 200 LINE",
"300 150 LINE",
"300 0 LINE",
"550 0 LINE",
"600 50 LINE",
"650 50 LINE",
"650 100 LINE",
"700 200 LINE",
"700 650 LINE",
"650 700 LINE"
);
},
{
closed = 1;
nodes = (
"496 656 LINE",
"504 656 LINE",
"504 240 LINE",
"496 240 LINE"
);
},
{
closed = 1;
nodes = (
"536 240 LINE",
"520 240 LINE",
"520 656 LINE",
"528 656 LINE",
"528 272 LINE",
"536 272 LINE"
);
},
{
closed = 1;
nodes = (
"560 656 LINE",
"568 656 LINE",
"568 304 LINE",
"560 304 LINE"
);
},
{
closed = 1;
nodes = (
"600 304 LINE",
"584 304 LINE",
"584 656 LINE",
"592 656 LINE",
"592 336 LINE",
"600 336 LINE"
);
},
{
closed = 1;
nodes = (
"432 624 LINE",
"440 624 LINE",
"440 176 LINE",
"432 176 LINE"
);
},
{
closed = 1;
nodes = (
"472 176 LINE",
"456 176 LINE",
"456 624 LINE",
"464 624 LINE",
"464 208 LINE",
"472 208 LINE"
);
},
{
closed = 1;
nodes = (
"624 624 LINE",
"632 624 LINE",
"632 368 LINE",
"624 368 LINE"
);
},
{
closed = 1;
nodes = (
"656 368 LINE",
"648 368 LINE",
"648 624 LINE",
"656 624 LINE"
);
},
{
closed = 1;
nodes = (
"616 336 LINE",
"624 336 LINE",
"624 312 LINE",
"616 312 LINE"
);
},
{
closed = 1;
nodes = (
"552 272 LINE",
"560 272 LINE",
"560 248 LINE",
"552 248 LINE"
);
},
{
closed = 1;
nodes = (
"488 208 LINE",
"496 208 LINE",
"496 184 LINE",
"488 184 LINE"
);
},
{
closed = 1;
nodes = (
"336 144 LINE",
"344 144 LINE",
"344 48 LINE",
"336 48 LINE"
);
},
{
closed = 1;
nodes = (
"368 56 LINE",
"360 56 LINE",
"360 144 LINE",
"368 144 LINE"
);
},
{
closed = 1;
nodes = (
"408 112 LINE",
"400 112 LINE",
"400 144 LINE",
"408 144 LINE"
);
},
{
closed = 1;
nodes = (
"424 144 LINE",
"432 144 LINE",
"432 120 LINE",
"424 120 LINE"
);
}
);
width = 807;
}
);
leftKerningGroup = I;
unicode = 0132;
userData = {
com.typemytype.robofont.guides = (
{
angle = 90;
isGlobal = 0;
magnetic = 5;
x = 642;
y = 0;
}
);
};
},
{
color = 1;
glyphname = Iogonek;
layers = (
{
hints = (
{
horizontal = 1;
place = "{-2147483648, 0}";
type = Tag;
name = hr01;
}
);
layerId = "EC64484B-0978-4CB1-9EE9-C40A2D8C4059";
paths = (
{
closed = 1;
nodes = (
"0 700 LINE",
"0 0 LINE",
"50 0 LINE",
"50 -150 LINE",
"100 -150 LINE",
"150 -200 LINE",
"200 -200 LINE",
"250 -150 LINE",
"250 -100 LINE",
"200 -100 LINE",
"150 -50 LINE",
"200 0 LINE",
"250 0 LINE",
"250 650 LINE",
"200 700 LINE"
);
},
{
closed = 1;
nodes = (
"168 -112 LINE",
"168 -128 LINE",
"184 -128 LINE",
"184 -144 LINE",
"200 -144 LINE",
"200 -160 LINE",
"168 -160 LINE",
"168 -144 LINE",
"152 -144 LINE",
"152 -128 LINE",
"136 -128 LINE",
"136 -112 LINE",
"88 -112 LINE",
"88 32 LINE",
"40 32 LINE",
"40 656 LINE",
"56 656 LINE",
"56 48 LINE",
"104 48 LINE",
"104 -96 LINE",
"152 -96 LINE",
"152 -112 LINE"
);
},
{
closed = 1;
nodes = (
"72 656 LINE",
"88 656 LINE",
"88 80 LINE",
"136 80 LINE",
"136 -16 LINE",
"120 -16 LINE",
"120 64 LINE",
"72 64 LINE"
);
},
{
closed = 1;
nodes = (
"168 16 LINE",
"152 16 LINE",
"152 96 LINE",
"104 96 LINE",
"104 656 LINE",
"120 656 LINE",
"120 112 LINE",
"168 112 LINE"
);
},
{
closed = 1;
nodes = (
"184 32 LINE",
"184 128 LINE",
"136 128 LINE",
"136 656 LINE",
"152 656 LINE",
"152 144 LINE",
"200 144 LINE",
"200 48 LINE",
"216 48 LINE",
"216 32 LINE"
);
},
{
closed = 1;
nodes = (
"168 160 LINE",
"168 656 LINE",
"184 656 LINE",
"184 176 LINE",
"216 176 LINE",
"216 160 LINE"
);
},
{
closed = 1;
nodes = (
"216 192 LINE",
"200 192 LINE",
"200 640 LINE",
"216 640 LINE"
);
}
);
width = 368;
}
);
leftKerningGroup = I;
rightKerningGroup = I;
unicode = 012E;
userData = {
com.typemytype.robofont.guides = (
{
angle = 90;
isGlobal = 0;
magnetic = 5;
x = 110;
y = 0;
}
);
};
},
{
color = 1;
glyphname = J;
layers = (
{
hints = (
{
horizontal = 1;
place = "{-2147483648, 0}";
type = Tag;
name = hr00;
}
);
layerId = "EC64484B-0978-4CB1-9EE9-C40A2D8C4059";
paths = (
{
closed = 1;
nodes = (
"50 700 LINE",
"50 450 LINE",
"350 450 LINE",
"350 200 LINE",
"300 150 LINE",
"200 250 LINE",
"0 250 LINE",
"0 100 LINE",
"100 0 LINE",
"500 0 LINE",
"600 100 LINE",
"600 200 LINE",
"650 250 LINE",
"650 650 LINE",
"600 700 LINE"
);
},
{
closed = 1;
nodes = (
"88 660 LINE",
"88 664 LINE",
"104 664 LINE",
"104 660 LINE"
);
},
{
closed = 1;
nodes = (
"120 664 LINE",
"136 664 LINE",
"136 552 LINE",
"120 552 LINE"
);
},
{
closed = 1;
nodes = (
"152 664 LINE",
"168 664 LINE",
"168 568 LINE",
"472 568 LINE",
"472 264 LINE",
"456 264 LINE",
"456 552 LINE",
"152 552 LINE"
);
},
{
closed = 1;
nodes = (
"184 660 LINE",
"184 664 LINE",
"200 664 LINE",
"200 660 LINE"
);
},
{
closed = 1;
nodes = (
"232 648 LINE",
"216 648 LINE",
"216 664 LINE",
"232 664 LINE"
);
},
{
closed = 1;
nodes = (
"568 664 LINE",
"568 360 LINE",
"552 360 LINE",
"552 648 LINE",
"248 648 LINE",
"248 664 LINE"
);
},
{
closed = 1;
nodes = (
"584 360 LINE",
"584 648 LINE",
"600 648 LINE",
"600 376 LINE",
"616 376 LINE",
"616 360 LINE"
);
},
{
closed = 1;
nodes = (
"488 264 LINE",
"488 584 LINE",
"184 584 LINE",
"184 588 LINE",
"204 588 LINE",
"204 600 LINE",
"504 600 LINE",
"504 280 LINE",
"616 280 LINE",
"616 264 LINE"
);
},
{
closed = 1;
nodes = (
"392 168 LINE",
"392 488 LINE",
"88 488 LINE",
"88 492 LINE",
"108 492 LINE",
"108 504 LINE",
"408 504 LINE",
"408 184 LINE",
"568 184 LINE",
"568 168 LINE"
);
},
{
closed = 1;
nodes = (
"612 344 LINE",
"616 344 LINE",
"616 328 LINE",
"612 328 LINE"
);
},
{
closed = 1;
nodes = (
"520 296 LINE",
"520 300 LINE",
"540 300 LINE",
"540 312 LINE",
"616 312 LINE",
"616 296 LINE"
);
},
{
closed = 1;
nodes = (
"564 232 LINE",
"564 248 LINE",
"584 248 LINE",
"584 232 LINE"
);
},
{
closed = 1;
nodes = (
"40 204 LINE",
"40 216 LINE",
"56 216 LINE",
"56 204 LINE"
);
},
{
closed = 1;
nodes = (
"72 216 LINE",
"88 216 LINE",
"88 168 LINE",
"72 168 LINE"
);
},
{
closed = 1;
nodes = (
"104 216 LINE",
"120 216 LINE",
"120 184 LINE",
"136 184 LINE",
"136 168 LINE",
"104 168 LINE"
);
},
{
closed = 1;
nodes = (
"168 216 LINE",
"168 204 LINE",
"156 204 LINE",
"156 184 LINE",
"152 184 LINE",
"152 200 LINE",
"136 200 LINE",
"136 216 LINE"
);
},
{
closed = 1;
nodes = (
"424 200 LINE",
"424 204 LINE",
"444 204 LINE",
"444 216 LINE",
"568 216 LINE",
"568 200 LINE"
);
},
{
closed = 1;
nodes = (
"180 180 LINE",
"180 168 LINE",
"168 168 LINE",
"168 180 LINE",
"180 180 LINE",
"180 200 LINE",
"184 200 LINE",
"184 184 LINE",
"200 184 LINE",
"200 180 LINE"
);
},
{
closed = 1;
nodes = (
"204 136 LINE",
"200 136 LINE",
"200 152 LINE",
"184 152 LINE",
"184 156 LINE",
"204 156 LINE",
"204 168 LINE",
"216 168 LINE",
"216 156 LINE",
"204 156 LINE"
);
},
{
closed = 1;
nodes = (
"228 136 LINE",
"228 152 LINE",
"248 152 LINE",
"248 136 LINE"
);
},
{
closed = 1;
nodes = (
"360 152 LINE",
"372 152 LINE",
"372 136 LINE",
"360 136 LINE"
);
},
{
closed = 1;
nodes = (
"564 152 LINE",
"568 152 LINE",
"568 136 LINE",
"564 136 LINE"
);
},
{
closed = 1;
nodes = (
"280 104 LINE",
"168 104 LINE",
"168 136 LINE",
"184 136 LINE",
"184 120 LINE",
"280 120 LINE"
);
},
{
closed = 1;
nodes = (
"60 108 LINE",
"60 120 LINE",
"72 120 LINE",
"72 108 LINE",
"60 108 LINE",
"60 88 LINE",
"56 88 LINE",
"56 104 LINE",
"40 104 LINE",
"40 108 LINE"
);
},
{
closed = 1;
nodes = (
"120 120 LINE",
"120 104 LINE",
"104 104 LINE",
"104 120 LINE"
);
},
{
closed = 1;
nodes = (
"328 104 LINE",
"328 120 LINE",
"552 120 LINE",
"552 104 LINE"
);
},
{
closed = 1;
nodes = (
"84 104 LINE",
"88 104 LINE",
"88 88 LINE",
"104 88 LINE",
"104 84 LINE",
"84 84 LINE",
"84 72 LINE",
"72 72 LINE",
"72 84 LINE",
"84 84 LINE"
);
},
{
closed = 1;
nodes = (
"168 72 LINE",
"168 88 LINE",
"520 88 LINE",
"520 72 LINE"
);
},
{
closed = 1;
nodes = (
"108 60 LINE",
"108 72 LINE",
"120 72 LINE",
"120 60 LINE",
"108 60 LINE",
"108 40 LINE",
"104 40 LINE",
"104 56 LINE",
"88 56 LINE",
"88 60 LINE"
);
}
);
width = 702;
}
);
leftKerningGroup = J;
rightKerningGroup = U;
unicode = 004A;
userData = {
com.typemytype.robofont.guides = (
{
angle = 0;
isGlobal = 0;
magnetic = 5;
x = 0;
y = "-10";
},
{
angle = 0;
isGlobal = 0;
magnetic = 5;
x = 0;
y = 133;
},
{
angle = 0;
isGlobal = 0;
magnetic = 5;
x = 0;
y = 677;
},
{
angle = 90;
isGlobal = 0;
magnetic = 5;
x = 303;
y = 0;
},
{
angle = 90;
isGlobal = 0;
magnetic = 5;
x = 60;
y = 0;
},
{
angle = 90;
isGlobal = 0;
magnetic = 5;
x = 91;
y = 0;
}
);
};
},
{
color = 1;
glyphname = K;
layers = (
{
layerId = "EC64484B-0978-4CB1-9EE9-C40A2D8C4059";
paths = (
{
closed = 1;
nodes = (
"500 200 LINE",
"500 250 LINE",
"450 300 LINE",
"450 400 LINE",
"500 400 LINE",
"500 450 LINE",
"550 500 LINE",
"550 550 LINE",
"600 600 LINE",
"600 700 LINE",
"400 700 LINE",
"300 600 LINE",
"300 550 LINE",
"250 550 LINE",
"250 650 LINE",
"200 700 LINE",
"0 700 LINE",
"0 0 LINE",
"250 0 LINE",
"250 150 LINE",
"300 100 LINE",
"300 50 LINE",
"350 0 LINE",
"650 0 LINE",
"600 50 LINE",
"600 100 LINE"
);
},
{
closed = 1;
nodes = (
"72 72 LINE",
"72 648 LINE",
"120 648 LINE",
"120 120 LINE",
"216 120 LINE",
"216 72 LINE"
);
},
{
closed = 1;
nodes = (
"168 600 LINE",
"216 600 LINE",
"216 168 LINE",
"168 168 LINE"
);
},
{
closed = 1;
nodes = (
"504 600 LINE",
"504 504 LINE",
"456 504 LINE",
"456 552 LINE",
"360 552 LINE",
"360 600 LINE"
);
},
{
closed = 1;
nodes = (
"408 504 LINE",
"408 312 LINE",
"360 312 LINE",
"360 456 LINE",
"312 456 LINE",
"312 504 LINE"
);
},
{
closed = 1;
nodes = (
"312 360 LINE",
"264 360 LINE",
"264 408 LINE",
"312 408 LINE"
);
},
{
closed = 1;
nodes = (
"360 72 LINE",
"360 168 LINE",
"312 168 LINE",
"312 216 LINE",
"408 216 LINE",
"408 120 LINE",
"504 120 LINE",
"504 72 LINE"
);
}
);
width = 715;
}
);
leftKerningGroup = I;
rightKerningGroup = K;
unicode = 004B;
userData = {
com.typemytype.robofont.guides = (
{
angle = 0;
isGlobal = 0;
magnetic = 5;
x = 0;
y = 365;
},
{
angle = 90;
isGlobal = 0;
magnetic = 5;
x = 547;
y = 0;
},
{
angle = 90;
isGlobal = 0;
magnetic = 5;
x = 94;
y = 0;
},
{
angle = 90;
isGlobal = 0;
magnetic = 5;
x = 139;
y = 0;
}
);
};
},
{
color = 1;
glyphname = L;
layers = (
{
anchors = (
{
name = bottom;
position = "{313, 0}";
},
{
name = center;
position = "{313, 350}";
},
{
name = top;
position = "{173, 700}";
},
{
name = topright;
position = "{606, 700}";
}
);
layerId = "EC64484B-0978-4CB1-9EE9-C40A2D8C4059";
paths = (
{
closed = 1;
nodes = (
"250 200 LINE",
"250 650 LINE",
"200 700 LINE",
"0 700 LINE",
"0 0 LINE",
"550 0 LINE",
"550 150 LINE",
"500 200 LINE"
);
},
{
closed = 1;
nodes = (
"48 48 LINE",
"48 656 LINE",
"80 656 LINE",
"80 80 LINE",
"496 80 LINE",
"496 48 LINE"
);
},
{
closed = 1;
nodes = (
"112 112 LINE",
"112 656 LINE",
"144 656 LINE",
"144 144 LINE",
"496 144 LINE",
"496 112 LINE"
);
},
{
closed = 1;
nodes = (
"176 600 LINE",
"176 624 LINE",
"208 624 LINE",
"208 600 LINE"
);
}
);
width = 626;
}
);
leftKerningGroup = I;
rightKerningGroup = L;
unicode = 004C;
},
{
color = 1;
glyphname = Lslash;
layers = (
{
hints = (
{
horizontal = 1;
place = "{-2147483648, 0}";
type = Tag;
name = hr00;
}
);
layerId = "EC64484B-0978-4CB1-9EE9-C40A2D8C4059";
paths = (
{
closed = 1;
nodes = (
"300 200 LINE",
"300 300 LINE",
"350 300 LINE",
"350 350 LINE",
"450 350 LINE",
"450 500 LINE",
"350 500 LINE",
"300 450 LINE",
"300 650 LINE",
"250 700 LINE",
"50 700 LINE",
"50 350 LINE",
"0 350 LINE",
"0 200 LINE",
"50 200 LINE",
"50 0 LINE",
"600 0 LINE",
"600 150 LINE",
"550 200 LINE"
);
},
{
closed = 1;
nodes = (
"168 120 LINE",
"168 144 LINE",
"180 144 LINE",
"180 132 LINE",
"528 132 LINE",
"528 120 LINE"
);
},
{
closed = 1;
nodes = (
"144 60 LINE",
"144 72 LINE",
"528 72 LINE",
"528 60 LINE"
);
}
);
width = 634;
}
);
leftKerningGroup = I;
rightKerningGroup = L;
unicode = 0141;
userData = {
com.typemytype.robofont.guides = (
{
angle = 0;
isGlobal = 0;
magnetic = 5;
x = 0;
y = 215;
},
{
angle = 0;
isGlobal = 0;
magnetic = 5;
x = 0;
y = 548;
},
{
angle = 0;
isGlobal = 0;
magnetic = 5;
x = 0;
y = 438;
},
{
angle = 0;
isGlobal = 0;
magnetic = 5;
x = 0;
y = 267;
},
{
angle = 0;
isGlobal = 0;
magnetic = 5;
x = 0;
y = 353;
},
{
angle = 90;
isGlobal = 0;
magnetic = 5;
x = 129;
y = 0;
},
{
angle = 90;
isGlobal = 0;
magnetic = 5;
x = 325;
y = 0;
},
{
angle = 90;
isGlobal = 0;
magnetic = 5;
x = "-5";
y = 0;
}
);
};
},
{
color = 1;
glyphname = M;
layers = (
{
hints = (
{
horizontal = 1;
place = "{-2147483648, 0}";
type = Tag;
name = hr00;
}
);
layerId = "EC64484B-0978-4CB1-9EE9-C40A2D8C4059";
paths = (
{
closed = 1;
nodes = (
"550 700 LINE",
"450 600 LINE",
"450 550 LINE",
"400 500 LINE",
"400 450 LINE",
"350 400 LINE",
"350 450 LINE",
"300 500 LINE",
"300 550 LINE",
"250 550 LINE",
"250 600 LINE",
"150 700 LINE",
"0 700 LINE",
"0 0 LINE",
"200 0 LINE",
"200 300 LINE",
"250 250 LINE",
"250 200 LINE",
"300 150 LINE",
"450 150 LINE",
"450 250 LINE",
"500 300 LINE",
"500 0 LINE",
"750 0 LINE",
"750 650 LINE",
"700 700 LINE"
);
},
{
closed = 1;
nodes = (
"120 104 LINE",
"120 88 LINE",
"168 88 LINE",
"168 72 LINE",
"120 72 LINE",
"120 56 LINE",
"168 56 LINE",
"168 40 LINE",
"120 40 LINE",
"120 56 LINE",
"56 56 LINE",
"56 600 LINE",
"40 600 LINE",
"40 664 LINE",
"56 664 LINE",
"56 600 LINE",
"72 600 LINE",
"72 664 LINE",
"88 664 LINE",
"88 600 LINE",
"104 600 LINE",
"104 664 LINE",
"120 664 LINE",
"120 600 LINE",
"104 600 LINE",
"104 104 LINE",
"120 104 LINE",
"120 120 LINE",
"168 120 LINE",
"168 104 LINE"
);
},
{
closed = 1;
nodes = (
"664 168 LINE",
"664 440 LINE",
"656 440 LINE",
"656 152 LINE",
"712 152 LINE",
"712 136 LINE",
"632 136 LINE",
"632 144 LINE",
"624 144 LINE",
"624 440 LINE",
"616 440 LINE",
"616 120 LINE",
"608 120 LINE",
"608 416 LINE",
"600 416 LINE",
"600 96 LINE",
"608 96 LINE",
"608 104 LINE",
"680 104 LINE",
"680 120 LINE",
"712 120 LINE",
"712 104 LINE",
"680 104 LINE",
"680 88 LINE",
"712 88 LINE",
"712 72 LINE",
"680 72 LINE",
"680 56 LINE",
"712 56 LINE",
"712 40 LINE",
"680 40 LINE",
"680 56 LINE",
"600 56 LINE",
"600 40 LINE",
"536 40 LINE",
"536 376 LINE",
"504 376 LINE",
"504 392 LINE",
"488 392 LINE",
"488 456 LINE",
"472 456 LINE",
"472 520 LINE",
"488 520 LINE",
"488 472 LINE",
"504 472 LINE",
"504 408 LINE",
"520 408 LINE",
"520 392 LINE",
"544 392 LINE",
"544 400 LINE",
"560 400 LINE",
"560 96 LINE",
"552 96 LINE",
"552 56 LINE",
"600 56 LINE",
"600 72 LINE",
"568 72 LINE",
"568 80 LINE",
"592 80 LINE",
"592 88 LINE",
"600 88 LINE",
"600 96 LINE",
"592 96 LINE",
"592 416 LINE",
"600 416 LINE",
"600 440 LINE",
"616 440 LINE",
"616 456 LINE",
"584 456 LINE",
"584 472 LINE",
"568 472 LINE",
"568 520 LINE",
"552 520 LINE",
"552 456 LINE",
"568 456 LINE",
"568 440 LINE",
"552 440 LINE",
"552 432 LINE",
"528 432 LINE",
"528 424 LINE",
"520 424 LINE",
"520 440 LINE",
"536 440 LINE",
"536 504 LINE",
"528 504 LINE",
"528 520 LINE",
"536 520 LINE",
"536 568 LINE",
"520 568 LINE",
"520 616 LINE",
"536 616 LINE",
"536 584 LINE",
"544 584 LINE",
"544 608 LINE",
"552 608 LINE",
"552 648 LINE",
"568 648 LINE",
"568 624 LINE",
"560 624 LINE",
"560 608 LINE",
"552 608 LINE",
"552 600 LINE",
"560 600 LINE",
"560 560 LINE",
"568 560 LINE",
"568 552 LINE",
"584 552 LINE",
"584 544 LINE",
"600 544 LINE",
"600 568 LINE",
"592 568 LINE",
"592 608 LINE",
"600 608 LINE",
"600 632 LINE",
"584 632 LINE",
"584 664 LINE",
"600 664 LINE",
"600 648 LINE",
"616 648 LINE",
"616 600 LINE",
"632 600 LINE",
"632 536 LINE",
"648 536 LINE",
"648 520 LINE",
"632 520 LINE",
"632 504 LINE",
"664 504 LINE",
"664 440 LINE",
"680 440 LINE",
"680 184 LINE",
"712 184 LINE",
"712 168 LINE"
);
},
{
closed = 1;
nodes = (
"712 496 LINE",
"712 552 LINE",
"680 552 LINE",
"680 560 LINE",
"656 560 LINE",
"656 552 LINE",
"664 552 LINE",
"664 536 LINE",
"696 536 LINE",
"696 496 LINE",
"688 496 LINE",
"688 528 LINE",
"656 528 LINE",
"656 552 LINE",
"648 552 LINE",
"648 616 LINE",
"632 616 LINE",
"632 624 LINE",
"624 624 LINE",
"624 656 LINE",
"632 656 LINE",
"632 664 LINE",
"648 664 LINE",
"648 656 LINE",
"656 656 LINE",
"656 632 LINE",
"664 632 LINE",
"664 568 LINE",
"680 568 LINE",
"680 560 LINE",
"720 560 LINE",
"720 496 LINE"
);
},
{
closed = 1;
nodes = (
"680 648 LINE",
"696 648 LINE",
"696 600 LINE",
"712 600 LINE",
"712 568 LINE",
"696 568 LINE",
"696 584 LINE",
"680 584 LINE",
"680 648 LINE",
"664 648 LINE",
"664 664 LINE",
"680 664 LINE"
);
},
{
closed = 1;
nodes = (
"648 632 LINE",
"648 656 LINE",
"632 656 LINE",
"632 624 LINE",
"656 624 LINE",
"656 632 LINE"
);
},
{
closed = 1;
nodes = (
"136 136 LINE",
"136 648 LINE",
"152 648 LINE",
"152 152 LINE",
"168 152 LINE",
"168 136 LINE"
);
},
{
closed = 1;
nodes = (
"168 616 LINE",
"184 616 LINE",
"184 400 LINE",
"176 400 LINE",
"176 376 LINE",
"168 376 LINE"
);
},
{
closed = 1;
nodes = (
"608 608 LINE",
"600 608 LINE",
"600 584 LINE",
"608 584 LINE"
);
},
{
closed = 1;
nodes = (
"88 600 LINE",
"72 600 LINE",
"72 72 LINE",
"120 72 LINE",
"120 88 LINE",
"88 88 LINE"
);
},
{
closed = 1;
nodes = (
"200 584 LINE",
"216 584 LINE",
"216 440 LINE",
"232 440 LINE",
"232 520 LINE",
"248 520 LINE",
"248 464 LINE",
"272 464 LINE",
"272 440 LINE",
"264 440 LINE",
"264 456 LINE",
"248 456 LINE",
"248 464 LINE",
"240 464 LINE",
"240 432 LINE",
"248 432 LINE",
"248 424 LINE",
"264 424 LINE",
"264 408 LINE",
"272 408 LINE",
"272 400 LINE",
"304 400 LINE",
"304 408 LINE",
"296 408 LINE",
"296 424 LINE",
"280 424 LINE",
"280 432 LINE",
"304 432 LINE",
"304 408 LINE",
"312 408 LINE",
"312 376 LINE",
"296 376 LINE",
"296 392 LINE",
"280 392 LINE",
"280 376 LINE",
"264 376 LINE",
"264 392 LINE",
"248 392 LINE",
"248 408 LINE",
"232 408 LINE",
"232 424 LINE",
"216 424 LINE",
"216 440 LINE",
"200 440 LINE"
);
},
{
closed = 1;
nodes = (
"488 584 LINE",
"504 584 LINE",
"504 560 LINE",
"496 560 LINE",
"496 536 LINE",
"488 536 LINE"
);
},
{
closed = 1;
nodes = (
"552 584 LINE",
"544 584 LINE",
"544 544 LINE",
"552 544 LINE"
);
},
{
closed = 1;
nodes = (
"616 584 LINE",
"608 584 LINE",
"608 544 LINE",
"600 544 LINE",
"600 520 LINE",
"616 520 LINE"
);
},
{
closed = 1;
nodes = (
"552 544 LINE",
"552 536 LINE",
"568 536 LINE",
"568 520 LINE",
"584 520 LINE",
"584 544 LINE"
);
},
{
closed = 1;
nodes = (
"616 496 LINE",
"616 504 LINE",
"600 504 LINE",
"600 520 LINE",
"584 520 LINE",
"584 488 LINE",
"592 488 LINE",
"592 464 LINE",
"624 464 LINE",
"624 440 LINE",
"632 440 LINE",
"632 144 LINE",
"656 144 LINE",
"656 152 LINE",
"648 152 LINE",
"648 440 LINE",
"656 440 LINE",
"656 496 LINE"
);
},
{
closed = 1;
nodes = (
"520 496 LINE",
"520 488 LINE",
"504 488 LINE",
"504 496 LINE"
);
},
{
closed = 1;
nodes = (
"456 464 LINE",
"440 464 LINE",
"440 488 LINE",
"456 488 LINE"
);
},
{
closed = 1;
nodes = (
"472 344 LINE",
"472 360 LINE",
"456 360 LINE",
"456 424 LINE",
"440 424 LINE",
"440 432 LINE",
"464 432 LINE",
"464 440 LINE",
"472 440 LINE",
"472 376 LINE",
"488 376 LINE",
"488 344 LINE"
);
},
{
closed = 1;
nodes = (
"232 392 LINE",
"232 376 LINE",
"248 376 LINE",
"248 360 LINE",
"240 360 LINE",
"240 368 LINE",
"216 368 LINE",
"216 376 LINE",
"208 376 LINE",
"208 400 LINE",
"200 400 LINE",
"200 408 LINE",
"216 408 LINE",
"216 392 LINE"
);
},
{
closed = 1;
nodes = (
"440 312 LINE",
"440 328 LINE",
"424 328 LINE",
"424 392 LINE",
"408 392 LINE",
"408 408 LINE",
"440 408 LINE",
"440 344 LINE",
"456 344 LINE",
"456 312 LINE"
);
},
{
closed = 1;
nodes = (
"544 96 LINE",
"552 96 LINE",
"552 392 LINE",
"544 392 LINE"
);
},
{
closed = 1;
nodes = (
"408 280 LINE",
"408 296 LINE",
"392 296 LINE",
"392 360 LINE",
"376 360 LINE",
"376 376 LINE",
"408 376 LINE",
"408 312 LINE",
"424 312 LINE",
"424 280 LINE"
);
},
{
closed = 1;
nodes = (
"200 368 LINE",
"200 360 LINE",
"208 360 LINE",
"208 344 LINE",
"200 344 LINE",
"200 360 LINE",
"184 360 LINE",
"184 368 LINE"
);
},
{
closed = 1;
nodes = (
"344 248 LINE",
"360 248 LINE",
"360 240 LINE",
"336 240 LINE",
"336 232 LINE",
"328 232 LINE",
"328 296 LINE",
"312 296 LINE",
"312 312 LINE",
"296 312 LINE",
"296 328 LINE",
"280 328 LINE",
"280 344 LINE",
"264 344 LINE",
"264 360 LINE",
"296 360 LINE",
"296 344 LINE",
"312 344 LINE",
"312 328 LINE",
"328 328 LINE",
"328 312 LINE",
"344 312 LINE"
);
},
{
closed = 1;
nodes = (
"240 336 LINE",
"240 344 LINE",
"248 344 LINE",
"248 336 LINE",
"240 336 LINE",
"240 312 LINE",
"232 312 LINE",
"232 328 LINE",
"216 328 LINE",
"216 336 LINE"
);
},
{
closed = 1;
nodes = (
"376 248 LINE",
"376 264 LINE",
"360 264 LINE",
"360 328 LINE",
"344 328 LINE",
"344 344 LINE",
"376 344 LINE",
"376 280 LINE",
"392 280 LINE",
"392 264 LINE",
"408 264 LINE",
"408 248 LINE"
);
},
{
closed = 1;
nodes = (
"272 304 LINE",
"272 312 LINE",
"280 312 LINE",
"280 304 LINE",
"272 304 LINE",
"272 280 LINE",
"264 280 LINE",
"264 296 LINE",
"248 296 LINE",
"248 304 LINE"
);
},
{
closed = 1;
nodes = (
"312 184 LINE",
"312 200 LINE",
"296 200 LINE",
"296 264 LINE",
"280 264 LINE",
"280 272 LINE",
"304 272 LINE",
"304 280 LINE",
"312 280 LINE",
"312 216 LINE",
"328 216 LINE",
"328 200 LINE",
"408 200 LINE",
"408 184 LINE"
);
},
{
closed = 1;
nodes = (
"400 232 LINE",
"408 232 LINE",
"408 216 LINE",
"400 216 LINE"
);
},
{
closed = 1;
nodes = (
"712 208 LINE",
"712 200 LINE",
"696 200 LINE",
"696 208 LINE"
);
},
{
closed = 1;
nodes = (
"600 88 LINE",
"600 72 LINE",
"680 72 LINE",
"680 88 LINE"
);
}
);
width = 856;
}
);
leftKerningGroup = I;
rightKerningGroup = I;
unicode = 004D;
userData = {
com.typemytype.robofont.guides = (
{
angle = 0;
isGlobal = 0;
magnetic = 5;
x = 0;
y = 168;
},
{
angle = 0;
isGlobal = 0;
magnetic = 5;
x = 0;
y = 9;
},
{
angle = 0;
isGlobal = 0;
magnetic = 5;
x = 0;
y = 691;
},
{
angle = 90;
isGlobal = 0;
magnetic = 5;
x = 126;
y = 0;
},
{
angle = 90;
isGlobal = 0;
magnetic = 5;
x = 636;
y = 0;
}
);
};
},
{
color = 1;
glyphname = N;
layers = (
{
anchors = (
{
name = bottom;
position = "{370, 0}";
},
{
name = top;
position = "{370, 700}";
}
);
layerId = "EC64484B-0978-4CB1-9EE9-C40A2D8C4059";
paths = (
{
closed = 1;
nodes = (
"400 700 LINE",
"400 400 LINE",
"350 400 LINE",
"350 450 LINE",
"300 500 LINE",
"300 550 LINE",
"250 550 LINE",
"250 600 LINE",
"150 700 LINE",
"0 700 LINE",
"0 0 LINE",
"200 0 LINE",
"200 250 LINE",
"300 150 LINE",
"300 100 LINE",
"400 0 LINE",
"600 0 LINE",
"600 700 LINE"
);
},
{
closed = 1;
nodes = (
"144 48 LINE",
"48 48 LINE",
"48 624 LINE",
"72 624 LINE",
"72 648 LINE",
"120 648 LINE",
"120 624 LINE",
"144 624 LINE",
"144 120 LINE",
"168 120 LINE",
"168 72 LINE",
"144 72 LINE"
);
},
{
closed = 1;
nodes = (
"456 408 LINE",
"456 432 LINE",
"432 432 LINE",
"432 624 LINE",
"456 624 LINE",
"456 648 LINE",
"504 648 LINE",
"504 624 LINE",
"528 624 LINE",
"528 456 LINE",
"552 456 LINE",
"552 408 LINE"
);
},
{
closed = 1;
nodes = (
"120 624 LINE",
"72 624 LINE",
"72 72 LINE",
"144 72 LINE",
"144 120 LINE",
"120 120 LINE"
);
},
{
closed = 1;
nodes = (
"504 456 LINE",
"504 624 LINE",
"456 624 LINE",
"456 432 LINE",
"528 432 LINE",
"528 456 LINE"
);
},
{
closed = 1;
nodes = (
"528 48 LINE",
"432 48 LINE",
"432 72 LINE",
"408 72 LINE",
"408 120 LINE",
"360 120 LINE",
"360 144 LINE",
"336 144 LINE",
"336 216 LINE",
"312 216 LINE",
"312 264 LINE",
"264 264 LINE",
"264 312 LINE",
"216 312 LINE",
"216 360 LINE",
"168 360 LINE",
"168 552 LINE",
"216 552 LINE",
"216 408 LINE",
"264 408 LINE",
"264 360 LINE",
"312 360 LINE",
"312 312 LINE",
"360 312 LINE",
"360 264 LINE",
"408 264 LINE",
"408 240 LINE",
"432 240 LINE",
"432 168 LINE",
"456 168 LINE",
"456 144 LINE",
"528 144 LINE",
"528 120 LINE",
"552 120 LINE",
"552 72 LINE",
"528 72 LINE"
);
},
{
closed = 1;
nodes = (
"504 168 LINE",
"504 216 LINE",
"456 216 LINE",
"456 312 LINE",
"408 312 LINE",
"408 360 LINE",
"504 360 LINE",
"504 264 LINE",
"552 264 LINE",
"552 168 LINE"
);
},
{
closed = 1;
nodes = (
"408 168 LINE",
"408 240 LINE",
"336 240 LINE",
"336 216 LINE",
"360 216 LINE",
"360 144 LINE",
"432 144 LINE",
"432 168 LINE"
);
},
{
closed = 1;
nodes = (
"456 144 LINE",
"432 144 LINE",
"432 72 LINE",
"528 72 LINE",
"528 120 LINE",
"456 120 LINE"
);
}
);
width = 740;
}
);
leftKerningGroup = I;
rightKerningGroup = I;
unicode = 004E;
userData = {
com.typemytype.robofont.guides = (
{
angle = 0;
isGlobal = 0;
magnetic = 5;
x = 0;
y = 9;
},
{
angle = 0;
isGlobal = 0;
magnetic = 5;
x = 0;
y = 691;
},
{
angle = 90;
isGlobal = 0;
magnetic = 5;
x = 540;
y = 0;
},
{
angle = 90;
isGlobal = 0;
magnetic = 5;
x = 125;
y = 0;
}
);
};
},
{
color = 1;
glyphname = Eng;
layers = (
{
hints = (
{
horizontal = 1;
place = "{-2147483648, 0}";
type = Tag;
name = hr00;
}
);
layerId = "EC64484B-0978-4CB1-9EE9-C40A2D8C4059";
paths = (
{
closed = 1;
nodes = (
"400 700 LINE",
"400 400 LINE",
"350 400 LINE",
"350 450 LINE",
"300 500 LINE",
"300 550 LINE",
"250 550 LINE",
"250 600 LINE",
"150 700 LINE",
"0 700 LINE",
"0 0 LINE",
"200 0 LINE",
"200 250 LINE",
"250 200 LINE",
"250 150 LINE",
"300 150 LINE",
"300 100 LINE",
"400 0 LINE",
"250 0 LINE",
"250 -200 LINE",
"450 -200 LINE",
"500 -150 LINE",
"550 -150 LINE",
"550 -100 LINE",
"600 -50 LINE",
"600 700 LINE"
);
},
{
closed = 1;
nodes = (
"156 148 LINE",
"144 148 LINE",
"144 136 LINE",
"108 136 LINE",
"108 124 LINE",
"156 124 LINE",
"156 100 LINE",
"84 100 LINE",
"84 136 LINE",
"60 136 LINE",
"60 76 LINE",
"156 76 LINE",
"156 52 LINE",
"36 52 LINE",
"36 652 LINE",
"60 652 LINE",
"60 616 LINE",
"84 616 LINE",
"84 652 LINE",
"108 652 LINE",
"108 616 LINE",
"132 616 LINE",
"132 628 LINE",
"156 628 LINE"
);
},
{
closed = 1;
nodes = (
"540 196 LINE",
"540 220 LINE",
"528 220 LINE",
"528 172 LINE",
"540 172 LINE",
"540 148 LINE",
"564 148 LINE",
"564 100 LINE",
"540 100 LINE",
"540 124 LINE",
"528 124 LINE",
"528 76 LINE",
"540 76 LINE",
"540 52 LINE",
"564 52 LINE",
"564 28 LINE",
"516 28 LINE",
"516 40 LINE",
"468 40 LINE",
"468 28 LINE",
"492 28 LINE",
"492 4 LINE",
"564 4 LINE",
"564 -20 LINE",
"468 -20 LINE",
"468 4 LINE",
"444 4 LINE",
"444 28 LINE",
"420 28 LINE",
"420 52 LINE",
"396 52 LINE",
"396 76 LINE",
"372 76 LINE",
"372 100 LINE",
"348 100 LINE",
"348 196 LINE",
"300 196 LINE",
"300 220 LINE",
"276 220 LINE",
"276 244 LINE",
"252 244 LINE",
"252 268 LINE",
"228 268 LINE",
"228 292 LINE",
"204 292 LINE",
"204 316 LINE",
"180 316 LINE",
"180 580 LINE",
"204 580 LINE",
"204 340 LINE",
"228 340 LINE",
"228 316 LINE",
"252 316 LINE",
"252 292 LINE",
"276 292 LINE",
"276 268 LINE",
"300 268 LINE",
"300 244 LINE",
"324 244 LINE",
"324 220 LINE",
"372 220 LINE",
"372 124 LINE",
"396 124 LINE",
"396 100 LINE",
"420 100 LINE",
"420 76 LINE",
"432 76 LINE",
"432 124 LINE",
"420 124 LINE",
"420 148 LINE",
"396 148 LINE",
"396 244 LINE",
"348 244 LINE",
"348 268 LINE",
"324 268 LINE",
"324 292 LINE",
"300 292 LINE",
"300 316 LINE",
"276 316 LINE",
"276 340 LINE",
"252 340 LINE",
"252 364 LINE",
"228 364 LINE",
"228 508 LINE",
"252 508 LINE",
"252 388 LINE",
"276 388 LINE",
"276 364 LINE",
"300 364 LINE",
"300 340 LINE",
"324 340 LINE",
"324 316 LINE",
"348 316 LINE",
"348 292 LINE",
"372 292 LINE",
"372 268 LINE",
"420 268 LINE",
"420 172 LINE",
"432 172 LINE",
"432 232 LINE",
"444 232 LINE",
"444 292 LINE",
"396 292 LINE",
"396 316 LINE",
"372 316 LINE",
"372 340 LINE",
"348 340 LINE",
"348 364 LINE",
"396 364 LINE",
"396 340 LINE",
"420 340 LINE",
"420 316 LINE",
"468 316 LINE",
"468 232 LINE",
"516 232 LINE",
"516 244 LINE",
"492 244 LINE",
"492 340 LINE",
"444 340 LINE",
"444 652 LINE",
"468 652 LINE",
"468 364 LINE",
"516 364 LINE",
"516 268 LINE",
"540 268 LINE",
"540 244 LINE",
"564 244 LINE",
"564 196 LINE"
);
},
{
closed = 1;
nodes = (
"564 292 LINE",
"540 292 LINE",
"540 388 LINE",
"492 388 LINE",
"492 652 LINE",
"516 652 LINE",
"516 412 LINE",
"564 412 LINE"
);
},
{
closed = 1;
nodes = (
"564 436 LINE",
"540 436 LINE",
"540 652 LINE",
"564 652 LINE"
);
},
{
closed = 1;
nodes = (
"60 616 LINE",
"48 616 LINE",
"48 136 LINE",
"60 136 LINE"
);
},
{
closed = 1;
nodes = (
"108 616 LINE",
"84 616 LINE",
"84 136 LINE",
"108 136 LINE"
);
},
{
closed = 1;
nodes = (
"144 616 LINE",
"132 616 LINE",
"132 148 LINE",
"144 148 LINE"
);
},
{
closed = 1;
nodes = (
"300 412 LINE",
"276 412 LINE",
"276 436 LINE",
"300 436 LINE"
);
},
{
closed = 1;
nodes = (
"492 220 LINE",
"468 220 LINE",
"468 232 LINE",
"444 232 LINE",
"444 196 LINE",
"468 196 LINE",
"468 172 LINE",
"492 172 LINE",
"492 148 LINE",
"516 148 LINE",
"516 124 LINE",
"528 124 LINE",
"528 172 LINE",
"516 172 LINE",
"516 196 LINE",
"492 196 LINE"
);
},
{
closed = 1;
nodes = (
"528 220 LINE",
"528 232 LINE",
"516 232 LINE",
"516 220 LINE"
);
},
{
closed = 1;
nodes = (
"492 124 LINE",
"468 124 LINE",
"468 148 LINE",
"444 148 LINE",
"444 172 LINE",
"432 172 LINE",
"432 124 LINE",
"444 124 LINE",
"444 100 LINE",
"468 100 LINE",
"468 76 LINE",
"492 76 LINE",
"492 52 LINE",
"516 52 LINE",
"516 40 LINE",
"528 40 LINE",
"528 76 LINE",
"516 76 LINE",
"516 100 LINE",
"492 100 LINE"
);
},
{
closed = 1;
nodes = (
"432 76 LINE",
"432 40 LINE",
"468 40 LINE",
"468 52 LINE",
"444 52 LINE",
"444 76 LINE"
);
},
{
closed = 1;
nodes = (
"432 -68 LINE",
"432 -92 LINE",
"516 -92 LINE",
"516 -116 LINE",
"432 -116 LINE",
"432 -140 LINE",
"444 -140 LINE",
"444 -164 LINE",
"300 -164 LINE",
"300 -44 LINE",
"324 -44 LINE",
"324 -140 LINE",
"336 -140 LINE",
"336 -56 LINE",
"348 -56 LINE",
"348 -44 LINE",
"372 -44 LINE",
"372 -56 LINE",
"396 -56 LINE",
"396 -44 LINE",
"540 -44 LINE",
"540 -68 LINE"
);
},
{
closed = 1;
nodes = (
"372 -56 LINE",
"348 -56 LINE",
"348 -116 LINE",
"432 -116 LINE",
"432 -92 LINE",
"372 -92 LINE"
);
},
{
closed = 1;
nodes = (
"432 -68 LINE",
"432 -56 LINE",
"396 -56 LINE",
"396 -68 LINE"
);
},
{
closed = 1;
nodes = (
"336 -140 LINE",
"336 -152 LINE",
"432 -152 LINE",
"432 -140 LINE"
);
}
);
width = 740;
}
);
leftKerningGroup = I;
rightKerningGroup = I;
unicode = 014A;
},
{
color = 1;
glyphname = O;
layers = (
{
anchors = (
{
name = bottom;
position = "{371, 0}";
},
{
name = center;
position = "{371, 350}";
},
{
name = ogonek;
position = "{668, 10}";
},
{
name = top;
position = "{371, 700}";
},
{
name = topleft;
position = "{20, 700}";
},
{
name = topright;
position = "{722, 700}";
}
);
layerId = "EC64484B-0978-4CB1-9EE9-C40A2D8C4059";
paths = (
{
closed = 1;
nodes = (
"650 550 LINE",
"550 650 LINE",
"450 650 LINE",
"400 700 LINE",
"300 700 LINE",
"250 650 LINE",
"150 650 LINE",
"50 550 LINE",
"50 500 LINE",
"0 450 LINE",
"0 200 LINE",
"50 150 LINE",
"50 100 LINE",
"150 0 LINE",
"550 0 LINE",
"650 100 LINE",
"650 200 LINE",
"700 250 LINE",
"700 400 LINE",
"650 450 LINE"
);
},
{
closed = 1;
nodes = (
"528 228 LINE",
"528 204 LINE",
"612 204 LINE",
"612 180 LINE",
"528 180 LINE",
"528 156 LINE",
"612 156 LINE",
"612 132 LINE",
"528 132 LINE",
"528 108 LINE",
"588 108 LINE",
"588 84 LINE",
"528 84 LINE",
"528 60 LINE",
"540 60 LINE",
"540 36 LINE",
"156 36 LINE",
"156 60 LINE",
"132 60 LINE",
"132 108 LINE",
"108 108 LINE",
"108 132 LINE",
"84 132 LINE",
"84 204 LINE",
"60 204 LINE",
"60 228 LINE",
"36 228 LINE",
"36 444 LINE",
"60 444 LINE",
"60 432 LINE",
"84 432 LINE",
"84 540 LINE",
"108 540 LINE",
"108 432 LINE",
"132 432 LINE",
"132 588 LINE",
"156 588 LINE",
"156 348 LINE",
"180 348 LINE",
"180 324 LINE",
"204 324 LINE",
"204 228 LINE",
"228 228 LINE",
"228 204 LINE",
"252 204 LINE",
"252 180 LINE",
"276 180 LINE",
"276 156 LINE",
"300 156 LINE",
"300 132 LINE",
"252 132 LINE",
"252 156 LINE",
"228 156 LINE",
"228 204 LINE",
"204 204 LINE",
"204 228 LINE",
"180 228 LINE",
"180 300 LINE",
"156 300 LINE",
"156 324 LINE",
"144 324 LINE",
"144 276 LINE",
"156 276 LINE",
"156 204 LINE",
"180 204 LINE",
"180 180 LINE",
"204 180 LINE",
"204 132 LINE",
"228 132 LINE",
"228 108 LINE",
"432 108 LINE",
"432 132 LINE",
"420 132 LINE",
"420 156 LINE",
"432 156 LINE",
"432 240 LINE",
"444 240 LINE",
"444 492 LINE",
"420 492 LINE",
"420 516 LINE",
"396 516 LINE",
"396 540 LINE",
"324 540 LINE",
"324 660 LINE",
"348 660 LINE",
"348 564 LINE",
"420 564 LINE",
"420 540 LINE",
"444 540 LINE",
"444 516 LINE",
"468 516 LINE",
"468 240 LINE",
"492 240 LINE",
"492 540 LINE",
"468 540 LINE",
"468 564 LINE",
"444 564 LINE",
"444 588 LINE",
"372 588 LINE",
"372 660 LINE",
"396 660 LINE",
"396 612 LINE",
"468 612 LINE",
"468 588 LINE",
"492 588 LINE",
"492 564 LINE",
"516 564 LINE",
"516 252 LINE",
"636 252 LINE",
"636 228 LINE"
);
},
{
closed = 1;
nodes = (
"180 612 LINE",
"204 612 LINE",
"204 372 LINE",
"180 372 LINE"
);
},
{
closed = 1;
nodes = (
"228 612 LINE",
"252 612 LINE",
"252 444 LINE",
"228 444 LINE"
);
},
{
closed = 1;
nodes = (
"276 612 LINE",
"300 612 LINE",
"300 492 LINE",
"276 492 LINE"
);
},
{
closed = 1;
nodes = (
"540 276 LINE",
"540 588 LINE",
"516 588 LINE",
"516 612 LINE",
"540 612 LINE",
"540 588 LINE",
"564 588 LINE",
"564 300 LINE",
"660 300 LINE",
"660 276 LINE"
);
},
{
closed = 1;
nodes = (
"588 324 LINE",
"588 540 LINE",
"612 540 LINE",
"612 348 LINE",
"660 348 LINE",
"660 324 LINE"
);
},
{
closed = 1;
nodes = (
"400 200 LINE",
"350 150 LINE",
"250 250 LINE",
"250 400 LINE",
"350 500 LINE",
"400 450 LINE"
);
},
{
closed = 1;
nodes = (
"84 240 LINE",
"84 252 LINE",
"60 252 LINE",
"60 432 LINE",
"48 432 LINE",
"48 240 LINE"
);
},
{
closed = 1;
nodes = (
"84 276 LINE",
"108 276 LINE",
"108 252 LINE",
"132 252 LINE",
"132 240 LINE",
"144 240 LINE",
"144 276 LINE",
"132 276 LINE",
"132 300 LINE",
"108 300 LINE",
"108 432 LINE",
"84 432 LINE"
);
},
{
closed = 1;
nodes = (
"132 324 LINE",
"144 324 LINE",
"144 432 LINE",
"132 432 LINE"
);
},
{
closed = 1;
nodes = (
"636 396 LINE",
"660 396 LINE",
"660 372 LINE",
"636 372 LINE"
);
},
{
closed = 1;
nodes = (
"204 84 LINE",
"204 108 LINE",
"180 108 LINE",
"180 156 LINE",
"156 156 LINE",
"156 180 LINE",
"132 180 LINE",
"132 240 LINE",
"84 240 LINE",
"84 228 LINE",
"108 228 LINE",
"108 156 LINE",
"132 156 LINE",
"132 132 LINE",
"156 132 LINE",
"156 84 LINE",
"180 84 LINE",
"180 60 LINE",
"432 60 LINE",
"432 84 LINE"
);
},
{
closed = 1;
nodes = (
"468 240 LINE",
"444 240 LINE",
"444 180 LINE",
"528 180 LINE",
"528 204 LINE",
"468 204 LINE"
);
},
{
closed = 1;
nodes = (
"528 228 LINE",
"528 240 LINE",
"492 240 LINE",
"492 228 LINE"
);
},
{
closed = 1;
nodes = (
"432 156 LINE",
"432 132 LINE",
"528 132 LINE",
"528 156 LINE"
);
},
{
closed = 1;
nodes = (
"432 108 LINE",
"432 84 LINE",
"528 84 LINE",
"528 108 LINE"
);
},
{
closed = 1;
nodes = (
"432 60 LINE",
"432 48 LINE",
"528 48 LINE",
"528 60 LINE"
);
}
);
width = 742;
}
);
leftKerningGroup = O;
rightKerningGroup = O;
unicode = 004F;
userData = {
com.typemytype.robofont.guides = (
{
angle = 0;
isGlobal = 0;
magnetic = 5;
x = 0;
y = "-10";
},
{
angle = 0;
isGlobal = 0;
magnetic = 5;
x = 0;
y = 710;
},
{
angle = 0;
isGlobal = 0;
magnetic = 5;
x = 0;
y = 335;
},
{
angle = 0;
isGlobal = 0;
magnetic = 5;
x = 0;
y = 434;
},
{
angle = 0;
isGlobal = 0;
magnetic = 5;
x = 0;
y = 266;
},
{
angle = 90;
isGlobal = 0;
magnetic = 5;
x = 496;
y = 0;
}
);
};
},
{
color = 1;
glyphname = Oslash;
layers = (
{
anchors = (
{
name = bottom;
position = "{390, 0}";
},
{
name = top;
position = "{390, 700}";
}
);
layerId = "EC64484B-0978-4CB1-9EE9-C40A2D8C4059";
paths = (
{
closed = 1;
nodes = (
"650 600 LINE",
"600 600 LINE",
"550 650 LINE",
"450 650 LINE",
"400 700 LINE",
"300 700 LINE",
"250 650 LINE",
"150 650 LINE",
"100 600 LINE",
"100 550 LINE",
"50 500 LINE",
"50 300 LINE",
"0 300 LINE",
"0 100 LINE",
"50 150 LINE",
"100 100 LINE",
"100 50 LINE",
"150 0 LINE",
"550 0 LINE",
"700 150 LINE",
"700 400 LINE",
"750 450 LINE",
"750 550 LINE",
"650 550 LINE"
);
},
{
closed = 1;
nodes = (
"324 660 LINE",
"348 660 LINE",
"348 564 LINE",
"420 564 LINE",
"420 540 LINE",
"468 540 LINE",
"468 516 LINE",
"492 516 LINE",
"492 496 LINE",
"496 496 LINE",
"496 468 LINE",
"540 468 LINE",
"540 444 LINE",
"564 444 LINE",
"564 336 LINE",
"560 336 LINE",
"560 432 LINE",
"528 432 LINE",
"528 464 LINE",
"496 464 LINE",
"496 468 LINE",
"492 468 LINE",
"492 496 LINE",
"464 496 LINE",
"464 492 LINE",
"468 492 LINE",
"468 444 LINE",
"516 444 LINE",
"516 420 LINE",
"540 420 LINE",
"540 336 LINE",
"528 336 LINE",
"528 400 LINE",
"496 400 LINE",
"496 432 LINE",
"464 432 LINE",
"464 492 LINE",
"444 492 LINE",
"444 496 LINE",
"432 496 LINE",
"432 516 LINE",
"396 516 LINE",
"396 528 LINE",
"368 528 LINE",
"368 540 LINE",
"324 540 LINE"
);
},
{
closed = 1;
nodes = (
"624 324 LINE",
"624 336 LINE",
"588 336 LINE",
"588 464 LINE",
"560 464 LINE",
"560 492 LINE",
"516 492 LINE",
"516 528 LINE",
"496 528 LINE",
"496 540 LINE",
"492 540 LINE",
"492 560 LINE",
"432 560 LINE",
"432 588 LINE",
"372 588 LINE",
"372 592 LINE",
"368 592 LINE",
"368 656 LINE",
"372 656 LINE",
"372 660 LINE",
"396 660 LINE",
"396 656 LINE",
"400 656 LINE",
"400 612 LINE",
"468 612 LINE",
"468 592 LINE",
"496 592 LINE",
"496 588 LINE",
"516 588 LINE",
"516 564 LINE",
"540 564 LINE",
"540 516 LINE",
"588 516 LINE",
"588 496 LINE",
"592 496 LINE",
"592 492 LINE",
"612 492 LINE",
"612 348 LINE",
"660 348 LINE",
"660 324 LINE"
);
},
{
closed = 1;
nodes = (
"396 612 LINE",
"396 656 LINE",
"372 656 LINE",
"372 592 LINE",
"400 592 LINE",
"400 612 LINE"
);
},
{
closed = 1;
nodes = (
"272 624 LINE",
"304 624 LINE",
"304 528 LINE",
"300 528 LINE",
"300 516 LINE",
"276 516 LINE",
"276 528 LINE",
"272 528 LINE"
);
},
{
closed = 1;
nodes = (
"180 592 LINE",
"180 612 LINE",
"204 612 LINE",
"204 592 LINE",
"208 592 LINE",
"208 528 LINE",
"204 528 LINE",
"204 592 LINE",
"180 592 LINE",
"180 528 LINE",
"176 528 LINE",
"176 592 LINE"
);
},
{
closed = 1;
nodes = (
"228 612 LINE",
"252 612 LINE",
"252 396 LINE",
"240 396 LINE",
"240 528 LINE",
"228 528 LINE"
);
},
{
closed = 1;
nodes = (
"300 612 LINE",
"276 612 LINE",
"276 528 LINE",
"300 528 LINE"
);
},
{
closed = 1;
nodes = (
"468 588 LINE",
"468 592 LINE",
"432 592 LINE",
"432 588 LINE",
"444 588 LINE",
"444 564 LINE",
"492 564 LINE",
"492 560 LINE",
"496 560 LINE",
"496 588 LINE"
);
},
{
closed = 1;
nodes = (
"112 496 LINE",
"132 496 LINE",
"132 588 LINE",
"156 588 LINE",
"156 528 LINE",
"144 528 LINE",
"144 496 LINE",
"132 496 LINE",
"132 304 LINE",
"144 304 LINE",
"144 300 LINE",
"132 300 LINE",
"132 304 LINE",
"112 304 LINE"
);
},
{
closed = 1;
nodes = (
"564 564 LINE",
"612 564 LINE",
"612 540 LINE",
"592 540 LINE",
"592 528 LINE",
"560 528 LINE",
"560 560 LINE",
"564 560 LINE"
);
},
{
closed = 1;
nodes = (
"368 540 LINE",
"396 540 LINE",
"396 528 LINE",
"400 528 LINE",
"400 560 LINE",
"368 560 LINE"
);
},
{
closed = 1;
nodes = (
"496 540 LINE",
"516 540 LINE",
"516 528 LINE",
"528 528 LINE",
"528 560 LINE",
"496 560 LINE"
);
},
{
closed = 1;
nodes = (
"592 560 LINE",
"564 560 LINE",
"564 540 LINE",
"592 540 LINE"
);
},
{
closed = 1;
nodes = (
"432 516 LINE",
"444 516 LINE",
"444 496 LINE",
"464 496 LINE",
"464 528 LINE",
"432 528 LINE"
);
},
{
closed = 1;
nodes = (
"660 372 LINE",
"656 372 LINE",
"656 368 LINE",
"624 368 LINE",
"624 496 LINE",
"636 496 LINE",
"636 516 LINE",
"660 516 LINE"
);
},
{
closed = 1;
nodes = (
"688 468 LINE",
"684 468 LINE",
"684 516 LINE",
"708 516 LINE",
"708 496 LINE",
"720 496 LINE",
"720 464 LINE",
"688 464 LINE"
);
},
{
closed = 1;
nodes = (
"300 400 LINE",
"300 450 LINE",
"350 500 LINE",
"450 450 LINE",
"400 450 LINE",
"350 400 LINE"
);
},
{
closed = 1;
nodes = (
"588 496 LINE",
"560 496 LINE",
"560 492 LINE",
"564 492 LINE",
"564 468 LINE",
"588 468 LINE",
"588 464 LINE",
"592 464 LINE",
"592 492 LINE",
"588 492 LINE"
);
},
{
closed = 1;
nodes = (
"656 496 LINE",
"636 496 LINE",
"636 372 LINE",
"656 372 LINE"
);
},
{
closed = 1;
nodes = (
"688 496 LINE",
"688 468 LINE",
"708 468 LINE",
"708 496 LINE"
);
},
{
closed = 1;
nodes = (
"84 468 LINE",
"108 468 LINE",
"108 276 LINE",
"144 276 LINE",
"144 272 LINE",
"112 272 LINE",
"112 252 LINE",
"132 252 LINE",
"132 240 LINE",
"144 240 LINE",
"144 228 LINE",
"132 228 LINE",
"132 240 LINE",
"112 240 LINE",
"112 252 LINE",
"84 252 LINE"
);
},
{
closed = 1;
nodes = (
"492 228 LINE",
"492 372 LINE",
"468 372 LINE",
"468 396 LINE",
"420 396 LINE",
"420 420 LINE",
"492 420 LINE",
"492 396 LINE",
"516 396 LINE",
"516 252 LINE",
"528 252 LINE",
"528 240 LINE",
"624 240 LINE",
"624 252 LINE",
"660 252 LINE",
"660 228 LINE"
);
},
{
closed = 1;
nodes = (
"300 324 LINE",
"300 304 LINE",
"304 304 LINE",
"304 272 LINE",
"300 272 LINE",
"300 252 LINE",
"276 252 LINE",
"276 272 LINE",
"272 272 LINE",
"272 300 LINE",
"252 300 LINE",
"252 304 LINE",
"240 304 LINE",
"240 324 LINE",
"252 324 LINE",
"252 304 LINE",
"272 304 LINE",
"272 336 LINE",
"240 336 LINE",
"240 372 LINE",
"252 372 LINE",
"252 348 LINE",
"276 348 LINE",
"276 324 LINE"
);
},
{
closed = 1;
nodes = (
"432 336 LINE",
"368 336 LINE",
"368 368 LINE",
"372 368 LINE",
"372 372 LINE",
"444 372 LINE",
"444 348 LINE",
"432 348 LINE"
);
},
{
closed = 1;
nodes = (
"396 324 LINE",
"396 300 LINE",
"324 300 LINE",
"324 336 LINE",
"304 336 LINE",
"304 368 LINE",
"336 368 LINE",
"336 348 LINE",
"348 348 LINE",
"348 324 LINE"
);
},
{
closed = 1;
nodes = (
"372 348 LINE",
"432 348 LINE",
"432 368 LINE",
"372 368 LINE"
);
},
{
closed = 1;
nodes = (
"336 348 LINE",
"324 348 LINE",
"324 336 LINE",
"336 336 LINE"
);
},
{
closed = 1;
nodes = (
"276 300 LINE",
"276 272 LINE",
"300 272 LINE",
"300 304 LINE",
"272 304 LINE",
"272 300 LINE"
);
},
{
closed = 1;
nodes = (
"656 272 LINE",
"624 272 LINE",
"624 276 LINE",
"656 276 LINE",
"656 300 LINE",
"624 300 LINE",
"624 304 LINE",
"656 304 LINE",
"656 300 LINE",
"660 300 LINE",
"660 276 LINE",
"656 276 LINE"
);
},
{
closed = 1;
nodes = (
"350 250 LINE",
"400 250 LINE",
"450 300 LINE",
"450 250 LINE",
"350 150 LINE",
"300 200 LINE"
);
},
{
closed = 1;
nodes = (
"252 176 LINE",
"252 180 LINE",
"240 180 LINE",
"240 276 LINE",
"252 276 LINE",
"252 180 LINE",
"276 180 LINE",
"276 156 LINE",
"300 156 LINE",
"300 132 LINE",
"252 132 LINE",
"252 144 LINE",
"240 144 LINE",
"240 176 LINE"
);
},
{
closed = 1;
nodes = (
"156 36 LINE",
"156 48 LINE",
"144 48 LINE",
"144 84 LINE",
"132 84 LINE",
"132 144 LINE",
"112 144 LINE",
"112 156 LINE",
"108 156 LINE",
"108 176 LINE",
"80 176 LINE",
"80 204 LINE",
"36 204 LINE",
"36 252 LINE",
"60 252 LINE",
"60 228 LINE",
"108 228 LINE",
"108 208 LINE",
"112 208 LINE",
"112 204 LINE",
"132 204 LINE",
"132 180 LINE",
"144 180 LINE",
"144 176 LINE",
"112 176 LINE",
"112 156 LINE",
"132 156 LINE",
"132 144 LINE",
"156 144 LINE",
"156 112 LINE",
"176 112 LINE",
"176 108 LINE",
"180 108 LINE",
"180 60 LINE",
"432 60 LINE",
"432 48 LINE",
"528 48 LINE",
"528 60 LINE",
"540 60 LINE",
"540 36 LINE"
);
},
{
closed = 1;
nodes = (
"108 208 LINE",
"80 208 LINE",
"80 204 LINE",
"84 204 LINE",
"84 180 LINE",
"108 180 LINE",
"108 176 LINE",
"112 176 LINE",
"112 204 LINE",
"108 204 LINE"
);
},
{
closed = 1;
nodes = (
"656 176 LINE",
"464 176 LINE",
"464 208 LINE",
"656 208 LINE",
"656 204 LINE",
"660 204 LINE",
"660 180 LINE",
"656 180 LINE"
);
},
{
closed = 1;
nodes = (
"468 204 LINE",
"468 180 LINE",
"656 180 LINE",
"656 204 LINE"
);
},
{
closed = 1;
nodes = (
"252 144 LINE",
"272 144 LINE",
"272 176 LINE",
"252 176 LINE"
);
},
{
closed = 1;
nodes = (
"528 132 LINE",
"528 144 LINE",
"432 144 LINE",
"432 132 LINE",
"420 132 LINE",
"420 156 LINE",
"636 156 LINE",
"636 132 LINE"
);
},
{
closed = 1;
nodes = (
"368 108 LINE",
"368 84 LINE",
"432 84 LINE",
"432 80 LINE",
"368 80 LINE",
"368 84 LINE",
"336 84 LINE",
"336 80 LINE",
"208 80 LINE",
"208 84 LINE",
"204 84 LINE",
"204 132 LINE",
"180 132 LINE",
"180 144 LINE",
"228 144 LINE",
"228 112 LINE",
"336 112 LINE",
"336 108 LINE",
"368 108 LINE",
"368 112 LINE",
"432 112 LINE",
"432 108 LINE"
);
},
{
closed = 1;
nodes = (
"156 108 LINE",
"156 112 LINE",
"144 112 LINE",
"144 84 LINE",
"156 84 LINE",
"156 48 LINE",
"176 48 LINE",
"176 108 LINE"
);
},
{
closed = 1;
nodes = (
"228 108 LINE",
"228 112 LINE",
"208 112 LINE",
"208 84 LINE",
"336 84 LINE",
"336 108 LINE"
);
},
{
closed = 1;
nodes = (
"560 84 LINE",
"560 80 LINE",
"528 80 LINE",
"528 84 LINE",
"560 84 LINE",
"560 108 LINE",
"528 108 LINE",
"528 112 LINE",
"560 112 LINE",
"560 108 LINE",
"588 108 LINE",
"588 84 LINE"
);
}
);
width = 780;
}
);
leftKerningGroup = O;
rightKerningGroup = O;
unicode = 00D8;
userData = {
com.typemytype.robofont.guides = (
{
angle = 0;
isGlobal = 0;
magnetic = 5;
x = 0;
y = 145;
},
{
angle = 90;
isGlobal = 0;
magnetic = 5;
x = 351;
y = 0;
},
{
angle = 90;
isGlobal = 0;
magnetic = 5;
x = 679;
y = 0;
},
{
angle = 90;
isGlobal = 0;
magnetic = 5;
x = 85;
y = 0;
},
{
angle = 90;
isGlobal = 0;
magnetic = 5;
x = 20;
y = 0;
}
);
};
},
{
color = 1;
glyphname = OE;
layers = (
{
hints = (
{
horizontal = 1;
place = "{-2147483648, 0}";
type = Tag;
name = hr00;
}
);
layerId = "EC64484B-0978-4CB1-9EE9-C40A2D8C4059";
paths = (
{
closed = 1;
nodes = (
"350 700 LINE",
"300 650 LINE",
"200 650 LINE",
"150 600 LINE",
"100 600 LINE",
"50 550 LINE",
"50 500 LINE",
"0 450 LINE",
"0 200 LINE",
"50 150 LINE",
"50 100 LINE",
"150 0 LINE",
"950 0 LINE",
"950 150 LINE",
"600 150 LINE",
"600 250 LINE",
"900 250 LINE",
"900 400 LINE",
"600 400 LINE",
"600 500 LINE",
"950 500 LINE",
"950 650 LINE",
"900 700 LINE"
);
},
{
closed = 1;
nodes = (
"372 660 LINE",
"396 660 LINE",
"396 612 LINE",
"516 612 LINE",
"516 204 LINE",
"564 204 LINE",
"564 180 LINE",
"492 180 LINE",
"492 588 LINE",
"372 588 LINE"
);
},
{
closed = 1;
nodes = (
"564 660 LINE",
"564 228 LINE",
"540 228 LINE",
"540 636 LINE",
"420 636 LINE",
"420 660 LINE"
);
},
{
closed = 1;
nodes = (
"588 540 LINE",
"588 660 LINE",
"612 660 LINE",
"612 564 LINE",
"900 564 LINE",
"900 540 LINE"
);
},
{
closed = 1;
nodes = (
"636 588 LINE",
"636 660 LINE",
"660 660 LINE",
"660 612 LINE",
"900 612 LINE",
"900 588 LINE"
);
},
{
closed = 1;
nodes = (
"876 660 LINE",
"876 636 LINE",
"684 636 LINE",
"684 660 LINE"
);
},
{
closed = 1;
nodes = (
"228 612 LINE",
"252 612 LINE",
"252 444 LINE",
"228 444 LINE"
);
},
{
closed = 1;
nodes = (
"276 612 LINE",
"300 612 LINE",
"300 492 LINE",
"276 492 LINE"
);
},
{
closed = 1;
nodes = (
"324 612 LINE",
"348 612 LINE",
"348 564 LINE",
"468 564 LINE",
"468 156 LINE",
"564 156 LINE",
"564 132 LINE",
"444 132 LINE",
"444 540 LINE",
"324 540 LINE"
);
},
{
closed = 1;
nodes = (
"132 564 LINE",
"156 564 LINE",
"156 348 LINE",
"180 348 LINE",
"180 324 LINE",
"204 324 LINE",
"204 228 LINE",
"228 228 LINE",
"228 204 LINE",
"252 204 LINE",
"252 180 LINE",
"276 180 LINE",
"276 156 LINE",
"300 156 LINE",
"300 132 LINE",
"252 132 LINE",
"252 156 LINE",
"228 156 LINE",
"228 204 LINE",
"204 204 LINE",
"204 228 LINE",
"180 228 LINE",
"180 300 LINE",
"156 300 LINE",
"156 324 LINE",
"132 324 LINE"
);
},
{
closed = 1;
nodes = (
"180 564 LINE",
"204 564 LINE",
"204 372 LINE",
"180 372 LINE"
);
},
{
closed = 1;
nodes = (
"900 108 LINE",
"900 84 LINE",
"204 84 LINE",
"204 108 LINE",
"180 108 LINE",
"180 156 LINE",
"156 156 LINE",
"156 180 LINE",
"132 180 LINE",
"132 252 LINE",
"108 252 LINE",
"108 276 LINE",
"84 276 LINE",
"84 540 LINE",
"108 540 LINE",
"108 300 LINE",
"132 300 LINE",
"132 276 LINE",
"156 276 LINE",
"156 204 LINE",
"180 204 LINE",
"180 180 LINE",
"204 180 LINE",
"204 132 LINE",
"228 132 LINE",
"228 108 LINE"
);
},
{
closed = 1;
nodes = (
"400 150 LINE",
"350 150 LINE",
"250 250 LINE",
"250 400 LINE",
"350 500 LINE",
"400 500 LINE"
);
},
{
closed = 1;
nodes = (
"156 36 LINE",
"156 60 LINE",
"132 60 LINE",
"132 108 LINE",
"108 108 LINE",
"108 132 LINE",
"84 132 LINE",
"84 204 LINE",
"60 204 LINE",
"60 228 LINE",
"36 228 LINE",
"36 444 LINE",
"60 444 LINE",
"60 252 LINE",
"84 252 LINE",
"84 228 LINE",
"108 228 LINE",
"108 156 LINE",
"132 156 LINE",
"132 132 LINE",
"156 132 LINE",
"156 84 LINE",
"180 84 LINE",
"180 60 LINE",
"900 60 LINE",
"900 36 LINE"
);
},
{
closed = 1;
nodes = (
"852 324 LINE",
"852 300 LINE",
"588 300 LINE",
"588 348 LINE",
"612 348 LINE",
"612 324 LINE"
);
}
);
width = 1002;
}
);
leftKerningGroup = O;
rightKerningGroup = E;
unicode = 0152;
userData = {
com.typemytype.robofont.guides = (
{
angle = 90;
isGlobal = 0;
magnetic = 5;
x = 842;
y = 0;
},
{
angle = 90;
isGlobal = 0;
magnetic = 5;
x = 66;
y = 0;
},
{
angle = 90;
isGlobal = 0;
magnetic = 5;
x = 439;
y = 0;
},
{
angle = 90;
isGlobal = 0;
magnetic = 5;
x = 502;
y = 0;
}
);
};
},
{
color = 1;
glyphname = P;
layers = (
{
hints = (
{
horizontal = 1;
place = "{-2147483648, 0}";
type = Tag;
name = hr00;
}
);
layerId = "EC64484B-0978-4CB1-9EE9-C40A2D8C4059";
paths = (
{
closed = 1;
nodes = (
"450 650 LINE",
"350 650 LINE",
"300 700 LINE",
"0 700 LINE",
"0 0 LINE",
"250 0 LINE",
"250 200 LINE",
"450 200 LINE",
"550 300 LINE",
"600 300 LINE",
"600 550 LINE",
"550 600 LINE",
"500 600 LINE"
);
},
{
closed = 1;
nodes = (
"216 168 LINE",
"168 168 LINE",
"168 288 LINE",
"160 288 LINE",
"160 352 LINE",
"168 352 LINE",
"168 544 LINE",
"160 544 LINE",
"160 608 LINE",
"168 608 LINE",
"168 648 LINE",
"176 648 LINE",
"176 608 LINE",
"168 608 LINE",
"168 544 LINE",
"176 544 LINE",
"176 352 LINE",
"168 352 LINE",
"168 288 LINE",
"176 288 LINE",
"176 176 LINE",
"208 176 LINE",
"208 288 LINE",
"216 288 LINE",
"216 352 LINE",
"208 352 LINE",
"208 544 LINE",
"216 544 LINE",
"216 608 LINE",
"208 608 LINE",
"208 648 LINE",
"216 648 LINE",
"216 608 LINE",
"240 608 LINE",
"240 560 LINE",
"264 560 LINE",
"264 552 LINE",
"336 552 LINE",
"336 544 LINE",
"216 544 LINE",
"216 352 LINE",
"240 352 LINE",
"240 288 LINE",
"216 288 LINE"
);
},
{
closed = 1;
nodes = (
"32 608 LINE",
"48 608 LINE",
"48 48 LINE",
"160 48 LINE",
"160 32 LINE",
"32 32 LINE"
);
},
{
closed = 1;
nodes = (
"80 80 LINE",
"80 608 LINE",
"96 608 LINE",
"96 96 LINE",
"160 96 LINE",
"160 80 LINE"
);
},
{
closed = 1;
nodes = (
"360 600 LINE",
"360 592 LINE",
"352 592 LINE",
"352 600 LINE",
"272 600 LINE",
"272 608 LINE",
"352 608 LINE",
"352 600 LINE"
);
},
{
closed = 1;
nodes = (
"400 528 LINE",
"400 552 LINE",
"408 552 LINE",
"408 528 LINE"
);
},
{
closed = 1;
nodes = (
"464 504 LINE",
"456 504 LINE",
"456 552 LINE",
"464 552 LINE"
);
},
{
closed = 1;
nodes = (
"496 528 LINE",
"496 552 LINE",
"504 552 LINE",
"504 528 LINE"
);
},
{
closed = 1;
nodes = (
"360 504 LINE",
"360 528 LINE",
"368 528 LINE",
"368 504 LINE"
);
},
{
closed = 1;
nodes = (
"250 500 LINE",
"300 500 LINE",
"350 450 LINE",
"300 400 LINE",
"250 400 LINE"
);
},
{
closed = 1;
nodes = (
"432 464 LINE",
"432 480 LINE",
"544 480 LINE",
"544 464 LINE"
);
},
{
closed = 1;
nodes = (
"504 400 LINE",
"504 408 LINE",
"408 408 LINE",
"408 432 LINE",
"416 432 LINE",
"416 416 LINE",
"544 416 LINE",
"544 432 LINE",
"552 432 LINE",
"552 400 LINE"
);
},
{
closed = 1;
nodes = (
"528 360 LINE",
"504 360 LINE",
"504 368 LINE",
"528 368 LINE"
);
},
{
closed = 1;
nodes = (
"272 288 LINE",
"272 352 LINE",
"304 352 LINE",
"304 304 LINE",
"480 304 LINE",
"480 288 LINE"
);
},
{
closed = 1;
nodes = (
"336 336 LINE",
"336 352 LINE",
"480 352 LINE",
"480 336 LINE"
);
}
);
width = 705;
}
);
leftKerningGroup = I;
unicode = 0050;
userData = {
com.typemytype.robofont.guides = (
{
angle = 0;
isGlobal = 0;
magnetic = 5;
x = 0;
y = 493;
},
{
angle = 0;
isGlobal = 0;
magnetic = 5;
x = 0;
y = 403;
},
{
angle = 0;
isGlobal = 0;
magnetic = 5;
x = 0;
y = 218;
},
{
angle = 0;
isGlobal = 0;
magnetic = 5;
x = 0;
y = 310;
},
{
angle = 0;
isGlobal = 0;
magnetic = 5;
x = 0;
y = 9;
},
{
angle = 0;
isGlobal = 0;
magnetic = 5;
x = 0;
y = 691;
},
{
angle = 90;
isGlobal = 0;
magnetic = 5;
x = 345;
y = 0;
},
{
angle = 90;
isGlobal = 0;
magnetic = 5;
x = 94;
y = 0;
},
{
angle = 90;
isGlobal = 0;
magnetic = 5;
x = 139;
y = 0;
}
);
};
},
{
color = 1;
glyphname = Thorn;
layers = (
{
hints = (
{
horizontal = 1;
place = "{-2147483648, 0}";
type = Tag;
name = hr00;
}
);
layerId = "EC64484B-0978-4CB1-9EE9-C40A2D8C4059";
paths = (
{
closed = 1;
nodes = (
"450 550 LINE",
"350 550 LINE",
"300 600 LINE",
"250 600 LINE",
"250 650 LINE",
"200 700 LINE",
"0 700 LINE",
"0 0 LINE",
"250 0 LINE",
"250 100 LINE",
"450 100 LINE",
"550 200 LINE",
"600 200 LINE",
"600 450 LINE",
"550 500 LINE",
"500 500 LINE"
);
},
{
closed = 1;
nodes = (
"160 72 LINE",
"160 32 LINE",
"32 32 LINE",
"32 608 LINE",
"72 608 LINE",
"72 648 LINE",
"120 648 LINE",
"120 120 LINE",
"216 120 LINE",
"216 72 LINE"
);
},
{
closed = 1;
nodes = (
"96 608 LINE",
"72 608 LINE",
"72 72 LINE",
"160 72 LINE",
"160 96 LINE",
"96 96 LINE"
);
},
{
closed = 1;
nodes = (
"544 352 LINE",
"416 352 LINE",
"416 360 LINE",
"408 360 LINE",
"408 408 LINE",
"360 408 LINE",
"360 416 LINE",
"352 416 LINE",
"352 456 LINE",
"264 456 LINE",
"264 480 LINE",
"216 480 LINE",
"216 224 LINE",
"416 224 LINE",
"416 216 LINE",
"456 216 LINE",
"456 168 LINE",
"416 168 LINE",
"416 160 LINE",
"160 160 LINE",
"160 224 LINE",
"168 224 LINE",
"168 480 LINE",
"160 480 LINE",
"160 544 LINE",
"168 544 LINE",
"168 600 LINE",
"216 600 LINE",
"216 544 LINE",
"288 544 LINE",
"288 504 LINE",
"408 504 LINE",
"408 480 LINE",
"416 480 LINE",
"416 456 LINE",
"456 456 LINE",
"456 416 LINE",
"544 416 LINE",
"544 408 LINE",
"552 408 LINE",
"552 360 LINE",
"544 360 LINE"
);
},
{
closed = 1;
nodes = (
"168 480 LINE",
"216 480 LINE",
"216 544 LINE",
"168 544 LINE"
);
},
{
closed = 1;
nodes = (
"264 480 LINE",
"288 480 LINE",
"288 504 LINE",
"264 504 LINE"
);
},
{
closed = 1;
nodes = (
"408 456 LINE",
"408 480 LINE",
"352 480 LINE",
"352 456 LINE",
"360 456 LINE",
"360 416 LINE",
"416 416 LINE",
"416 456 LINE"
);
},
{
closed = 1;
nodes = (
"456 416 LINE",
"416 416 LINE",
"416 360 LINE",
"544 360 LINE",
"544 408 LINE",
"456 408 LINE"
);
},
{
closed = 1;
nodes = (
"250 300 LINE",
"250 400 LINE",
"300 400 LINE",
"350 350 LINE",
"300 300 LINE"
);
},
{
closed = 1;
nodes = (
"360 264 LINE",
"360 312 LINE",
"552 312 LINE",
"552 264 LINE"
);
},
{
closed = 1;
nodes = (
"416 168 LINE",
"416 216 LINE",
"216 216 LINE",
"216 224 LINE",
"168 224 LINE",
"168 168 LINE"
);
}
);
width = 705;
}
);
leftKerningGroup = I;
unicode = 00DE;
userData = {
com.typemytype.robofont.guides = (
{
angle = 0;
isGlobal = 0;
magnetic = 5;
x = 0;
y = 119;
},
{
angle = 0;
isGlobal = 0;
magnetic = 5;
x = 0;
y = 601;
},
{
angle = 0;
isGlobal = 0;
magnetic = 5;
x = 0;
y = 570;
},
{
angle = 0;
isGlobal = 0;
magnetic = 5;
x = 0;
y = 350;
}
);
};
},
{
color = 1;
glyphname = Q;
layers = (
{
hints = (
{
horizontal = 1;
place = "{-2147483648, 0}";
type = Tag;
name = hr01;
}
);
layerId = "EC64484B-0978-4CB1-9EE9-C40A2D8C4059";
paths = (
{
closed = 1;
nodes = (
"650 550 LINE",
"550 650 LINE",
"450 650 LINE",
"400 700 LINE",
"300 700 LINE",
"250 650 LINE",
"150 650 LINE",
"50 550 LINE",
"50 500 LINE",
"0 450 LINE",
"0 200 LINE",
"50 150 LINE",
"50 100 LINE",
"150 0 LINE",
"450 0 LINE",
"450 -50 LINE",
"650 -50 LINE",
"700 0 LINE",
"650 0 LINE",
"600 50 LINE",
"650 100 LINE",
"650 150 LINE",
"700 250 LINE",
"700 400 LINE",
"650 450 LINE"
);
},
{
closed = 1;
nodes = (
"312 638 LINE",
"336 638 LINE",
"336 630 LINE",
"312 630 LINE",
"312 638 LINE",
"304 638 LINE",
"304 630 LINE",
"296 630 LINE",
"296 646 LINE",
"312 646 LINE"
);
},
{
closed = 1;
nodes = (
"400 606 LINE",
"368 606 LINE",
"368 638 LINE",
"400 638 LINE"
);
},
{
closed = 1;
nodes = (
"424 630 LINE",
"424 614 LINE",
"472 614 LINE",
"472 606 LINE",
"528 606 LINE",
"528 550 LINE",
"520 550 LINE",
"520 198 LINE",
"504 198 LINE",
"504 582 LINE",
"472 582 LINE",
"472 606 LINE",
"464 606 LINE",
"464 574 LINE",
"496 574 LINE",
"496 190 LINE",
"520 190 LINE",
"520 182 LINE",
"488 182 LINE",
"488 566 LINE",
"456 566 LINE",
"456 598 LINE",
"408 598 LINE",
"408 630 LINE"
);
},
{
closed = 1;
nodes = (
"168 598 LINE",
"168 582 LINE",
"176 582 LINE",
"176 606 LINE",
"184 606 LINE",
"184 614 LINE",
"200 614 LINE",
"200 606 LINE",
"208 606 LINE",
"208 374 LINE",
"216 374 LINE",
"216 358 LINE",
"208 358 LINE",
"208 350 LINE",
"176 350 LINE",
"176 358 LINE",
"168 358 LINE",
"168 566 LINE",
"152 566 LINE",
"152 598 LINE"
);
},
{
closed = 1;
nodes = (
"232 614 LINE",
"248 614 LINE",
"248 606 LINE",
"272 606 LINE",
"272 502 LINE",
"280 502 LINE",
"280 486 LINE",
"272 486 LINE",
"272 478 LINE",
"248 478 LINE",
"248 454 LINE",
"232 454 LINE"
);
},
{
closed = 1;
nodes = (
"184 606 LINE",
"184 598 LINE",
"200 598 LINE",
"200 606 LINE"
);
},
{
closed = 1;
nodes = (
"240 478 LINE",
"248 478 LINE",
"248 606 LINE",
"240 606 LINE"
);
},
{
closed = 1;
nodes = (
"176 358 LINE",
"208 358 LINE",
"208 374 LINE",
"184 374 LINE",
"184 582 LINE",
"176 582 LINE"
);
},
{
closed = 1;
nodes = (
"568 582 LINE",
"568 550 LINE",
"552 550 LINE",
"552 582 LINE"
);
},
{
closed = 1;
nodes = (
"592 94 LINE",
"568 94 LINE",
"568 70 LINE",
"552 70 LINE",
"552 118 LINE",
"392 118 LINE",
"392 134 LINE",
"432 134 LINE",
"432 150 LINE",
"424 150 LINE",
"424 166 LINE",
"432 166 LINE",
"432 470 LINE",
"424 470 LINE",
"424 486 LINE",
"408 486 LINE",
"408 502 LINE",
"392 502 LINE",
"392 518 LINE",
"376 518 LINE",
"376 534 LINE",
"360 534 LINE",
"360 542 LINE",
"312 542 LINE",
"312 518 LINE",
"296 518 LINE",
"296 550 LINE",
"304 550 LINE",
"304 542 LINE",
"312 542 LINE",
"312 550 LINE",
"360 550 LINE",
"360 542 LINE",
"392 542 LINE",
"392 550 LINE",
"376 550 LINE",
"376 566 LINE",
"360 566 LINE",
"360 574 LINE",
"432 574 LINE",
"432 542 LINE",
"464 542 LINE",
"464 158 LINE",
"520 158 LINE",
"520 150 LINE",
"592 150 LINE",
"592 118 LINE",
"600 118 LINE",
"600 102 LINE",
"592 102 LINE"
);
},
{
closed = 1;
nodes = (
"88 534 LINE",
"104 534 LINE",
"104 486 LINE",
"112 486 LINE",
"112 542 LINE",
"120 542 LINE",
"120 566 LINE",
"136 566 LINE",
"136 542 LINE",
"144 542 LINE",
"144 318 LINE",
"176 318 LINE",
"176 310 LINE",
"120 310 LINE",
"120 486 LINE",
"112 486 LINE",
"112 286 LINE",
"120 286 LINE",
"120 278 LINE",
"104 278 LINE",
"104 470 LINE",
"88 470 LINE"
);
},
{
closed = 1;
nodes = (
"408 550 LINE",
"424 550 LINE",
"424 566 LINE",
"408 566 LINE"
);
},
{
closed = 1;
nodes = (
"136 502 LINE",
"136 542 LINE",
"120 542 LINE",
"120 502 LINE"
);
},
{
closed = 1;
nodes = (
"392 542 LINE",
"392 534 LINE",
"400 534 LINE",
"400 542 LINE"
);
},
{
closed = 1;
nodes = (
"424 518 LINE",
"408 518 LINE",
"408 534 LINE",
"400 534 LINE",
"400 510 LINE",
"424 510 LINE"
);
},
{
closed = 1;
nodes = (
"440 518 LINE",
"456 518 LINE",
"456 534 LINE",
"440 534 LINE"
);
},
{
closed = 1;
nodes = (
"424 510 LINE",
"424 502 LINE",
"432 502 LINE",
"432 510 LINE"
);
},
{
closed = 1;
nodes = (
"272 502 LINE",
"264 502 LINE",
"264 486 LINE",
"272 486 LINE"
);
},
{
closed = 1;
nodes = (
"440 182 LINE",
"456 182 LINE",
"456 486 LINE",
"440 486 LINE",
"440 502 LINE",
"432 502 LINE",
"432 470 LINE",
"440 470 LINE"
);
},
{
closed = 1;
nodes = (
"250 400 LINE",
"350 500 LINE",
"400 450 LINE",
"400 200 LINE",
"350 150 LINE",
"250 250 LINE"
);
},
{
closed = 1;
nodes = (
"488 -10 LINE",
"488 38 LINE",
"168 38 LINE",
"168 54 LINE",
"152 54 LINE",
"152 62 LINE",
"144 62 LINE",
"144 70 LINE",
"136 70 LINE",
"136 86 LINE",
"120 86 LINE",
"120 94 LINE",
"112 94 LINE",
"112 102 LINE",
"104 102 LINE",
"104 118 LINE",
"88 118 LINE",
"88 182 LINE",
"72 182 LINE",
"72 198 LINE",
"56 198 LINE",
"56 214 LINE",
"40 214 LINE",
"40 438 LINE",
"48 438 LINE",
"48 446 LINE",
"80 446 LINE",
"80 254 LINE",
"112 254 LINE",
"112 222 LINE",
"144 222 LINE",
"144 126 LINE",
"176 126 LINE",
"176 94 LINE",
"528 94 LINE",
"528 30 LINE",
"560 30 LINE",
"560 6 LINE",
"600 6 LINE",
"600 -10 LINE"
);
},
{
closed = 1;
nodes = (
"48 222 LINE",
"72 222 LINE",
"72 230 LINE",
"56 230 LINE",
"56 438 LINE",
"48 438 LINE"
);
},
{
closed = 1;
nodes = (
"648 310 LINE",
"648 318 LINE",
"624 318 LINE",
"624 382 LINE",
"656 382 LINE",
"656 342 LINE",
"664 342 LINE",
"664 310 LINE"
);
},
{
closed = 1;
nodes = (
"648 318 LINE",
"656 318 LINE",
"656 342 LINE",
"648 342 LINE"
);
},
{
closed = 1;
nodes = (
"168 230 LINE",
"176 230 LINE",
"176 158 LINE",
"208 158 LINE",
"208 126 LINE",
"272 126 LINE",
"272 134 LINE",
"216 134 LINE",
"216 166 LINE",
"184 166 LINE",
"184 230 LINE",
"200 230 LINE",
"200 286 LINE",
"208 286 LINE",
"208 190 LINE",
"240 190 LINE",
"240 158 LINE",
"272 158 LINE",
"272 134 LINE",
"312 134 LINE",
"312 118 LINE",
"200 118 LINE",
"200 150 LINE",
"168 150 LINE"
);
},
{
closed = 1;
nodes = (
"648 246 LINE",
"648 254 LINE",
"600 254 LINE",
"600 286 LINE",
"656 286 LINE",
"656 278 LINE",
"664 278 LINE",
"664 246 LINE"
);
},
{
closed = 1;
nodes = (
"648 254 LINE",
"656 254 LINE",
"656 278 LINE",
"648 278 LINE"
);
},
{
closed = 1;
nodes = (
"88 230 LINE",
"104 230 LINE",
"104 246 LINE",
"88 246 LINE"
);
},
{
closed = 1;
nodes = (
"80 214 LINE",
"80 222 LINE",
"72 222 LINE",
"72 214 LINE"
);
},
{
closed = 1;
nodes = (
"600 182 LINE",
"600 190 LINE",
"624 190 LINE",
"624 198 LINE",
"600 198 LINE",
"600 222 LINE",
"624 222 LINE",
"624 198 LINE",
"632 198 LINE",
"632 182 LINE"
);
},
{
closed = 1;
nodes = (
"80 214 LINE",
"80 190 LINE",
"104 190 LINE",
"104 198 LINE",
"88 198 LINE",
"88 214 LINE"
);
},
{
closed = 1;
nodes = (
"120 150 LINE",
"136 150 LINE",
"136 214 LINE",
"120 214 LINE"
);
},
{
closed = 1;
nodes = (
"104 134 LINE",
"112 134 LINE",
"112 190 LINE",
"104 190 LINE"
);
},
{
closed = 1;
nodes = (
"432 166 LINE",
"432 150 LINE",
"456 150 LINE",
"456 166 LINE"
);
},
{
closed = 1;
nodes = (
"184 70 LINE",
"168 70 LINE",
"168 86 LINE",
"152 86 LINE",
"152 102 LINE",
"136 102 LINE",
"136 118 LINE",
"120 118 LINE",
"120 134 LINE",
"112 134 LINE",
"112 102 LINE",
"120 102 LINE",
"120 94 LINE",
"144 94 LINE",
"144 70 LINE",
"152 70 LINE",
"152 62 LINE",
"184 62 LINE"
);
},
{
closed = 1;
nodes = (
"432 134 LINE",
"432 126 LINE",
"560 126 LINE",
"560 94 LINE",
"568 94 LINE",
"568 134 LINE"
);
},
{
closed = 1;
nodes = (
"592 102 LINE",
"592 118 LINE",
"584 118 LINE",
"584 102 LINE"
);
},
{
closed = 1;
nodes = (
"520 70 LINE",
"520 86 LINE",
"200 86 LINE",
"200 70 LINE"
);
},
{
closed = 1;
nodes = (
"184 62 LINE",
"184 54 LINE",
"496 54 LINE",
"496 62 LINE"
);
},
{
closed = 1;
nodes = (
"504 6 LINE",
"504 54 LINE",
"496 54 LINE",
"496 -2 LINE",
"560 -2 LINE",
"560 6 LINE"
);
}
);
width = 742;
}
);
leftKerningGroup = O;
rightKerningGroup = O;
unicode = 0051;
userData = {
com.typemytype.robofont.guides = (
{
angle = 0;
isGlobal = 0;
magnetic = 5;
x = 0;
y = 710;
},
{
angle = 0;
isGlobal = 0;
magnetic = 5;
x = 0;
y = "-10";
},
{
angle = 0;
isGlobal = 0;
magnetic = 5;
x = 0;
y = "-56";
},
{
angle = 90;
isGlobal = 0;
magnetic = 5;
x = 82;
y = 0;
},
{
angle = 90;
isGlobal = 0;
magnetic = 5;
x = 750;
y = 0;
},
{
angle = 90;
isGlobal = 0;
magnetic = 5;
x = 580;
y = 0;
}
);
};
},
{
color = 1;
glyphname = R;
layers = (
{
anchors = (
{
name = bottom;
position = "{361, 0}";
},
{
name = top;
position = "{341, 700}";
}
);
layerId = "EC64484B-0978-4CB1-9EE9-C40A2D8C4059";
paths = (
{
closed = 1;
nodes = (
"600 100 LINE",
"550 100 LINE",
"550 150 LINE",
"500 200 LINE",
"500 250 LINE",
"550 250 LINE",
"600 300 LINE",
"600 550 LINE",
"550 600 LINE",
"500 600 LINE",
"450 650 LINE",
"350 650 LINE",
"300 700 LINE",
"0 700 LINE",
"0 0 LINE",
"250 0 LINE",
"250 200 LINE",
"300 150 LINE",
"300 100 LINE",
"350 50 LINE",
"350 0 LINE",
"588 0 LINE",
"588 12 LINE",
"600 12 LINE",
"600 0 LINE",
"588 0 LINE",
"588 -12 LINE",
"600 -12 LINE",
"600 -24 LINE",
"648 -24 LINE",
"648 24 LINE",
"600 24 LINE"
);
},
{
closed = 1;
nodes = (
"180 60 LINE",
"204 60 LINE",
"204 36 LINE",
"180 36 LINE",
"180 60 LINE",
"60 60 LINE",
"60 612 LINE",
"36 612 LINE",
"36 660 LINE",
"60 660 LINE",
"60 612 LINE",
"72 612 LINE",
"72 648 LINE",
"120 648 LINE",
"120 120 LINE",
"216 120 LINE",
"216 72 LINE",
"180 72 LINE"
);
},
{
closed = 1;
nodes = (
"216 168 LINE",
"204 168 LINE",
"204 156 LINE",
"156 156 LINE",
"156 660 LINE",
"180 660 LINE",
"180 648 LINE",
"216 648 LINE"
);
},
{
closed = 1;
nodes = (
"276 660 LINE",
"276 612 LINE",
"396 612 LINE",
"396 600 LINE",
"408 600 LINE",
"408 552 LINE",
"456 552 LINE",
"456 540 LINE",
"468 540 LINE",
"468 504 LINE",
"552 504 LINE",
"552 420 LINE",
"564 420 LINE",
"564 396 LINE",
"516 396 LINE",
"516 408 LINE",
"504 408 LINE",
"504 444 LINE",
"396 444 LINE",
"396 468 LINE",
"408 468 LINE",
"408 456 LINE",
"504 456 LINE",
"504 444 LINE",
"516 444 LINE",
"516 408 LINE",
"552 408 LINE",
"552 420 LINE",
"540 420 LINE",
"540 468 LINE",
"468 468 LINE",
"468 504 LINE",
"456 504 LINE",
"456 540 LINE",
"396 540 LINE",
"396 600 LINE",
"276 600 LINE",
"276 612 LINE",
"252 612 LINE",
"252 660 LINE"
);
},
{
closed = 1;
nodes = (
"180 648 LINE",
"168 648 LINE",
"168 168 LINE",
"204 168 LINE",
"204 180 LINE",
"180 180 LINE"
);
},
{
closed = 1;
nodes = (
"108 612 LINE",
"72 612 LINE",
"72 72 LINE",
"180 72 LINE",
"180 108 LINE",
"108 108 LINE"
);
},
{
closed = 1;
nodes = (
"540 540 LINE",
"516 540 LINE",
"516 564 LINE",
"540 564 LINE"
);
},
{
closed = 1;
nodes = (
"360 516 LINE",
"372 516 LINE",
"372 504 LINE",
"396 504 LINE",
"396 492 LINE",
"372 492 LINE",
"372 504 LINE",
"360 504 LINE",
"360 516 LINE",
"348 516 LINE",
"348 540 LINE",
"360 540 LINE"
);
},
{
closed = 1;
nodes = (
"300 500 LINE",
"350 450 LINE",
"300 400 LINE",
"250 400 LINE",
"250 500 LINE"
);
},
{
closed = 1;
nodes = (
"540 300 LINE",
"492 300 LINE",
"492 312 LINE",
"468 312 LINE",
"468 228 LINE",
"444 228 LINE",
"444 300 LINE",
"396 300 LINE",
"396 324 LINE",
"408 324 LINE",
"408 312 LINE",
"468 312 LINE",
"468 360 LINE",
"456 360 LINE",
"456 396 LINE",
"360 396 LINE",
"360 372 LINE",
"372 372 LINE",
"372 360 LINE",
"396 360 LINE",
"396 348 LINE",
"372 348 LINE",
"372 360 LINE",
"360 360 LINE",
"360 372 LINE",
"348 372 LINE",
"348 396 LINE",
"360 396 LINE",
"360 408 LINE",
"456 408 LINE",
"456 396 LINE",
"468 396 LINE",
"468 360 LINE",
"552 360 LINE",
"552 312 LINE",
"540 312 LINE"
);
},
{
closed = 1;
nodes = (
"372 132 LINE",
"372 180 LINE",
"396 180 LINE",
"396 252 LINE",
"324 252 LINE",
"324 276 LINE",
"348 276 LINE",
"348 300 LINE",
"324 300 LINE",
"324 312 LINE",
"312 312 LINE",
"312 324 LINE",
"276 324 LINE",
"276 348 LINE",
"264 348 LINE",
"264 324 LINE",
"252 324 LINE",
"252 348 LINE",
"264 348 LINE",
"264 360 LINE",
"312 360 LINE",
"312 324 LINE",
"324 324 LINE",
"324 312 LINE",
"360 312 LINE",
"360 264 LINE",
"408 264 LINE",
"408 180 LINE",
"396 180 LINE",
"396 132 LINE"
);
},
{
closed = 1;
nodes = (
"492 348 LINE",
"492 312 LINE",
"540 312 LINE",
"540 324 LINE",
"516 324 LINE",
"516 348 LINE"
);
},
{
closed = 1;
nodes = (
"300 252 LINE",
"300 264 LINE",
"312 264 LINE",
"312 216 LINE",
"324 216 LINE",
"324 204 LINE",
"300 204 LINE",
"300 228 LINE",
"276 228 LINE",
"276 252 LINE"
);
},
{
closed = 1;
nodes = (
"360 204 LINE",
"348 204 LINE",
"348 216 LINE",
"360 216 LINE"
);
},
{
closed = 1;
nodes = (
"348 180 LINE",
"360 180 LINE",
"360 120 LINE",
"396 120 LINE",
"396 84 LINE",
"372 84 LINE",
"372 108 LINE",
"348 108 LINE"
);
},
{
closed = 1;
nodes = (
"468 36 LINE",
"468 60 LINE",
"420 60 LINE",
"420 72 LINE",
"468 72 LINE",
"468 120 LINE",
"504 120 LINE",
"504 72 LINE",
"468 72 LINE",
"468 60 LINE",
"564 60 LINE",
"564 36 LINE"
);
}
);
width = 722;
}
);
leftKerningGroup = I;
rightKerningGroup = R;
unicode = 0052;
userData = {
com.typemytype.robofont.guides = (
{
angle = 0;
isGlobal = 0;
magnetic = 5;
x = 0;
y = 691;
},
{
angle = 0;
isGlobal = 0;
magnetic = 5;
x = 0;
y = 9;
},
{
angle = 90;
isGlobal = 0;
magnetic = 5;
x = 616;
y = 0;
},
{
angle = 90;
isGlobal = 0;
magnetic = 5;
x = 574;
y = 0;
},
{
angle = 90;
isGlobal = 0;
magnetic = 5;
x = 94;
y = 0;
},
{
angle = 90;
isGlobal = 0;
magnetic = 5;
x = 139;
y = 0;
}
);
};
},
{
color = 1;
glyphname = S;
layers = (
{
anchors = (
{
name = bottom;
position = "{349, 0}";
},
{
name = top;
position = "{349, 700}";
}
);
layerId = "EC64484B-0978-4CB1-9EE9-C40A2D8C4059";
paths = (
{
closed = 1;
nodes = (
"400 400 LINE",
"300 450 LINE",
"250 450 LINE",
"300 500 LINE",
"350 450 LINE",
"600 450 LINE",
"650 500 LINE",
"500 650 LINE",
"400 650 LINE",
"350 700 LINE",
"250 700 LINE",
"200 650 LINE",
"100 650 LINE",
"50 600 LINE",
"50 550 LINE",
"0 500 LINE",
"0 400 LINE",
"50 350 LINE",
"50 300 LINE",
"100 300 LINE",
"150 250 LINE",
"250 250 LINE",
"350 200 LINE",
"400 200 LINE",
"300 150 LINE",
"250 200 LINE",
"0 200 LINE",
"0 100 LINE",
"50 100 LINE",
"50 50 LINE",
"100 0 LINE",
"500 0 LINE",
"550 50 LINE",
"600 50 LINE",
"650 100 LINE",
"650 300 LINE",
"550 400 LINE"
);
},
{
closed = 1;
nodes = (
"280 648 LINE",
"264 648 LINE",
"264 664 LINE",
"280 664 LINE"
);
},
{
closed = 1;
nodes = (
"344 664 LINE",
"344 648 LINE",
"360 648 LINE",
"360 632 LINE",
"376 632 LINE",
"376 616 LINE",
"408 616 LINE",
"408 584 LINE",
"392 584 LINE",
"392 600 LINE",
"376 600 LINE",
"376 616 LINE",
"344 616 LINE",
"344 632 LINE",
"328 632 LINE",
"328 648 LINE",
"312 648 LINE",
"312 632 LINE",
"296 632 LINE",
"296 648 LINE",
"312 648 LINE",
"312 664 LINE"
);
},
{
closed = 1;
nodes = (
"248 632 LINE",
"248 624 LINE",
"240 624 LINE",
"240 600 LINE",
"232 600 LINE",
"232 632 LINE"
);
},
{
closed = 1;
nodes = (
"296 616 LINE",
"296 600 LINE",
"312 600 LINE",
"312 616 LINE",
"328 616 LINE",
"328 600 LINE",
"360 600 LINE",
"360 592 LINE",
"336 592 LINE",
"336 584 LINE",
"312 584 LINE",
"312 568 LINE",
"328 568 LINE",
"328 552 LINE",
"344 552 LINE",
"344 536 LINE",
"360 536 LINE",
"360 520 LINE",
"376 520 LINE",
"376 504 LINE",
"408 504 LINE",
"408 520 LINE",
"392 520 LINE",
"392 528 LINE",
"400 528 LINE",
"400 552 LINE",
"408 552 LINE",
"408 568 LINE",
"424 568 LINE",
"424 552 LINE",
"456 552 LINE",
"456 568 LINE",
"440 568 LINE",
"440 584 LINE",
"424 584 LINE",
"424 600 LINE",
"440 600 LINE",
"440 616 LINE",
"472 616 LINE",
"472 600 LINE",
"504 600 LINE",
"504 584 LINE",
"456 584 LINE",
"456 568 LINE",
"536 568 LINE",
"536 552 LINE",
"552 552 LINE",
"552 536 LINE",
"568 536 LINE",
"568 520 LINE",
"552 520 LINE",
"552 504 LINE",
"584 504 LINE",
"584 488 LINE",
"360 488 LINE",
"360 504 LINE",
"344 504 LINE",
"344 520 LINE",
"328 520 LINE",
"328 536 LINE",
"312 536 LINE",
"312 568 LINE",
"296 568 LINE",
"296 584 LINE",
"280 584 LINE",
"280 600 LINE",
"272 600 LINE",
"272 624 LINE",
"264 624 LINE",
"264 632 LINE",
"280 632 LINE",
"280 616 LINE"
);
},
{
closed = 1;
nodes = (
"136 600 LINE",
"152 600 LINE",
"152 616 LINE",
"184 616 LINE",
"184 552 LINE",
"168 552 LINE",
"168 536 LINE",
"184 536 LINE",
"184 520 LINE",
"200 520 LINE",
"200 504 LINE",
"184 504 LINE",
"184 496 LINE",
"176 496 LINE",
"176 472 LINE",
"168 472 LINE",
"168 488 LINE",
"152 488 LINE",
"152 496 LINE",
"176 496 LINE",
"176 528 LINE",
"152 528 LINE",
"152 584 LINE",
"144 584 LINE",
"144 592 LINE",
"136 592 LINE",
"136 600 LINE",
"120 600 LINE",
"120 616 LINE",
"136 616 LINE"
);
},
{
closed = 1;
nodes = (
"200 616 LINE",
"216 616 LINE",
"216 584 LINE",
"232 584 LINE",
"232 568 LINE",
"248 568 LINE",
"248 560 LINE",
"240 560 LINE",
"240 536 LINE",
"232 536 LINE",
"232 552 LINE",
"216 552 LINE",
"216 536 LINE",
"200 536 LINE",
"200 552 LINE",
"216 552 LINE",
"216 568 LINE",
"200 568 LINE"
);
},
{
closed = 1;
nodes = (
"264 584 LINE",
"248 584 LINE",
"248 592 LINE",
"264 592 LINE"
);
},
{
closed = 1;
nodes = (
"88 584 LINE",
"104 584 LINE",
"104 552 LINE",
"120 552 LINE",
"120 560 LINE",
"136 560 LINE",
"136 504 LINE",
"120 504 LINE",
"120 488 LINE",
"136 488 LINE",
"136 472 LINE",
"152 472 LINE",
"152 456 LINE",
"168 456 LINE",
"168 392 LINE",
"160 392 LINE",
"160 416 LINE",
"152 416 LINE",
"152 408 LINE",
"136 408 LINE",
"136 416 LINE",
"120 416 LINE",
"120 424 LINE",
"136 424 LINE",
"136 416 LINE",
"152 416 LINE",
"152 440 LINE",
"136 440 LINE",
"136 456 LINE",
"120 456 LINE",
"120 440 LINE",
"104 440 LINE",
"104 456 LINE",
"120 456 LINE",
"120 472 LINE",
"104 472 LINE",
"104 536 LINE",
"88 536 LINE"
);
},
{
closed = 1;
nodes = (
"360 552 LINE",
"360 560 LINE",
"368 560 LINE",
"368 584 LINE",
"376 584 LINE",
"376 568 LINE",
"392 568 LINE",
"392 560 LINE",
"368 560 LINE",
"368 552 LINE"
);
},
{
closed = 1;
nodes = (
"264 560 LINE",
"264 568 LINE",
"280 568 LINE",
"280 552 LINE",
"272 552 LINE",
"272 560 LINE"
);
},
{
closed = 1;
nodes = (
"552 520 LINE",
"552 536 LINE",
"408 536 LINE",
"408 520 LINE"
);
},
{
closed = 1;
nodes = (
"264 528 LINE",
"264 520 LINE",
"248 520 LINE",
"248 528 LINE"
);
},
{
closed = 1;
nodes = (
"72 520 LINE",
"88 520 LINE",
"88 456 LINE",
"72 456 LINE"
);
},
{
closed = 1;
nodes = (
"232 520 LINE",
"232 488 LINE",
"216 488 LINE",
"216 520 LINE"
);
},
{
closed = 1;
nodes = (
"40 488 LINE",
"56 488 LINE",
"56 432 LINE",
"48 432 LINE",
"48 408 LINE",
"40 408 LINE"
);
},
{
closed = 1;
nodes = (
"200 456 LINE",
"184 456 LINE",
"184 464 LINE",
"200 464 LINE"
);
},
{
closed = 1;
nodes = (
"80 400 LINE",
"80 432 LINE",
"72 432 LINE",
"72 440 LINE",
"88 440 LINE",
"88 424 LINE",
"104 424 LINE",
"104 416 LINE",
"96 416 LINE",
"96 408 LINE",
"120 408 LINE",
"120 400 LINE",
"96 400 LINE",
"96 408 LINE",
"88 408 LINE",
"88 400 LINE",
"80 400 LINE",
"80 376 LINE",
"72 376 LINE",
"72 392 LINE",
"56 392 LINE",
"56 400 LINE"
);
},
{
closed = 1;
nodes = (
"600 248 LINE",
"616 248 LINE",
"616 232 LINE",
"600 232 LINE",
"600 216 LINE",
"616 216 LINE",
"616 200 LINE",
"456 200 LINE",
"456 224 LINE",
"424 224 LINE",
"424 216 LINE",
"440 216 LINE",
"440 184 LINE",
"616 184 LINE",
"616 152 LINE",
"600 152 LINE",
"600 136 LINE",
"616 136 LINE",
"616 120 LINE",
"600 120 LINE",
"600 136 LINE",
"592 136 LINE",
"592 144 LINE",
"584 144 LINE",
"584 152 LINE",
"408 152 LINE",
"408 136 LINE",
"560 136 LINE",
"560 120 LINE",
"552 120 LINE",
"552 104 LINE",
"584 104 LINE",
"584 88 LINE",
"536 88 LINE",
"536 104 LINE",
"312 104 LINE",
"312 120 LINE",
"408 120 LINE",
"408 136 LINE",
"376 136 LINE",
"376 152 LINE",
"408 152 LINE",
"408 168 LINE",
"424 168 LINE",
"424 200 LINE",
"408 200 LINE",
"408 232 LINE",
"360 232 LINE",
"360 248 LINE",
"328 248 LINE",
"328 264 LINE",
"296 264 LINE",
"296 280 LINE",
"264 280 LINE",
"264 296 LINE",
"152 296 LINE",
"152 304 LINE",
"176 304 LINE",
"176 336 LINE",
"168 336 LINE",
"168 344 LINE",
"184 344 LINE",
"184 328 LINE",
"288 328 LINE",
"288 312 LINE",
"304 312 LINE",
"304 304 LINE",
"328 304 LINE",
"328 296 LINE",
"352 296 LINE",
"352 312 LINE",
"344 312 LINE",
"344 328 LINE",
"336 328 LINE",
"336 336 LINE",
"312 336 LINE",
"312 352 LINE",
"288 352 LINE",
"288 344 LINE",
"200 344 LINE",
"200 360 LINE",
"216 360 LINE",
"216 376 LINE",
"200 376 LINE",
"200 392 LINE",
"184 392 LINE",
"184 408 LINE",
"216 408 LINE",
"216 392 LINE",
"232 392 LINE",
"232 376 LINE",
"344 376 LINE",
"344 360 LINE",
"360 360 LINE",
"360 344 LINE",
"352 344 LINE",
"352 312 LINE",
"360 312 LINE",
"360 328 LINE",
"392 328 LINE",
"392 312 LINE",
"408 312 LINE",
"408 328 LINE",
"440 328 LINE",
"440 312 LINE",
"456 312 LINE",
"456 328 LINE",
"504 328 LINE",
"504 344 LINE",
"472 344 LINE",
"472 360 LINE",
"504 360 LINE",
"504 344 LINE",
"520 344 LINE",
"520 312 LINE",
"504 312 LINE",
"504 296 LINE",
"520 296 LINE",
"520 264 LINE",
"552 264 LINE",
"552 280 LINE",
"536 280 LINE",
"536 312 LINE",
"552 312 LINE",
"552 328 LINE",
"536 328 LINE",
"536 344 LINE",
"552 344 LINE",
"552 328 LINE",
"568 328 LINE",
"568 312 LINE",
"584 312 LINE",
"584 296 LINE",
"552 296 LINE",
"552 280 LINE",
"616 280 LINE",
"616 264 LINE",
"600 264 LINE"
);
},
{
closed = 1;
nodes = (
"312 408 LINE",
"312 392 LINE",
"248 392 LINE",
"248 408 LINE"
);
},
{
closed = 1;
nodes = (
"168 376 LINE",
"184 376 LINE",
"184 360 LINE",
"168 360 LINE"
);
},
{
closed = 1;
nodes = (
"88 368 LINE",
"96 368 LINE",
"96 352 LINE",
"112 352 LINE",
"112 344 LINE",
"88 344 LINE"
);
},
{
closed = 1;
nodes = (
"112 360 LINE",
"104 360 LINE",
"104 368 LINE",
"112 368 LINE"
);
},
{
closed = 1;
nodes = (
"160 360 LINE",
"160 352 LINE",
"144 352 LINE",
"144 360 LINE"
);
},
{
closed = 1;
nodes = (
"312 352 LINE",
"328 352 LINE",
"328 360 LINE",
"312 360 LINE"
);
},
{
closed = 1;
nodes = (
"376 344 LINE",
"376 360 LINE",
"408 360 LINE",
"408 344 LINE"
);
},
{
closed = 1;
nodes = (
"432 344 LINE",
"424 344 LINE",
"424 360 LINE",
"432 360 LINE"
);
},
{
closed = 1;
nodes = (
"352 344 LINE",
"352 352 LINE",
"328 352 LINE",
"328 344 LINE"
);
},
{
closed = 1;
nodes = (
"144 336 LINE",
"144 344 LINE",
"152 344 LINE",
"152 336 LINE",
"144 336 LINE",
"144 312 LINE",
"136 312 LINE",
"136 328 LINE",
"120 328 LINE",
"120 336 LINE"
);
},
{
closed = 1;
nodes = (
"288 312 LINE",
"280 312 LINE",
"280 296 LINE",
"288 296 LINE"
);
},
{
closed = 1;
nodes = (
"344 280 LINE",
"344 264 LINE",
"360 264 LINE",
"360 280 LINE",
"368 280 LINE",
"368 272 LINE",
"392 272 LINE",
"392 264 LINE",
"376 264 LINE",
"376 248 LINE",
"416 248 LINE",
"416 264 LINE",
"408 264 LINE",
"408 280 LINE",
"416 280 LINE",
"416 288 LINE",
"456 288 LINE",
"456 296 LINE",
"424 296 LINE",
"424 312 LINE",
"408 312 LINE",
"408 296 LINE",
"400 296 LINE",
"400 304 LINE",
"376 304 LINE",
"376 312 LINE",
"360 312 LINE",
"360 296 LINE",
"352 296 LINE",
"352 288 LINE",
"312 288 LINE",
"312 280 LINE"
);
},
{
closed = 1;
nodes = (
"464 248 LINE",
"464 264 LINE",
"480 264 LINE",
"480 224 LINE",
"472 224 LINE",
"472 216 LINE",
"504 216 LINE",
"504 232 LINE",
"488 232 LINE",
"488 264 LINE",
"504 264 LINE",
"504 280 LINE",
"488 280 LINE",
"488 312 LINE",
"456 312 LINE",
"456 296 LINE",
"472 296 LINE",
"472 288 LINE",
"456 288 LINE",
"456 280 LINE",
"416 280 LINE",
"416 264 LINE",
"432 264 LINE",
"432 240 LINE",
"440 240 LINE",
"440 232 LINE",
"456 232 LINE",
"456 224 LINE",
"472 224 LINE",
"472 248 LINE"
);
},
{
closed = 1;
nodes = (
"288 288 LINE",
"312 288 LINE",
"312 296 LINE",
"288 296 LINE"
);
},
{
closed = 1;
nodes = (
"416 224 LINE",
"424 224 LINE",
"424 248 LINE",
"416 248 LINE"
);
},
{
closed = 1;
nodes = (
"504 248 LINE",
"504 232 LINE",
"600 232 LINE",
"600 248 LINE"
);
},
{
closed = 1;
nodes = (
"168 72 LINE",
"168 88 LINE",
"152 88 LINE",
"152 96 LINE",
"160 96 LINE",
"160 160 LINE",
"152 160 LINE",
"152 120 LINE",
"144 120 LINE",
"144 144 LINE",
"136 144 LINE",
"136 160 LINE",
"120 160 LINE",
"120 144 LINE",
"112 144 LINE",
"112 96 LINE",
"104 96 LINE",
"104 72 LINE",
"120 72 LINE",
"120 80 LINE",
"136 80 LINE",
"136 72 LINE",
"120 72 LINE",
"120 56 LINE",
"488 56 LINE",
"488 40 LINE",
"104 40 LINE",
"104 56 LINE",
"88 56 LINE",
"88 136 LINE",
"40 136 LINE",
"40 168 LINE",
"56 168 LINE",
"56 152 LINE",
"96 152 LINE",
"96 160 LINE",
"120 160 LINE",
"120 168 LINE",
"136 168 LINE",
"136 160 LINE",
"152 160 LINE",
"152 168 LINE",
"168 168 LINE",
"168 136 LINE",
"184 136 LINE",
"184 120 LINE",
"280 120 LINE",
"280 104 LINE",
"168 104 LINE",
"168 88 LINE",
"520 88 LINE",
"520 72 LINE"
);
},
{
closed = 1;
nodes = (
"216 168 LINE",
"216 152 LINE",
"248 152 LINE",
"248 136 LINE",
"200 136 LINE",
"200 152 LINE",
"184 152 LINE",
"184 168 LINE"
);
},
{
closed = 1;
nodes = (
"104 152 LINE",
"96 152 LINE",
"96 96 LINE",
"104 96 LINE"
);
}
);
width = 697;
}
);
leftKerningGroup = S;
rightKerningGroup = S;
unicode = 0053;
userData = {
com.typemytype.robofont.guides = (
{
angle = 0;
isGlobal = 0;
magnetic = 5;
x = 0;
y = 355;
},
{
angle = 90;
isGlobal = 0;
magnetic = 5;
x = 306;
y = 0;
}
);
};
},
{
color = 1;
glyphname = Scedilla;
layers = (
{
hints = (
{
horizontal = 1;
place = "{-2147483648, 0}";
type = Tag;
name = hr01;
}
);
layerId = "EC64484B-0978-4CB1-9EE9-C40A2D8C4059";
paths = (
{
closed = 1;
nodes = (
"400 400 LINE",
"300 450 LINE",
"250 450 LINE",
"300 500 LINE",
"350 450 LINE",
"600 450 LINE",
"650 500 LINE",
"500 650 LINE",
"400 650 LINE",
"350 700 LINE",
"250 700 LINE",
"200 650 LINE",
"100 650 LINE",
"50 600 LINE",
"50 550 LINE",
"0 500 LINE",
"0 400 LINE",
"50 350 LINE",
"50 300 LINE",
"100 300 LINE",
"150 250 LINE",
"250 250 LINE",
"350 200 LINE",
"400 200 LINE",
"300 150 LINE",
"250 200 LINE",
"0 200 LINE",
"0 150 LINE",
"50 100 LINE",
"50 50 LINE",
"100 0 LINE",
"250 0 LINE",
"250 -100 LINE",
"350 -100 LINE",
"300 -150 LINE",
"250 -150 LINE",
"250 -200 LINE",
"350 -200 LINE",
"400 -150 LINE",
"400 -50 LINE",
"350 0 LINE",
"500 0 LINE",
"550 50 LINE",
"600 50 LINE",
"650 100 LINE",
"650 300 LINE",
"550 400 LINE"
);
},
{
closed = 1;
nodes = (
"348 652 LINE",
"348 628 LINE",
"372 628 LINE",
"372 604 LINE",
"420 604 LINE",
"420 580 LINE",
"444 580 LINE",
"444 556 LINE",
"540 556 LINE",
"540 532 LINE",
"528 532 LINE",
"528 520 LINE",
"432 520 LINE",
"432 532 LINE",
"420 532 LINE",
"420 556 LINE",
"396 556 LINE",
"396 580 LINE",
"372 580 LINE",
"372 604 LINE",
"324 604 LINE",
"324 616 LINE",
"304 616 LINE",
"304 628 LINE",
"300 628 LINE",
"300 652 LINE"
);
},
{
closed = 1;
nodes = (
"304 628 LINE",
"324 628 LINE",
"324 616 LINE",
"336 616 LINE",
"336 648 LINE",
"304 648 LINE"
);
},
{
closed = 1;
nodes = (
"276 628 LINE",
"276 604 LINE",
"300 604 LINE",
"300 592 LINE",
"272 592 LINE",
"272 616 LINE",
"240 616 LINE",
"240 604 LINE",
"252 604 LINE",
"252 584 LINE",
"264 584 LINE",
"264 580 LINE",
"252 580 LINE",
"252 584 LINE",
"240 584 LINE",
"240 604 LINE",
"228 604 LINE",
"228 628 LINE"
);
},
{
closed = 1;
nodes = (
"144 616 LINE",
"144 604 LINE",
"156 604 LINE",
"156 592 LINE",
"144 592 LINE",
"144 604 LINE",
"132 604 LINE",
"132 592 LINE",
"120 592 LINE",
"120 552 LINE",
"112 552 LINE",
"112 616 LINE"
);
},
{
closed = 1;
nodes = (
"464 584 LINE",
"432 584 LINE",
"432 616 LINE",
"464 616 LINE"
);
},
{
closed = 1;
nodes = (
"180 592 LINE",
"180 604 LINE",
"204 604 LINE",
"204 592 LINE"
);
},
{
closed = 1;
nodes = (
"492 580 LINE",
"468 580 LINE",
"468 604 LINE",
"492 604 LINE"
);
},
{
closed = 1;
nodes = (
"84 580 LINE",
"108 580 LINE",
"108 520 LINE",
"112 520 LINE",
"112 496 LINE",
"108 496 LINE",
"108 520 LINE",
"84 520 LINE",
"84 496 LINE",
"80 496 LINE",
"80 520 LINE",
"84 520 LINE"
);
},
{
closed = 1;
nodes = (
"252 508 LINE",
"240 508 LINE",
"240 488 LINE",
"208 488 LINE",
"208 532 LINE",
"204 532 LINE",
"204 544 LINE",
"208 544 LINE",
"208 532 LINE",
"228 532 LINE",
"228 508 LINE",
"240 508 LINE",
"240 552 LINE",
"216 552 LINE",
"216 580 LINE",
"228 580 LINE",
"228 556 LINE",
"252 556 LINE"
);
},
{
closed = 1;
nodes = (
"368 552 LINE",
"360 552 LINE",
"360 556 LINE",
"372 556 LINE",
"372 544 LINE",
"368 544 LINE"
);
},
{
closed = 1;
nodes = (
"432 552 LINE",
"432 532 LINE",
"528 532 LINE",
"528 552 LINE"
);
},
{
closed = 1;
nodes = (
"180 532 LINE",
"180 508 LINE",
"204 508 LINE",
"204 460 LINE",
"180 460 LINE",
"180 484 LINE",
"156 484 LINE",
"156 488 LINE",
"144 488 LINE",
"144 508 LINE",
"132 508 LINE",
"132 544 LINE",
"156 544 LINE",
"156 532 LINE"
);
},
{
closed = 1;
nodes = (
"336 520 LINE",
"336 532 LINE",
"324 532 LINE",
"324 544 LINE",
"336 544 LINE",
"336 532 LINE",
"348 532 LINE",
"348 520 LINE",
"360 520 LINE",
"360 508 LINE",
"348 508 LINE",
"348 520 LINE"
);
},
{
closed = 1;
nodes = (
"144 508 LINE",
"156 508 LINE",
"156 488 LINE",
"176 488 LINE",
"176 520 LINE",
"144 520 LINE"
);
},
{
closed = 1;
nodes = (
"588 484 LINE",
"372 484 LINE",
"372 488 LINE",
"368 488 LINE",
"368 496 LINE",
"372 496 LINE",
"372 488 LINE",
"400 488 LINE",
"400 496 LINE",
"408 496 LINE",
"408 508 LINE",
"588 508 LINE"
);
},
{
closed = 1;
nodes = (
"156 292 LINE",
"156 316 LINE",
"132 316 LINE",
"132 340 LINE",
"84 340 LINE",
"84 388 LINE",
"60 388 LINE",
"60 412 LINE",
"36 412 LINE",
"36 484 LINE",
"60 484 LINE",
"60 436 LINE",
"84 436 LINE",
"84 412 LINE",
"108 412 LINE",
"108 364 LINE",
"156 364 LINE",
"156 340 LINE",
"180 340 LINE",
"180 316 LINE",
"324 316 LINE",
"324 304 LINE",
"312 304 LINE",
"312 296 LINE",
"304 296 LINE",
"304 268 LINE",
"312 268 LINE",
"312 264 LINE",
"304 264 LINE",
"304 268 LINE",
"300 268 LINE",
"300 292 LINE"
);
},
{
closed = 1;
nodes = (
"156 460 LINE",
"156 448 LINE",
"144 448 LINE",
"144 456 LINE",
"120 456 LINE",
"120 484 LINE",
"132 484 LINE",
"132 460 LINE"
);
},
{
closed = 1;
nodes = (
"112 436 LINE",
"108 436 LINE",
"108 448 LINE",
"112 448 LINE",
"112 436 LINE",
"120 436 LINE",
"120 400 LINE",
"132 400 LINE",
"132 392 LINE",
"144 392 LINE",
"144 400 LINE",
"168 400 LINE",
"168 412 LINE",
"204 412 LINE",
"204 400 LINE",
"168 400 LINE",
"168 388 LINE",
"132 388 LINE",
"132 392 LINE",
"112 392 LINE"
);
},
{
closed = 1;
nodes = (
"300 412 LINE",
"300 388 LINE",
"252 388 LINE",
"252 412 LINE"
);
},
{
closed = 1;
nodes = (
"372 364 LINE",
"372 340 LINE",
"420 340 LINE",
"420 316 LINE",
"492 316 LINE",
"492 256 LINE",
"468 256 LINE",
"468 292 LINE",
"396 292 LINE",
"396 316 LINE",
"348 316 LINE",
"348 328 LINE",
"208 328 LINE",
"208 340 LINE",
"204 340 LINE",
"204 352 LINE",
"208 352 LINE",
"208 340 LINE",
"348 340 LINE",
"348 328 LINE",
"368 328 LINE",
"368 360 LINE",
"216 360 LINE",
"216 388 LINE",
"228 388 LINE",
"228 364 LINE"
);
},
{
closed = 1;
nodes = (
"592 232 LINE",
"528 232 LINE",
"528 244 LINE",
"516 244 LINE",
"516 296 LINE",
"496 296 LINE",
"496 328 LINE",
"432 328 LINE",
"432 360 LINE",
"444 360 LINE",
"444 364 LINE",
"540 364 LINE",
"540 352 LINE",
"528 352 LINE",
"528 360 LINE",
"444 360 LINE",
"444 340 LINE",
"504 340 LINE",
"504 304 LINE",
"516 304 LINE",
"516 296 LINE",
"528 296 LINE",
"528 304 LINE",
"540 304 LINE",
"540 268 LINE",
"612 268 LINE",
"612 244 LINE",
"592 244 LINE"
);
},
{
closed = 1;
nodes = (
"588 292 LINE",
"564 292 LINE",
"564 316 LINE",
"588 316 LINE"
);
},
{
closed = 1;
nodes = (
"348 244 LINE",
"348 256 LINE",
"360 256 LINE",
"360 264 LINE",
"368 264 LINE",
"368 292 LINE",
"360 292 LINE",
"360 296 LINE",
"368 296 LINE",
"368 292 LINE",
"372 292 LINE",
"372 268 LINE",
"444 268 LINE",
"444 256 LINE",
"432 256 LINE",
"432 264 LINE",
"368 264 LINE",
"368 244 LINE",
"408 244 LINE",
"408 232 LINE",
"368 232 LINE",
"368 244 LINE"
);
},
{
closed = 1;
nodes = (
"528 244 LINE",
"592 244 LINE",
"592 264 LINE",
"528 264 LINE"
);
},
{
closed = 1;
nodes = (
"468 196 LINE",
"468 200 LINE",
"464 200 LINE",
"464 208 LINE",
"468 208 LINE",
"468 200 LINE",
"496 200 LINE",
"496 208 LINE",
"504 208 LINE",
"504 220 LINE",
"612 220 LINE",
"612 196 LINE"
);
},
{
closed = 1;
nodes = (
"592 136 LINE",
"432 136 LINE",
"432 148 LINE",
"420 148 LINE",
"420 208 LINE",
"444 208 LINE",
"444 172 LINE",
"612 172 LINE",
"612 148 LINE",
"592 148 LINE"
);
},
{
closed = 1;
nodes = (
"112 40 LINE",
"112 52 LINE",
"108 52 LINE",
"108 76 LINE",
"84 76 LINE",
"84 136 LINE",
"80 136 LINE",
"80 168 LINE",
"144 168 LINE",
"144 160 LINE",
"120 160 LINE",
"120 112 LINE",
"156 112 LINE",
"156 104 LINE",
"176 104 LINE",
"176 136 LINE",
"168 136 LINE",
"168 148 LINE",
"180 148 LINE",
"180 124 LINE",
"276 124 LINE",
"276 100 LINE",
"156 100 LINE",
"156 104 LINE",
"112 104 LINE",
"112 136 LINE",
"108 136 LINE",
"108 100 LINE",
"132 100 LINE",
"132 76 LINE",
"492 76 LINE",
"492 72 LINE",
"496 72 LINE",
"496 40 LINE"
);
},
{
closed = 1;
nodes = (
"432 168 LINE",
"432 148 LINE",
"592 148 LINE",
"592 168 LINE"
);
},
{
closed = 1;
nodes = (
"84 136 LINE",
"108 136 LINE",
"108 148 LINE",
"84 148 LINE"
);
},
{
closed = 1;
nodes = (
"324 100 LINE",
"324 124 LINE",
"588 124 LINE",
"588 100 LINE"
);
},
{
closed = 1;
nodes = (
"492 52 LINE",
"492 72 LINE",
"112 72 LINE",
"112 52 LINE"
);
},
{
closed = 1;
nodes = (
"300 -68 LINE",
"300 -44 LINE",
"348 -44 LINE",
"348 -68 LINE"
);
}
);
width = 697;
}
);
leftKerningGroup = S;
rightKerningGroup = S;
unicode = 015E;
userData = {
com.typemytype.robofont.guides = (
{
angle = 90;
isGlobal = 0;
magnetic = 5;
x = 306;
y = 0;
}
);
};
},
{
color = 1;
glyphname = T;
layers = (
{
hints = (
{
horizontal = 1;
place = "{-2147483648, 0}";
type = Tag;
name = hr00;
}
);
layerId = "EC64484B-0978-4CB1-9EE9-C40A2D8C4059";
paths = (
{
closed = 1;
nodes = (
"0 700 LINE",
"0 450 LINE",
"200 450 LINE",
"200 0 LINE",
"450 0 LINE",
"450 450 LINE",
"600 450 LINE",
"650 500 LINE",
"650 650 LINE",
"600 700 LINE"
);
},
{
closed = 1;
nodes = (
"288 32 LINE",
"288 48 LINE",
"400 48 LINE",
"400 72 LINE",
"408 72 LINE",
"408 96 LINE",
"288 96 LINE",
"288 80 LINE",
"272 80 LINE",
"272 528 LINE",
"80 528 LINE",
"80 544 LINE",
"96 544 LINE",
"96 608 LINE",
"80 608 LINE",
"80 648 LINE",
"120 648 LINE",
"120 552 LINE",
"312 552 LINE",
"312 120 LINE",
"408 120 LINE",
"408 96 LINE",
"416 96 LINE",
"416 32 LINE"
);
},
{
closed = 1;
nodes = (
"408 648 LINE",
"408 168 LINE",
"400 168 LINE",
"400 176 LINE",
"368 176 LINE",
"368 624 LINE",
"176 624 LINE",
"176 648 LINE"
);
},
{
closed = 1;
nodes = (
"592 528 LINE",
"464 528 LINE",
"464 544 LINE",
"480 544 LINE",
"480 608 LINE",
"464 608 LINE",
"464 648 LINE",
"504 648 LINE",
"504 552 LINE",
"600 552 LINE",
"600 504 LINE",
"592 504 LINE"
);
},
{
closed = 1;
nodes = (
"592 624 LINE",
"560 624 LINE",
"560 648 LINE",
"600 648 LINE",
"600 600 LINE",
"592 600 LINE"
);
},
{
closed = 1;
nodes = (
"48 544 LINE",
"32 544 LINE",
"32 608 LINE",
"48 608 LINE"
);
},
{
closed = 1;
nodes = (
"432 544 LINE",
"416 544 LINE",
"416 608 LINE",
"432 608 LINE"
);
}
);
width = 674;
}
);
leftKerningGroup = T;
rightKerningGroup = T;
unicode = 0054;
userData = {
com.typemytype.robofont.guides = (
{
angle = 0;
isGlobal = 0;
magnetic = 5;
x = 0;
y = 495;
},
{
angle = 0;
isGlobal = 0;
magnetic = 5;
x = 0;
y = 9;
},
{
angle = 0;
isGlobal = 0;
magnetic = 5;
x = 0;
y = 691;
},
{
angle = 0;
isGlobal = 0;
magnetic = 5;
x = 0;
y = 649;
},
{
angle = 90;
isGlobal = 0;
magnetic = 5;
x = 279;
y = 0;
},
{
angle = 90;
isGlobal = 0;
magnetic = 5;
x = 324;
y = 0;
},
{
angle = 90;
isGlobal = 0;
magnetic = 5;
x = 59;
y = 0;
},
{
angle = 90;
isGlobal = 0;
magnetic = 5;
x = 544;
y = 0;
}
);
};
},
{
color = 1;
glyphname = Tbar;
layers = (
{
hints = (
{
horizontal = 1;
place = "{-2147483648, 0}";
type = Tag;
name = hr00;
}
);
layerId = "EC64484B-0978-4CB1-9EE9-C40A2D8C4059";
paths = (
{
closed = 1;
nodes = (
"0 700 LINE",
"0 450 LINE",
"200 450 LINE",
"200 350 LINE",
"50 350 LINE",
"50 250 LINE",
"200 250 LINE",
"200 0 LINE",
"450 0 LINE",
"450 250 LINE",
"550 250 LINE",
"550 350 LINE",
"450 350 LINE",
"450 450 LINE",
"600 450 LINE",
"650 500 LINE",
"650 650 LINE",
"600 700 LINE"
);
},
{
closed = 1;
nodes = (
"184 648 LINE",
"168 648 LINE",
"168 664 LINE",
"184 664 LINE"
);
},
{
closed = 1;
nodes = (
"392 664 LINE",
"392 648 LINE",
"200 648 LINE",
"200 664 LINE"
);
},
{
closed = 1;
nodes = (
"456 552 LINE",
"456 664 LINE",
"472 664 LINE",
"472 568 LINE",
"616 568 LINE",
"616 552 LINE"
);
},
{
closed = 1;
nodes = (
"584 664 LINE",
"584 648 LINE",
"552 648 LINE",
"552 664 LINE"
);
},
{
closed = 1;
nodes = (
"360 456 LINE",
"360 632 LINE",
"376 632 LINE",
"376 472 LINE",
"392 472 LINE",
"392 456 LINE"
);
},
{
closed = 1;
nodes = (
"120 584 LINE",
"120 568 LINE",
"296 568 LINE",
"296 552 LINE",
"104 552 LINE",
"104 584 LINE"
);
},
{
closed = 1;
nodes = (
"360 168 LINE",
"360 440 LINE",
"376 440 LINE",
"376 184 LINE",
"408 184 LINE",
"408 168 LINE"
);
}
);
width = 682;
}
);
leftKerningGroup = T;
rightKerningGroup = T;
unicode = 0166;
userData = {
com.typemytype.robofont.guides = (
{
angle = 0;
isGlobal = 0;
magnetic = 5;
x = 0;
y = 380;
},
{
angle = 90;
isGlobal = 0;
magnetic = 5;
x = 301;
y = 0;
},
{
angle = 90;
isGlobal = 0;
magnetic = 5;
x = 50;
y = 0;
}
);
};
},
{
color = 1;
glyphname = U;
layers = (
{
anchors = (
{
name = bottom;
position = "{373, 0}";
},
{
name = ogonek;
position = "{671, 10}";
},
{
name = top;
position = "{373, 700}";
},
{
name = topright;
position = "{726, 700}";
}
);
layerId = "EC64484B-0978-4CB1-9EE9-C40A2D8C4059";
paths = (
{
closed = 1;
nodes = (
"450 700 LINE",
"400 650 LINE",
"400 200 LINE",
"350 150 LINE",
"250 250 LINE",
"250 700 LINE",
"50 700 LINE",
"0 650 LINE",
"0 250 LINE",
"50 200 LINE",
"50 100 LINE",
"150 0 LINE",
"550 0 LINE",
"650 100 LINE",
"650 700 LINE"
);
},
{
closed = 1;
nodes = (
"72 664 LINE",
"88 664 LINE",
"88 312 LINE",
"72 312 LINE"
);
},
{
closed = 1;
nodes = (
"104 664 LINE",
"120 664 LINE",
"120 648 LINE",
"136 648 LINE",
"136 664 LINE",
"152 664 LINE",
"152 648 LINE",
"168 648 LINE",
"168 664 LINE",
"184 664 LINE",
"184 408 LINE",
"168 408 LINE",
"168 392 LINE",
"184 392 LINE",
"184 376 LINE",
"200 376 LINE",
"200 360 LINE",
"216 360 LINE",
"216 232 LINE",
"200 232 LINE",
"200 344 LINE",
"184 344 LINE",
"184 360 LINE",
"168 360 LINE",
"168 344 LINE",
"152 344 LINE",
"152 360 LINE",
"168 360 LINE",
"168 376 LINE",
"152 376 LINE",
"152 648 LINE",
"136 648 LINE",
"136 360 LINE",
"120 360 LINE",
"120 344 LINE",
"136 344 LINE",
"136 328 LINE",
"152 328 LINE",
"152 312 LINE",
"168 312 LINE",
"168 328 LINE",
"184 328 LINE",
"184 216 LINE",
"168 216 LINE",
"168 200 LINE",
"184 200 LINE",
"184 184 LINE",
"200 184 LINE",
"200 168 LINE",
"216 168 LINE",
"216 144 LINE",
"200 144 LINE",
"200 152 LINE",
"184 152 LINE",
"184 168 LINE",
"168 168 LINE",
"168 152 LINE",
"152 152 LINE",
"152 168 LINE",
"168 168 LINE",
"168 184 LINE",
"152 184 LINE",
"152 296 LINE",
"136 296 LINE",
"136 312 LINE",
"120 312 LINE",
"120 296 LINE",
"104 296 LINE",
"104 312 LINE",
"120 312 LINE",
"120 328 LINE",
"104 328 LINE"
);
},
{
closed = 1;
nodes = (
"200 664 LINE",
"216 664 LINE",
"216 424 LINE",
"200 424 LINE"
);
},
{
closed = 1;
nodes = (
"600 248 LINE",
"616 248 LINE",
"616 232 LINE",
"600 232 LINE",
"600 216 LINE",
"616 216 LINE",
"616 200 LINE",
"472 200 LINE",
"472 216 LINE",
"456 216 LINE",
"456 184 LINE",
"616 184 LINE",
"616 168 LINE",
"600 168 LINE",
"600 152 LINE",
"616 152 LINE",
"616 136 LINE",
"600 136 LINE",
"600 104 LINE",
"376 104 LINE",
"376 120 LINE",
"456 120 LINE",
"456 136 LINE",
"408 136 LINE",
"408 152 LINE",
"456 152 LINE",
"456 168 LINE",
"440 168 LINE",
"440 240 LINE",
"472 240 LINE",
"472 216 LINE",
"488 216 LINE",
"488 240 LINE",
"504 240 LINE",
"504 232 LINE",
"600 232 LINE",
"600 248 LINE",
"528 248 LINE",
"528 264 LINE",
"536 264 LINE",
"536 664 LINE",
"552 664 LINE",
"552 280 LINE",
"616 280 LINE",
"616 264 LINE",
"600 264 LINE"
);
},
{
closed = 1;
nodes = (
"472 648 LINE",
"472 664 LINE",
"488 664 LINE",
"488 648 LINE",
"504 648 LINE",
"504 664 LINE",
"520 664 LINE",
"520 624 LINE",
"488 624 LINE",
"488 648 LINE",
"472 648 LINE",
"472 624 LINE",
"440 624 LINE",
"440 648 LINE"
);
},
{
closed = 1;
nodes = (
"568 296 LINE",
"568 664 LINE",
"584 664 LINE",
"584 312 LINE",
"616 312 LINE",
"616 296 LINE"
);
},
{
closed = 1;
nodes = (
"616 328 LINE",
"600 328 LINE",
"600 664 LINE",
"616 664 LINE"
);
},
{
closed = 1;
nodes = (
"104 104 LINE",
"104 120 LINE",
"88 120 LINE",
"88 232 LINE",
"72 232 LINE",
"72 248 LINE",
"56 248 LINE",
"56 264 LINE",
"40 264 LINE",
"40 648 LINE",
"56 648 LINE",
"56 280 LINE",
"72 280 LINE",
"72 296 LINE",
"88 296 LINE",
"88 280 LINE",
"104 280 LINE",
"104 264 LINE",
"88 264 LINE",
"88 248 LINE",
"104 248 LINE",
"104 136 LINE",
"120 136 LINE",
"120 152 LINE",
"136 152 LINE",
"136 136 LINE",
"144 136 LINE",
"144 120 LINE",
"136 120 LINE",
"136 104 LINE",
"144 104 LINE",
"144 56 LINE",
"136 56 LINE",
"136 88 LINE",
"120 88 LINE",
"120 104 LINE"
);
},
{
closed = 1;
nodes = (
"200 392 LINE",
"200 408 LINE",
"216 408 LINE",
"216 392 LINE"
);
},
{
closed = 1;
nodes = (
"120 280 LINE",
"136 280 LINE",
"136 168 LINE",
"120 168 LINE"
);
},
{
closed = 1;
nodes = (
"248 168 LINE",
"264 168 LINE",
"264 152 LINE",
"296 152 LINE",
"296 136 LINE",
"248 136 LINE",
"248 152 LINE",
"232 152 LINE",
"232 184 LINE",
"216 184 LINE",
"216 200 LINE",
"200 200 LINE",
"200 216 LINE",
"232 216 LINE",
"232 200 LINE",
"248 200 LINE"
);
},
{
closed = 1;
nodes = (
"456 152 LINE",
"456 136 LINE",
"600 136 LINE",
"600 152 LINE"
);
},
{
closed = 1;
nodes = (
"328 104 LINE",
"240 104 LINE",
"240 120 LINE",
"328 120 LINE"
);
},
{
closed = 1;
nodes = (
"240 72 LINE",
"240 88 LINE",
"568 88 LINE",
"568 72 LINE"
);
},
{
closed = 1;
nodes = (
"152 40 LINE",
"152 48 LINE",
"240 48 LINE",
"240 56 LINE",
"536 56 LINE",
"536 40 LINE"
);
}
);
width = 746;
}
);
leftKerningGroup = U;
rightKerningGroup = U;
unicode = 0055;
userData = {
com.typemytype.robofont.guides = (
{
angle = 0;
isGlobal = 0;
magnetic = 5;
x = 0;
y = 267;
},
{
angle = 90;
isGlobal = 0;
magnetic = 5;
x = 333;
y = 0;
},
{
angle = 90;
isGlobal = 0;
magnetic = 5;
x = 535;
y = 0;
},
{
angle = 90;
isGlobal = 0;
magnetic = 5;
x = 580;
y = 0;
},
{
angle = 90;
isGlobal = 0;
magnetic = 5;
x = 84;
y = 0;
},
{
angle = 90;
isGlobal = 0;
magnetic = 5;
x = 129;
y = 0;
}
);
};
},
{
color = 1;
glyphname = Uogonek;
layers = (
{
hints = (
{
horizontal = 1;
place = "{-2147483648, 0}";
type = Tag;
name = hr01;
},
{
horizontal = 1;
place = "{-2147483648, 0}";
type = Tag;
name = hr02;
}
);
layerId = "EC64484B-0978-4CB1-9EE9-C40A2D8C4059";
paths = (
{
closed = 1;
nodes = (
"450 700 LINE",
"400 650 LINE",
"400 200 LINE",
"350 150 LINE",
"250 250 LINE",
"250 700 LINE",
"50 700 LINE",
"0 650 LINE",
"0 250 LINE",
"50 200 LINE",
"50 100 LINE",
"150 0 LINE",
"250 0 LINE",
"250 -100 LINE",
"300 -150 LINE",
"350 -150 LINE",
"400 -200 LINE",
"450 -200 LINE",
"450 -50 LINE",
"400 0 LINE",
"550 0 LINE",
"650 100 LINE",
"650 700 LINE"
);
},
{
closed = 1;
nodes = (
"108 616 LINE",
"84 616 LINE",
"84 652 LINE",
"108 652 LINE"
);
},
{
closed = 1;
nodes = (
"156 412 LINE",
"180 412 LINE",
"180 652 LINE",
"204 652 LINE",
"204 412 LINE",
"180 412 LINE",
"180 388 LINE",
"156 388 LINE",
"156 412 LINE",
"144 412 LINE",
"144 616 LINE",
"132 616 LINE",
"132 652 LINE",
"156 652 LINE"
);
},
{
closed = 1;
nodes = (
"540 244 LINE",
"540 220 LINE",
"612 220 LINE",
"612 172 LINE",
"468 172 LINE",
"468 148 LINE",
"612 148 LINE",
"612 124 LINE",
"588 124 LINE",
"588 100 LINE",
"396 100 LINE",
"396 148 LINE",
"420 148 LINE",
"420 124 LINE",
"468 124 LINE",
"468 148 LINE",
"444 148 LINE",
"444 652 LINE",
"468 652 LINE",
"468 628 LINE",
"492 628 LINE",
"492 652 LINE",
"516 652 LINE",
"516 628 LINE",
"540 628 LINE",
"540 652 LINE",
"564 652 LINE",
"564 268 LINE",
"612 268 LINE",
"612 244 LINE"
);
},
{
closed = 1;
nodes = (
"612 292 LINE",
"588 292 LINE",
"588 652 LINE",
"612 652 LINE"
);
},
{
closed = 1;
nodes = (
"420 -140 LINE",
"396 -140 LINE",
"396 -116 LINE",
"324 -116 LINE",
"324 -92 LINE",
"300 -92 LINE",
"300 52 LINE",
"156 52 LINE",
"156 76 LINE",
"132 76 LINE",
"132 100 LINE",
"108 100 LINE",
"108 124 LINE",
"84 124 LINE",
"84 244 LINE",
"60 244 LINE",
"60 268 LINE",
"36 268 LINE",
"36 628 LINE",
"60 628 LINE",
"60 616 LINE",
"48 616 LINE",
"48 328 LINE",
"60 328 LINE",
"60 292 LINE",
"84 292 LINE",
"84 268 LINE",
"108 268 LINE",
"108 292 LINE",
"132 292 LINE",
"132 196 LINE",
"156 196 LINE",
"156 316 LINE",
"132 316 LINE",
"132 328 LINE",
"144 328 LINE",
"144 364 LINE",
"156 364 LINE",
"156 340 LINE",
"180 340 LINE",
"180 364 LINE",
"204 364 LINE",
"204 220 LINE",
"228 220 LINE",
"228 196 LINE",
"252 196 LINE",
"252 172 LINE",
"276 172 LINE",
"276 148 LINE",
"252 148 LINE",
"252 172 LINE",
"228 172 LINE",
"228 196 LINE",
"204 196 LINE",
"204 220 LINE",
"180 220 LINE",
"180 172 LINE",
"204 172 LINE",
"204 148 LINE",
"228 148 LINE",
"228 124 LINE",
"324 124 LINE",
"324 100 LINE",
"204 100 LINE",
"204 124 LINE",
"180 124 LINE",
"180 148 LINE",
"156 148 LINE",
"156 172 LINE",
"132 172 LINE",
"132 196 LINE",
"108 196 LINE",
"108 148 LINE",
"132 148 LINE",
"132 124 LINE",
"156 124 LINE",
"156 100 LINE",
"180 100 LINE",
"180 76 LINE",
"324 76 LINE",
"324 -68 LINE",
"348 -68 LINE",
"348 -92 LINE",
"420 -92 LINE"
);
},
{
closed = 1;
nodes = (
"516 628 LINE",
"492 628 LINE",
"492 196 LINE",
"540 196 LINE",
"540 220 LINE",
"516 220 LINE"
);
},
{
closed = 1;
nodes = (
"108 316 LINE",
"84 316 LINE",
"84 328 LINE",
"108 328 LINE"
);
},
{
closed = 1;
nodes = (
"348 52 LINE",
"348 100 LINE",
"372 100 LINE",
"372 76 LINE",
"540 76 LINE",
"540 52 LINE"
);
},
{
closed = 1;
nodes = (
"372 -44 LINE",
"396 -44 LINE",
"396 -68 LINE",
"372 -68 LINE",
"372 -44 LINE",
"348 -44 LINE",
"348 -20 LINE",
"372 -20 LINE"
);
}
);
width = 746;
}
);
leftKerningGroup = U;
rightKerningGroup = U;
unicode = 0172;
userData = {
com.typemytype.robofont.guides = (
{
angle = 0;
isGlobal = 0;
magnetic = 5;
x = 0;
y = "-187";
},
{
angle = 90;
isGlobal = 0;
magnetic = 5;
x = 332;
y = 0;
}
);
};
},
{
color = 1;
glyphname = V;
layers = (
{
hints = (
{
horizontal = 1;
place = "{-2147483648, 0}";
type = Tag;
name = hr00;
}
);
layerId = "EC64484B-0978-4CB1-9EE9-C40A2D8C4059";
paths = (
{
closed = 1;
nodes = (
"500 700 LINE",
"400 600 LINE",
"400 450 LINE",
"350 400 LINE",
"350 300 LINE",
"300 350 LINE",
"300 500 LINE",
"250 550 LINE",
"250 650 LINE",
"200 700 LINE",
"0 700 LINE",
"0 550 LINE",
"50 500 LINE",
"50 350 LINE",
"100 350 LINE",
"100 250 LINE",
"150 200 LINE",
"150 50 LINE",
"200 0 LINE",
"500 0 LINE",
"500 100 LINE",
"550 150 LINE",
"550 250 LINE",
"600 300 LINE",
"600 400 LINE",
"650 450 LINE",
"650 600 LINE",
"700 650 LINE",
"650 700 LINE"
);
},
{
closed = 1;
nodes = (
"416 48 LINE",
"416 72 LINE",
"456 72 LINE",
"456 80 LINE",
"416 80 LINE",
"416 96 LINE",
"240 96 LINE",
"240 272 LINE",
"216 272 LINE",
"216 288 LINE",
"224 288 LINE",
"224 312 LINE",
"216 312 LINE",
"216 416 LINE",
"176 416 LINE",
"176 432 LINE",
"160 432 LINE",
"160 600 LINE",
"120 600 LINE",
"120 608 LINE",
"96 608 LINE",
"96 600 LINE",
"80 600 LINE",
"80 648 LINE",
"72 648 LINE",
"72 560 LINE",
"48 560 LINE",
"48 656 LINE",
"80 656 LINE",
"80 648 LINE",
"120 648 LINE",
"120 608 LINE",
"160 608 LINE",
"160 600 LINE",
"168 600 LINE",
"168 456 LINE",
"216 456 LINE",
"216 416 LINE",
"224 416 LINE",
"224 312 LINE",
"264 312 LINE",
"264 120 LINE",
"456 120 LINE",
"456 80 LINE",
"464 80 LINE",
"464 48 LINE"
);
},
{
closed = 1;
nodes = (
"592 528 LINE",
"528 528 LINE",
"528 656 LINE",
"560 656 LINE",
"560 648 LINE",
"600 648 LINE",
"600 608 LINE",
"608 608 LINE",
"608 544 LINE",
"592 544 LINE"
);
},
{
closed = 1;
nodes = (
"600 608 LINE",
"560 608 LINE",
"560 648 LINE",
"552 648 LINE",
"552 608 LINE",
"544 608 LINE",
"544 544 LINE",
"592 544 LINE",
"592 552 LINE",
"600 552 LINE"
);
},
{
closed = 1;
nodes = (
"496 336 LINE",
"496 352 LINE",
"544 352 LINE",
"544 360 LINE",
"552 360 LINE",
"552 368 LINE",
"544 368 LINE",
"544 480 LINE",
"480 480 LINE",
"480 464 LINE",
"464 464 LINE",
"464 560 LINE",
"456 560 LINE",
"456 456 LINE",
"480 456 LINE",
"480 432 LINE",
"432 432 LINE",
"432 560 LINE",
"456 560 LINE",
"456 600 LINE",
"504 600 LINE",
"504 504 LINE",
"552 504 LINE",
"552 368 LINE",
"560 368 LINE",
"560 336 LINE"
);
},
{
closed = 1;
nodes = (
"96 528 LINE",
"80 528 LINE",
"80 552 LINE",
"96 552 LINE"
);
},
{
closed = 1;
nodes = (
"144 400 LINE",
"112 400 LINE",
"112 416 LINE",
"120 416 LINE",
"120 408 LINE",
"160 408 LINE",
"160 288 LINE",
"168 288 LINE",
"168 272 LINE",
"144 272 LINE"
);
},
{
closed = 1;
nodes = (
"400 400 LINE",
"408 400 LINE",
"408 408 LINE",
"456 408 LINE",
"456 312 LINE",
"432 312 LINE",
"432 400 LINE",
"408 400 LINE",
"408 272 LINE",
"400 272 LINE"
);
},
{
closed = 1;
nodes = (
"504 304 LINE",
"528 304 LINE",
"528 272 LINE",
"504 272 LINE"
);
},
{
closed = 1;
nodes = (
"216 264 LINE",
"216 72 LINE",
"224 72 LINE",
"224 48 LINE",
"208 48 LINE",
"208 240 LINE",
"176 240 LINE",
"176 264 LINE"
);
},
{
closed = 1;
nodes = (
"304 224 LINE",
"304 240 LINE",
"336 240 LINE",
"336 224 LINE"
);
},
{
closed = 1;
nodes = (
"496 144 LINE",
"304 144 LINE",
"304 160 LINE",
"480 160 LINE",
"480 168 LINE",
"496 168 LINE",
"496 176 LINE",
"480 176 LINE",
"480 216 LINE",
"352 216 LINE",
"352 224 LINE",
"480 224 LINE",
"480 216 LINE",
"504 216 LINE",
"504 168 LINE",
"496 168 LINE"
);
}
);
width = 726;
}
);
unicode = 0056;
userData = {
com.typemytype.robofont.guides = (
{
angle = 0;
isGlobal = 0;
magnetic = 5;
x = 0;
y = 24;
}
);
};
},
{
color = 1;
glyphname = W;
layers = (
{
anchors = (
{
name = bottom;
position = "{428, 0}";
},
{
name = top;
position = "{428, 700}";
}
);
layerId = "EC64484B-0978-4CB1-9EE9-C40A2D8C4059";
paths = (
{
closed = 1;
nodes = (
"600 700 LINE",
"550 650 LINE",
"550 350 LINE",
"500 400 LINE",
"500 500 LINE",
"300 500 LINE",
"300 350 LINE",
"250 400 LINE",
"250 650 LINE",
"200 700 LINE",
"0 700 LINE",
"0 500 LINE",
"50 450 LINE",
"50 150 LINE",
"100 100 LINE",
"100 0 LINE",
"300 0 LINE",
"350 50 LINE",
"350 150 LINE",
"450 150 LINE",
"450 50 LINE",
"500 0 LINE",
"700 0 LINE",
"700 50 LINE",
"750 100 LINE",
"750 400 LINE",
"800 450 LINE",
"800 700 LINE"
);
},
{
closed = 1;
nodes = (
"288 108 LINE",
"300 108 LINE",
"300 84 LINE",
"180 84 LINE",
"180 96 LINE",
"160 96 LINE",
"160 204 LINE",
"156 204 LINE",
"156 224 LINE",
"108 224 LINE",
"108 204 LINE",
"132 204 LINE",
"132 180 LINE",
"156 180 LINE",
"156 60 LINE",
"276 60 LINE",
"276 36 LINE",
"132 36 LINE",
"132 156 LINE",
"108 156 LINE",
"108 180 LINE",
"84 180 LINE",
"84 492 LINE",
"60 492 LINE",
"60 516 LINE",
"36 516 LINE",
"36 660 LINE",
"60 660 LINE",
"60 540 LINE",
"84 540 LINE",
"84 516 LINE",
"96 516 LINE",
"96 544 LINE",
"108 544 LINE",
"108 564 LINE",
"84 564 LINE",
"84 660 LINE",
"108 660 LINE",
"108 588 LINE",
"132 588 LINE",
"132 564 LINE",
"156 564 LINE",
"156 544 LINE",
"160 544 LINE",
"160 252 LINE",
"180 252 LINE",
"180 228 LINE",
"204 228 LINE",
"204 224 LINE",
"224 224 LINE",
"224 160 LINE",
"228 160 LINE",
"228 252 LINE",
"204 252 LINE",
"204 276 LINE",
"180 276 LINE",
"180 588 LINE",
"156 588 LINE",
"156 612 LINE",
"132 612 LINE",
"132 660 LINE",
"156 660 LINE",
"156 636 LINE",
"180 636 LINE",
"180 612 LINE",
"204 612 LINE",
"204 300 LINE",
"228 300 LINE",
"228 276 LINE",
"252 276 LINE",
"252 160 LINE",
"288 160 LINE",
"288 156 LINE",
"300 156 LINE",
"300 132 LINE",
"288 132 LINE"
);
},
{
closed = 1;
nodes = (
"660 180 LINE",
"660 204 LINE",
"636 204 LINE",
"636 224 LINE",
"612 224 LINE",
"612 180 LINE",
"636 180 LINE",
"636 160 LINE",
"672 160 LINE",
"672 156 LINE",
"708 156 LINE",
"708 132 LINE",
"672 132 LINE",
"672 108 LINE",
"684 108 LINE",
"684 84 LINE",
"564 84 LINE",
"564 108 LINE",
"540 108 LINE",
"540 224 LINE",
"516 224 LINE",
"516 84 LINE",
"540 84 LINE",
"540 60 LINE",
"660 60 LINE",
"660 36 LINE",
"516 36 LINE",
"516 60 LINE",
"492 60 LINE",
"492 204 LINE",
"324 204 LINE",
"324 276 LINE",
"348 276 LINE",
"348 228 LINE",
"352 228 LINE",
"352 288 LINE",
"372 288 LINE",
"372 300 LINE",
"348 300 LINE",
"348 468 LINE",
"372 468 LINE",
"372 324 LINE",
"396 324 LINE",
"396 288 LINE",
"544 288 LINE",
"544 276 LINE",
"564 276 LINE",
"564 132 LINE",
"588 132 LINE",
"588 108 LINE",
"608 108 LINE",
"608 156 LINE",
"588 156 LINE",
"588 636 LINE",
"612 636 LINE",
"612 608 LINE",
"636 608 LINE",
"636 660 LINE",
"660 660 LINE",
"660 608 LINE",
"672 608 LINE",
"672 228 LINE",
"684 228 LINE",
"684 204 LINE",
"708 204 LINE",
"708 180 LINE"
);
},
{
closed = 1;
nodes = (
"708 252 LINE",
"684 252 LINE",
"684 660 LINE",
"708 660 LINE"
);
},
{
closed = 1;
nodes = (
"756 468 LINE",
"732 468 LINE",
"732 660 LINE",
"756 660 LINE"
);
},
{
closed = 1;
nodes = (
"612 608 LINE",
"608 608 LINE",
"608 224 LINE",
"612 224 LINE"
);
},
{
closed = 1;
nodes = (
"660 228 LINE",
"660 608 LINE",
"636 608 LINE",
"636 224 LINE",
"672 224 LINE",
"672 228 LINE"
);
},
{
closed = 1;
nodes = (
"156 544 LINE",
"108 544 LINE",
"108 540 LINE",
"132 540 LINE",
"132 228 LINE",
"156 228 LINE",
"156 224 LINE",
"160 224 LINE",
"160 252 LINE",
"156 252 LINE"
);
},
{
closed = 1;
nodes = (
"108 516 LINE",
"96 516 LINE",
"96 224 LINE",
"108 224 LINE"
);
},
{
closed = 1;
nodes = (
"396 468 LINE",
"420 468 LINE",
"420 372 LINE",
"444 372 LINE",
"444 324 LINE",
"516 324 LINE",
"516 300 LINE",
"420 300 LINE",
"420 348 LINE",
"396 348 LINE"
);
},
{
closed = 1;
nodes = (
"444 468 LINE",
"468 468 LINE",
"468 396 LINE",
"444 396 LINE"
);
},
{
closed = 1;
nodes = (
"300 180 LINE",
"276 180 LINE",
"276 300 LINE",
"252 300 LINE",
"252 324 LINE",
"228 324 LINE",
"228 348 LINE",
"252 348 LINE",
"252 324 LINE",
"276 324 LINE",
"276 300 LINE",
"300 300 LINE"
);
},
{
closed = 1;
nodes = (
"396 276 LINE",
"396 288 LINE",
"372 288 LINE",
"372 252 LINE",
"540 252 LINE",
"540 224 LINE",
"544 224 LINE",
"544 276 LINE"
);
},
{
closed = 1;
nodes = (
"352 228 LINE",
"352 224 LINE",
"516 224 LINE",
"516 228 LINE"
);
},
{
closed = 1;
nodes = (
"204 108 LINE",
"204 224 LINE",
"160 224 LINE",
"160 204 LINE",
"180 204 LINE",
"180 96 LINE",
"288 96 LINE",
"288 108 LINE"
);
},
{
closed = 1;
nodes = (
"252 160 LINE",
"228 160 LINE",
"228 132 LINE",
"288 132 LINE",
"288 156 LINE",
"252 156 LINE"
);
},
{
closed = 1;
nodes = (
"612 156 LINE",
"612 132 LINE",
"672 132 LINE",
"672 156 LINE",
"636 156 LINE",
"636 160 LINE",
"608 160 LINE",
"608 156 LINE"
);
},
{
closed = 1;
nodes = (
"608 108 LINE",
"608 96 LINE",
"672 96 LINE",
"672 108 LINE"
);
}
);
width = 856;
}
);
leftKerningGroup = W;
rightKerningGroup = W;
unicode = 0057;
userData = {
com.typemytype.robofont.guides = (
{
angle = 0;
isGlobal = 0;
magnetic = 5;
x = 0;
y = 545;
},
{
angle = 0;
isGlobal = 0;
magnetic = 5;
x = 0;
y = 670;
},
{
angle = 0;
isGlobal = 0;
magnetic = 5;
x = 0;
y = 24;
}
);
};
},
{
color = 1;
glyphname = X;
layers = (
{
hints = (
{
horizontal = 1;
place = "{-2147483648, 0}";
type = Tag;
name = hr00;
}
);
layerId = "EC64484B-0978-4CB1-9EE9-C40A2D8C4059";
paths = (
{
closed = 1;
nodes = (
"600 200 LINE",
"500 300 LINE",
"500 350 LINE",
"550 400 LINE",
"550 450 LINE",
"600 500 LINE",
"600 550 LINE",
"650 550 LINE",
"650 600 LINE",
"700 650 LINE",
"650 700 LINE",
"450 700 LINE",
"400 650 LINE",
"400 600 LINE",
"350 550 LINE",
"300 550 LINE",
"300 650 LINE",
"250 700 LINE",
"0 700 LINE",
"0 600 LINE",
"100 500 LINE",
"100 450 LINE",
"150 400 LINE",
"150 350 LINE",
"200 350 LINE",
"150 300 LINE",
"150 250 LINE",
"100 200 LINE",
"100 150 LINE",
"50 150 LINE",
"50 100 LINE",
"0 50 LINE",
"0 0 LINE",
"250 0 LINE",
"300 50 LINE",
"300 100 LINE",
"350 150 LINE",
"350 100 LINE",
"450 0 LINE",
"700 0 LINE",
"700 50 LINE",
"650 100 LINE",
"650 150 LINE",
"600 150 LINE"
);
},
{
closed = 1;
nodes = (
"168 528 LINE",
"144 528 LINE",
"144 540 LINE",
"108 540 LINE",
"108 600 LINE",
"72 600 LINE",
"72 648 LINE",
"168 648 LINE",
"168 624 LINE",
"240 624 LINE",
"240 528 LINE",
"216 528 LINE",
"216 504 LINE",
"264 504 LINE",
"264 468 LINE",
"324 468 LINE",
"324 456 LINE",
"360 456 LINE",
"360 408 LINE",
"456 408 LINE",
"456 360 LINE",
"312 360 LINE",
"312 396 LINE",
"252 396 LINE",
"252 408 LINE",
"216 408 LINE",
"216 456 LINE",
"168 456 LINE"
);
},
{
closed = 1;
nodes = (
"552 648 LINE",
"552 552 LINE",
"504 552 LINE",
"504 600 LINE",
"456 600 LINE",
"456 648 LINE"
);
},
{
closed = 1;
nodes = (
"180 600 LINE",
"180 612 LINE",
"168 612 LINE",
"168 624 LINE",
"144 624 LINE",
"144 612 LINE",
"108 612 LINE",
"108 600 LINE",
"120 600 LINE",
"120 552 LINE",
"144 552 LINE",
"144 540 LINE",
"168 540 LINE",
"168 528 LINE",
"216 528 LINE",
"216 600 LINE"
);
},
{
closed = 1;
nodes = (
"408 552 LINE",
"456 552 LINE",
"456 540 LINE",
"468 540 LINE",
"468 504 LINE",
"504 504 LINE",
"504 456 LINE",
"408 456 LINE",
"408 468 LINE",
"396 468 LINE",
"396 540 LINE",
"408 540 LINE"
);
},
{
closed = 1;
nodes = (
"468 504 LINE",
"456 504 LINE",
"456 540 LINE",
"408 540 LINE",
"408 468 LINE",
"468 468 LINE"
);
},
{
closed = 1;
nodes = (
"312 408 LINE",
"312 396 LINE",
"324 396 LINE",
"324 456 LINE",
"264 456 LINE",
"264 468 LINE",
"252 468 LINE",
"252 408 LINE"
);
},
{
closed = 1;
nodes = (
"468 36 LINE",
"468 72 LINE",
"456 72 LINE",
"456 108 LINE",
"396 108 LINE",
"396 240 LINE",
"240 240 LINE",
"240 264 LINE",
"216 264 LINE",
"216 312 LINE",
"240 312 LINE",
"240 336 LINE",
"432 336 LINE",
"432 324 LINE",
"468 324 LINE",
"468 168 LINE",
"504 168 LINE",
"504 120 LINE",
"600 120 LINE",
"600 108 LINE",
"612 108 LINE",
"612 36 LINE"
);
},
{
closed = 1;
nodes = (
"456 312 LINE",
"432 312 LINE",
"432 324 LINE",
"252 324 LINE",
"252 312 LINE",
"240 312 LINE",
"240 264 LINE",
"252 264 LINE",
"252 252 LINE",
"396 252 LINE",
"396 240 LINE",
"408 240 LINE",
"408 120 LINE",
"456 120 LINE",
"456 108 LINE",
"468 108 LINE",
"468 168 LINE",
"456 168 LINE"
);
},
{
closed = 1;
nodes = (
"168 168 LINE",
"168 216 LINE",
"312 216 LINE",
"312 168 LINE"
);
},
{
closed = 1;
nodes = (
"240 48 LINE",
"180 48 LINE",
"180 36 LINE",
"108 36 LINE",
"108 108 LINE",
"120 108 LINE",
"120 120 LINE",
"144 120 LINE",
"144 144 LINE",
"240 144 LINE",
"240 120 LINE",
"264 120 LINE",
"264 72 LINE",
"240 72 LINE"
);
},
{
closed = 1;
nodes = (
"144 120 LINE",
"144 108 LINE",
"120 108 LINE",
"120 72 LINE",
"144 72 LINE",
"144 48 LINE",
"180 48 LINE",
"180 72 LINE",
"240 72 LINE",
"240 120 LINE"
);
},
{
closed = 1;
nodes = (
"600 108 LINE",
"468 108 LINE",
"468 72 LINE",
"600 72 LINE"
);
}
);
width = 739;
}
);
unicode = 0058;
userData = {
com.typemytype.robofont.guides = (
{
angle = 0;
isGlobal = 0;
magnetic = 5;
x = 0;
y = 350;
},
{
angle = 90;
isGlobal = 0;
magnetic = 5;
x = 28;
y = 0;
},
{
angle = 90;
isGlobal = 0;
magnetic = 5;
x = 580;
y = 0;
}
);
};
},
{
color = 1;
glyphname = Y;
layers = (
{
anchors = (
{
name = bottom;
position = "{355, 0}";
},
{
name = top;
position = "{355, 700}";
},
{
name = topleft;
position = "{20, 700}";
}
);
layerId = "EC64484B-0978-4CB1-9EE9-C40A2D8C4059";
paths = (
{
closed = 1;
nodes = (
"450 700 LINE",
"450 650 LINE",
"400 600 LINE",
"400 550 LINE",
"350 550 LINE",
"350 450 LINE",
"300 500 LINE",
"300 550 LINE",
"250 550 LINE",
"250 650 LINE",
"200 700 LINE",
"0 700 LINE",
"0 600 LINE",
"50 550 LINE",
"50 450 LINE",
"150 350 LINE",
"150 300 LINE",
"200 250 LINE",
"200 0 LINE",
"450 0 LINE",
"450 200 LINE",
"500 250 LINE",
"500 350 LINE",
"600 450 LINE",
"600 500 LINE",
"650 550 LINE",
"650 600 LINE",
"700 650 LINE",
"650 700 LINE"
);
},
{
closed = 1;
nodes = (
"240 48 LINE",
"240 304 LINE",
"208 304 LINE",
"208 368 LINE",
"176 368 LINE",
"176 400 LINE",
"144 400 LINE",
"144 432 LINE",
"112 432 LINE",
"112 592 LINE",
"80 592 LINE",
"80 624 LINE",
"48 624 LINE",
"48 656 LINE",
"112 656 LINE",
"112 624 LINE",
"144 624 LINE",
"144 464 LINE",
"176 464 LINE",
"176 432 LINE",
"208 432 LINE",
"208 400 LINE",
"240 400 LINE",
"240 336 LINE",
"272 336 LINE",
"272 80 LINE",
"300 80 LINE",
"300 60 LINE",
"400 60 LINE",
"400 48 LINE"
);
},
{
closed = 1;
nodes = (
"560 528 LINE",
"528 528 LINE",
"528 496 LINE",
"496 496 LINE",
"496 528 LINE",
"464 528 LINE",
"464 464 LINE",
"496 464 LINE",
"496 432 LINE",
"464 432 LINE",
"464 272 LINE",
"432 272 LINE",
"432 240 LINE",
"420 240 LINE",
"420 300 LINE",
"400 300 LINE",
"400 336 LINE",
"368 336 LINE",
"368 300 LINE",
"304 300 LINE",
"304 368 LINE",
"272 368 LINE",
"272 432 LINE",
"240 432 LINE",
"240 464 LINE",
"208 464 LINE",
"208 496 LINE",
"176 496 LINE",
"176 624 LINE",
"208 624 LINE",
"208 496 LINE",
"240 496 LINE",
"240 464 LINE",
"272 464 LINE",
"272 432 LINE",
"304 432 LINE",
"304 400 LINE",
"336 400 LINE",
"336 336 LINE",
"368 336 LINE",
"368 368 LINE",
"400 368 LINE",
"400 336 LINE",
"432 336 LINE",
"432 400 LINE",
"400 400 LINE",
"400 496 LINE",
"432 496 LINE",
"432 560 LINE",
"496 560 LINE",
"496 528 LINE",
"528 528 LINE",
"528 592 LINE",
"496 592 LINE",
"496 656 LINE",
"528 656 LINE",
"528 624 LINE",
"560 624 LINE"
);
},
{
closed = 1;
nodes = (
"592 656 LINE",
"624 656 LINE",
"624 624 LINE",
"592 624 LINE"
);
}
);
width = 710;
}
);
leftKerningGroup = Y;
rightKerningGroup = Y;
unicode = 0059;
userData = {
com.typemytype.robofont.guides = (
{
angle = 90;
isGlobal = 0;
magnetic = 5;
x = 310;
y = 0;
}
);
};
},
{
color = 1;
glyphname = Z;
layers = (
{
anchors = (
{
name = bottom;
position = "{347, 0}";
},
{
name = top;
position = "{337, 700}";
}
);
layerId = "EC64484B-0978-4CB1-9EE9-C40A2D8C4059";
paths = (
{
closed = 1;
nodes = (
"400 200 LINE",
"400 250 LINE",
"600 450 LINE",
"600 700 LINE",
"50 700 LINE",
"0 650 LINE",
"0 500 LINE",
"50 450 LINE",
"250 450 LINE",
"250 400 LINE",
"200 400 LINE",
"200 350 LINE",
"150 300 LINE",
"100 300 LINE",
"100 250 LINE",
"0 150 LINE",
"0 0 LINE",
"650 0 LINE",
"650 150 LINE",
"600 200 LINE"
);
},
{
closed = 1;
nodes = (
"60 492 LINE",
"60 516 LINE",
"36 516 LINE",
"36 636 LINE",
"60 636 LINE",
"60 624 LINE",
"72 624 LINE",
"72 648 LINE",
"84 648 LINE",
"84 660 LINE",
"108 660 LINE",
"108 648 LINE",
"120 648 LINE",
"120 624 LINE",
"132 624 LINE",
"132 660 LINE",
"156 660 LINE",
"156 636 LINE",
"180 636 LINE",
"180 612 LINE",
"444 612 LINE",
"444 600 LINE",
"456 600 LINE",
"456 564 LINE",
"468 564 LINE",
"468 552 LINE",
"504 552 LINE",
"504 528 LINE",
"516 528 LINE",
"516 564 LINE",
"492 564 LINE",
"492 588 LINE",
"468 588 LINE",
"468 636 LINE",
"204 636 LINE",
"204 660 LINE",
"492 660 LINE",
"492 612 LINE",
"516 612 LINE",
"516 588 LINE",
"540 588 LINE",
"540 540 LINE",
"564 540 LINE",
"564 516 LINE",
"528 516 LINE",
"528 504 LINE",
"552 504 LINE",
"552 492 LINE",
"564 492 LINE",
"564 468 LINE",
"552 468 LINE",
"552 456 LINE",
"528 456 LINE",
"528 432 LINE",
"516 432 LINE",
"516 420 LINE",
"456 420 LINE",
"456 396 LINE",
"468 396 LINE",
"468 372 LINE",
"456 372 LINE",
"456 360 LINE",
"408 360 LINE",
"408 372 LINE",
"372 372 LINE",
"372 408 LINE",
"360 408 LINE",
"360 420 LINE",
"348 420 LINE",
"348 444 LINE",
"324 444 LINE",
"324 456 LINE",
"312 456 LINE",
"312 492 LINE"
);
},
{
closed = 1;
nodes = (
"564 660 LINE",
"564 612 LINE",
"540 612 LINE",
"540 636 LINE",
"516 636 LINE",
"516 660 LINE"
);
},
{
closed = 1;
nodes = (
"108 540 LINE",
"144 540 LINE",
"144 564 LINE",
"132 564 LINE",
"132 588 LINE",
"120 588 LINE",
"120 624 LINE",
"108 624 LINE",
"108 648 LINE",
"84 648 LINE",
"84 624 LINE",
"72 624 LINE",
"72 552 LINE",
"108 552 LINE"
);
},
{
closed = 1;
nodes = (
"84 540 LINE",
"60 540 LINE",
"60 624 LINE",
"48 624 LINE",
"48 528 LINE",
"84 528 LINE"
);
},
{
closed = 1;
nodes = (
"132 624 LINE",
"132 612 LINE",
"144 612 LINE",
"144 624 LINE"
);
},
{
closed = 1;
nodes = (
"396 564 LINE",
"396 516 LINE",
"420 516 LINE",
"420 492 LINE",
"432 492 LINE",
"432 528 LINE",
"444 528 LINE",
"444 540 LINE",
"420 540 LINE",
"420 552 LINE",
"408 552 LINE",
"408 588 LINE",
"156 588 LINE",
"156 612 LINE",
"144 612 LINE",
"144 564 LINE"
);
},
{
closed = 1;
nodes = (
"420 588 LINE",
"420 552 LINE",
"456 552 LINE",
"456 564 LINE",
"444 564 LINE",
"444 600 LINE",
"408 600 LINE",
"408 588 LINE"
);
},
{
closed = 1;
nodes = (
"444 516 LINE",
"456 516 LINE",
"456 504 LINE",
"468 504 LINE",
"468 468 LINE",
"504 468 LINE",
"504 456 LINE",
"528 456 LINE",
"528 468 LINE",
"552 468 LINE",
"552 492 LINE",
"528 492 LINE",
"528 504 LINE",
"504 504 LINE",
"504 492 LINE",
"492 492 LINE",
"492 504 LINE",
"504 504 LINE",
"504 528 LINE",
"492 528 LINE",
"492 540 LINE",
"468 540 LINE",
"468 552 LINE",
"456 552 LINE",
"456 528 LINE",
"444 528 LINE"
);
},
{
closed = 1;
nodes = (
"372 456 LINE",
"420 456 LINE",
"420 468 LINE",
"396 468 LINE",
"396 492 LINE",
"372 492 LINE",
"372 540 LINE",
"144 540 LINE",
"144 528 LINE",
"84 528 LINE",
"84 516 LINE",
"348 516 LINE",
"348 504 LINE",
"360 504 LINE",
"360 468 LINE",
"372 468 LINE"
);
},
{
closed = 1;
nodes = (
"516 528 LINE",
"516 516 LINE",
"528 516 LINE",
"528 528 LINE"
);
},
{
closed = 1;
nodes = (
"348 468 LINE",
"348 504 LINE",
"312 504 LINE",
"312 492 LINE",
"324 492 LINE",
"324 456 LINE",
"360 456 LINE",
"360 468 LINE"
);
},
{
closed = 1;
nodes = (
"456 444 LINE",
"456 456 LINE",
"444 456 LINE",
"444 492 LINE",
"432 492 LINE",
"432 456 LINE",
"420 456 LINE",
"420 420 LINE",
"456 420 LINE",
"456 432 LINE",
"516 432 LINE",
"516 444 LINE"
);
},
{
closed = 1;
nodes = (
"372 444 LINE",
"372 456 LINE",
"360 456 LINE",
"360 420 LINE",
"372 420 LINE",
"372 408 LINE",
"396 408 LINE",
"396 444 LINE"
);
},
{
closed = 1;
nodes = (
"180 276 LINE",
"204 276 LINE",
"204 264 LINE",
"228 264 LINE",
"228 324 LINE",
"240 324 LINE",
"240 336 LINE",
"264 336 LINE",
"264 360 LINE",
"312 360 LINE",
"312 336 LINE",
"324 336 LINE",
"324 372 LINE",
"300 372 LINE",
"300 420 LINE",
"324 420 LINE",
"324 396 LINE",
"348 396 LINE",
"348 348 LINE",
"420 348 LINE",
"420 324 LINE",
"336 324 LINE",
"336 300 LINE",
"372 300 LINE",
"372 276 LINE",
"336 276 LINE",
"336 252 LINE",
"348 252 LINE",
"348 228 LINE",
"312 228 LINE",
"312 216 LINE",
"204 216 LINE",
"204 204 LINE",
"348 204 LINE",
"348 180 LINE",
"180 180 LINE",
"180 216 LINE",
"168 216 LINE",
"168 264 LINE",
"180 264 LINE"
);
},
{
closed = 1;
nodes = (
"396 408 LINE",
"396 396 LINE",
"408 396 LINE",
"408 408 LINE"
);
},
{
closed = 1;
nodes = (
"408 372 LINE",
"456 372 LINE",
"456 396 LINE",
"408 396 LINE"
);
},
{
closed = 1;
nodes = (
"276 276 LINE",
"336 276 LINE",
"336 300 LINE",
"300 300 LINE",
"300 312 LINE",
"312 312 LINE",
"312 336 LINE",
"300 336 LINE",
"300 348 LINE",
"276 348 LINE",
"276 336 LINE",
"264 336 LINE",
"264 312 LINE",
"276 312 LINE"
);
},
{
closed = 1;
nodes = (
"324 336 LINE",
"324 324 LINE",
"336 324 LINE",
"336 336 LINE"
);
},
{
closed = 1;
nodes = (
"312 228 LINE",
"312 240 LINE",
"336 240 LINE",
"336 252 LINE",
"312 252 LINE",
"312 264 LINE",
"252 264 LINE",
"252 324 LINE",
"240 324 LINE",
"240 264 LINE",
"228 264 LINE",
"228 228 LINE"
);
},
{
closed = 1;
nodes = (
"204 216 LINE",
"204 264 LINE",
"180 264 LINE",
"180 216 LINE"
);
},
{
closed = 1;
nodes = (
"600 72 LINE",
"528 72 LINE",
"528 60 LINE",
"612 60 LINE",
"612 36 LINE",
"36 36 LINE",
"36 132 LINE",
"48 132 LINE",
"48 144 LINE",
"72 144 LINE",
"72 168 LINE",
"84 168 LINE",
"84 180 LINE",
"108 180 LINE",
"108 168 LINE",
"120 168 LINE",
"120 144 LINE",
"132 144 LINE",
"132 252 LINE",
"156 252 LINE",
"156 156 LINE",
"588 156 LINE",
"588 132 LINE",
"528 132 LINE",
"528 120 LINE",
"600 120 LINE",
"600 108 LINE",
"612 108 LINE",
"612 84 LINE",
"600 84 LINE"
);
},
{
closed = 1;
nodes = (
"528 108 LINE",
"528 120 LINE",
"120 120 LINE",
"120 144 LINE",
"108 144 LINE",
"108 168 LINE",
"84 168 LINE",
"84 144 LINE",
"72 144 LINE",
"72 72 LINE",
"528 72 LINE",
"528 84 LINE",
"600 84 LINE",
"600 108 LINE"
);
},
{
closed = 1;
nodes = (
"528 132 LINE",
"528 144 LINE",
"132 144 LINE",
"132 132 LINE"
);
},
{
closed = 1;
nodes = (
"60 60 LINE",
"60 132 LINE",
"48 132 LINE",
"48 48 LINE",
"528 48 LINE",
"528 60 LINE"
);
}
);
width = 693;
}
);
leftKerningGroup = Z;
rightKerningGroup = Z;
unicode = 005A;
userData = {
com.typemytype.robofont.guides = (
{
angle = 0;
isGlobal = 0;
magnetic = 5;
x = 0;
y = 51;
},
{
angle = 0;
isGlobal = 0;
magnetic = 5;
x = 0;
y = 9;
},
{
angle = 0;
isGlobal = 0;
magnetic = 5;
x = 0;
y = 691;
},
{
angle = 0;
isGlobal = 0;
magnetic = 5;
x = 0;
y = 649;
},
{
angle = 90;
isGlobal = 0;
magnetic = 5;
x = 189;
y = 0;
},
{
angle = 90;
isGlobal = 0;
magnetic = 5;
x = 815;
y = 0;
},
{
angle = 90;
isGlobal = 0;
magnetic = 5;
x = 732;
y = 0;
},
{
angle = 90;
isGlobal = 0;
magnetic = 5;
x = "-431";
y = 0;
},
{
angle = 90;
isGlobal = 0;
magnetic = 5;
x = 74;
y = 0;
},
{
angle = 90;
isGlobal = 0;
magnetic = 5;
x = 541;
y = 0;
}
);
};
},
{
color = 1;
glyphname = a;
layers = (
{
hints = (
{
horizontal = 1;
place = "{-2147483648, 0}";
type = Tag;
name = hr01;
},
{
horizontal = 1;
place = "{-2147483648, 0}";
type = Tag;
name = hr02;
}
);
layerId = "EC64484B-0978-4CB1-9EE9-C40A2D8C4059";
paths = (
{
closed = 1;
nodes = (
"400 500 LINE",
"200 500 LINE",
"150 450 LINE",
"100 450 LINE",
"50 400 LINE",
"50 350 LINE",
"300 350 LINE",
"300 300 LINE",
"150 300 LINE",
"100 250 LINE",
"50 250 LINE",
"50 200 LINE",
"0 150 LINE",
"0 50 LINE",
"50 0 LINE",
"300 0 LINE",
"350 50 LINE",
"350 0 LINE",
"550 0 LINE",
"550 400 LINE",
"500 450 LINE",
"450 450 LINE"
);
},
{
closed = 1;
nodes = (
"396 444 LINE",
"396 432 LINE",
"180 432 LINE",
"180 444 LINE"
);
},
{
closed = 1;
nodes = (
"444 420 LINE",
"444 400 LINE",
"432 400 LINE",
"432 372 LINE",
"420 372 LINE",
"420 420 LINE"
);
},
{
closed = 1;
nodes = (
"84 372 LINE",
"84 396 LINE",
"348 396 LINE",
"348 304 LINE",
"336 304 LINE",
"336 276 LINE",
"324 276 LINE",
"324 372 LINE"
);
},
{
closed = 1;
nodes = (
"444 252 LINE",
"492 252 LINE",
"492 240 LINE",
"464 240 LINE",
"464 228 LINE",
"420 228 LINE",
"420 324 LINE",
"372 324 LINE",
"372 336 LINE",
"400 336 LINE",
"400 348 LINE",
"444 348 LINE"
);
},
{
closed = 1;
nodes = (
"180 272 LINE",
"180 276 LINE",
"204 276 LINE",
"204 272 LINE"
);
},
{
closed = 1;
nodes = (
"324 228 LINE",
"228 228 LINE",
"228 276 LINE",
"252 276 LINE",
"252 252 LINE",
"348 252 LINE",
"348 156 LINE",
"396 156 LINE",
"396 144 LINE",
"368 144 LINE",
"368 132 LINE",
"324 132 LINE"
);
},
{
closed = 1;
nodes = (
"132 252 LINE",
"156 252 LINE",
"156 156 LINE",
"132 156 LINE"
);
},
{
closed = 1;
nodes = (
"84 208 LINE",
"84 228 LINE",
"108 228 LINE",
"108 208 LINE"
);
},
{
closed = 1;
nodes = (
"204 204 LINE",
"180 204 LINE",
"180 208 LINE",
"204 208 LINE"
);
},
{
closed = 1;
nodes = (
"444 112 LINE",
"432 112 LINE",
"432 144 LINE",
"420 144 LINE",
"420 176 LINE",
"432 176 LINE",
"432 204 LINE",
"444 204 LINE"
);
},
{
closed = 1;
nodes = (
"300 200 LINE",
"300 150 LINE",
"250 100 LINE",
"200 150 LINE",
"250 200 LINE"
);
},
{
closed = 1;
nodes = (
"60 36 LINE",
"60 48 LINE",
"80 48 LINE",
"80 80 LINE",
"48 80 LINE",
"48 60 LINE",
"36 60 LINE",
"36 156 LINE",
"60 156 LINE",
"60 84 LINE",
"84 84 LINE",
"84 60 LINE",
"300 60 LINE",
"300 36 LINE"
);
},
{
closed = 1;
nodes = (
"468 132 LINE",
"468 144 LINE",
"496 144 LINE",
"496 156 LINE",
"516 156 LINE",
"516 132 LINE"
);
},
{
closed = 1;
nodes = (
"112 84 LINE",
"108 84 LINE",
"108 108 LINE",
"84 108 LINE",
"84 112 LINE",
"112 112 LINE",
"112 132 LINE",
"132 132 LINE",
"132 112 LINE",
"112 112 LINE"
);
},
{
closed = 1;
nodes = (
"372 36 LINE",
"372 112 LINE",
"396 112 LINE",
"396 60 LINE",
"516 60 LINE",
"516 36 LINE"
);
},
{
closed = 1;
nodes = (
"304 84 LINE",
"300 84 LINE",
"300 108 LINE",
"304 108 LINE"
);
},
{
closed = 1;
nodes = (
"336 108 LINE",
"348 108 LINE",
"348 84 LINE",
"336 84 LINE"
);
}
);
width = 622;
}
);
leftKerningGroup = a;
rightKerningGroup = a;
unicode = 0061;
},
{
color = 1;
glyphname = aogonek;
layers = (
{
hints = (
{
horizontal = 1;
place = "{-2147483648, 0}";
type = Tag;
name = hr01;
},
{
horizontal = 1;
place = "{-2147483648, 0}";
type = Tag;
name = hr02;
},
{
horizontal = 1;
place = "{-2147483648, 0}";
type = Tag;
name = hr03;
},
{
horizontal = 1;
place = "{-2147483648, 0}";
type = Tag;
name = hr04;
}
);
layerId = "EC64484B-0978-4CB1-9EE9-C40A2D8C4059";
paths = (
{
closed = 1;
nodes = (
"400 500 LINE",
"200 500 LINE",
"150 450 LINE",
"100 450 LINE",
"50 400 LINE",
"50 350 LINE",
"300 350 LINE",
"300 300 LINE",
"150 300 LINE",
"100 250 LINE",
"50 250 LINE",
"50 200 LINE",
"0 150 LINE",
"0 50 LINE",
"50 0 LINE",
"300 0 LINE",
"350 50 LINE",
"350 -150 LINE",
"400 -150 LINE",
"450 -200 LINE",
"550 -200 LINE",
"550 -50 LINE",
"500 -50 LINE",
"450 0 LINE",
"550 0 LINE",
"550 400 LINE",
"500 450 LINE",
"450 450 LINE"
);
},
{
closed = 1;
nodes = (
"480 24 LINE",
"416 24 LINE",
"416 64 LINE",
"408 64 LINE",
"408 112 LINE",
"360 112 LINE",
"360 152 LINE",
"352 152 LINE",
"352 400 LINE",
"216 400 LINE",
"216 448 LINE",
"408 448 LINE",
"408 408 LINE",
"416 408 LINE",
"416 160 LINE",
"456 160 LINE",
"456 112 LINE",
"504 112 LINE",
"504 64 LINE",
"480 64 LINE"
);
},
{
closed = 1;
nodes = (
"408 160 LINE",
"408 408 LINE",
"352 408 LINE",
"352 400 LINE",
"360 400 LINE",
"360 152 LINE",
"416 152 LINE",
"416 160 LINE"
);
},
{
closed = 1;
nodes = (
"504 208 LINE",
"456 208 LINE",
"456 400 LINE",
"504 400 LINE"
);
},
{
closed = 1;
nodes = (
"96 216 LINE",
"160 216 LINE",
"160 208 LINE",
"168 208 LINE",
"168 160 LINE",
"160 160 LINE",
"160 152 LINE",
"96 152 LINE",
"96 160 LINE",
"72 160 LINE",
"72 208 LINE",
"96 208 LINE"
);
},
{
closed = 1;
nodes = (
"160 208 LINE",
"96 208 LINE",
"96 160 LINE",
"160 160 LINE"
);
},
{
closed = 1;
nodes = (
"200 150 LINE",
"250 200 LINE",
"300 200 LINE",
"300 150 LINE",
"250 100 LINE"
);
},
{
closed = 1;
nodes = (
"96 24 LINE",
"96 64 LINE",
"24 64 LINE",
"24 112 LINE",
"168 112 LINE",
"168 88 LINE",
"224 88 LINE",
"224 24 LINE"
);
},
{
closed = 1;
nodes = (
"96 88 LINE",
"96 64 LINE",
"168 64 LINE",
"168 88 LINE"
);
},
{
closed = 1;
nodes = (
"480 64 LINE",
"480 88 LINE",
"416 88 LINE",
"416 64 LINE"
);
},
{
closed = 1;
nodes = (
"504 -176 LINE",
"456 -176 LINE",
"456 -128 LINE",
"408 -128 LINE",
"408 -80 LINE",
"504 -80 LINE"
);
}
);
width = 622;
}
);
leftKerningGroup = a;
rightKerningGroup = a;
unicode = 0105;
userData = {
com.typemytype.robofont.guides = (
{
angle = 0;
isGlobal = 0;
magnetic = 5;
x = 0;
y = 22;
},
{
angle = 0;
isGlobal = 0;
magnetic = 5;
x = 0;
y = "-220";
},
{
angle = 90;
isGlobal = 0;
magnetic = 5;
x = 472;
y = 0;
}
);
};
},
{
color = 1;
glyphname = ae;
layers = (
{
hints = (
{
horizontal = 1;
place = "{-2147483648, 0}";
type = Tag;
name = hr01;
},
{
horizontal = 1;
place = "{-2147483648, 0}";
type = Tag;
name = hr02;
},
{
horizontal = 1;
place = "{-2147483648, 0}";
type = Tag;
name = hr03;
}
);
layerId = "EC64484B-0978-4CB1-9EE9-C40A2D8C4059";
paths = (
{
closed = 1;
nodes = (
"800 450 LINE",
"750 450 LINE",
"700 500 LINE",
"500 500 LINE",
"450 450 LINE",
"400 500 LINE",
"200 500 LINE",
"150 450 LINE",
"100 450 LINE",
"50 400 LINE",
"50 350 LINE",
"300 350 LINE",
"300 300 LINE",
"150 300 LINE",
"100 250 LINE",
"50 250 LINE",
"50 200 LINE",
"0 150 LINE",
"0 50 LINE",
"50 0 LINE",
"350 0 LINE",
"400 50 LINE",
"450 0 LINE",
"750 0 LINE",
"800 50 LINE",
"850 50 LINE",
"850 150 LINE",
"650 150 LINE",
"600 100 LINE",
"550 150 LINE",
"550 200 LINE",
"900 200 LINE",
"900 300 LINE",
"850 350 LINE",
"850 400 LINE"
);
},
{
closed = 1;
nodes = (
"516 440 LINE",
"516 456 LINE",
"504 456 LINE",
"504 472 LINE",
"568 472 LINE",
"568 360 LINE",
"552 360 LINE",
"552 456 LINE",
"540 456 LINE",
"540 300 LINE",
"516 300 LINE",
"516 424 LINE",
"472 424 LINE",
"472 440 LINE"
);
},
{
closed = 1;
nodes = (
"584 472 LINE",
"600 472 LINE",
"600 408 LINE",
"612 408 LINE",
"612 392 LINE",
"616 392 LINE",
"616 376 LINE",
"632 376 LINE",
"632 372 LINE",
"636 372 LINE",
"636 392 LINE",
"632 392 LINE",
"632 396 LINE",
"636 396 LINE",
"636 392 LINE",
"648 392 LINE",
"648 376 LINE",
"664 376 LINE",
"664 360 LINE",
"680 360 LINE",
"680 348 LINE",
"684 348 LINE",
"684 344 LINE",
"680 344 LINE",
"680 348 LINE",
"660 348 LINE",
"660 344 LINE",
"664 344 LINE",
"664 328 LINE",
"680 328 LINE",
"680 324 LINE",
"684 324 LINE",
"684 312 LINE",
"696 312 LINE",
"696 300 LINE",
"708 300 LINE",
"708 324 LINE",
"712 324 LINE",
"712 312 LINE",
"856 312 LINE",
"856 296 LINE",
"696 296 LINE",
"696 300 LINE",
"684 300 LINE",
"684 312 LINE",
"680 312 LINE",
"680 324 LINE",
"660 324 LINE",
"660 344 LINE",
"648 344 LINE",
"648 348 LINE",
"636 348 LINE",
"636 360 LINE",
"632 360 LINE",
"632 372 LINE",
"612 372 LINE",
"612 392 LINE",
"584 392 LINE"
);
},
{
closed = 1;
nodes = (
"616 468 LINE",
"616 472 LINE",
"632 472 LINE",
"632 468 LINE"
);
},
{
closed = 1;
nodes = (
"696 472 LINE",
"696 456 LINE",
"712 456 LINE",
"712 440 LINE",
"728 440 LINE",
"728 424 LINE",
"744 424 LINE",
"744 408 LINE",
"760 408 LINE",
"760 392 LINE",
"776 392 LINE",
"776 376 LINE",
"824 376 LINE",
"824 360 LINE",
"760 360 LINE",
"760 376 LINE",
"756 376 LINE",
"756 396 LINE",
"728 396 LINE",
"728 408 LINE",
"712 408 LINE",
"712 424 LINE",
"696 424 LINE",
"696 440 LINE",
"684 440 LINE",
"684 468 LINE",
"648 468 LINE",
"648 472 LINE"
);
},
{
closed = 1;
nodes = (
"540 468 LINE",
"516 468 LINE",
"516 456 LINE",
"540 456 LINE"
);
},
{
closed = 1;
nodes = (
"408 456 LINE",
"408 396 LINE",
"392 396 LINE",
"392 440 LINE",
"200 440 LINE",
"200 456 LINE"
);
},
{
closed = 1;
nodes = (
"520 312 LINE",
"536 312 LINE",
"536 440 LINE",
"516 440 LINE",
"516 424 LINE",
"520 424 LINE"
);
},
{
closed = 1;
nodes = (
"376 424 LINE",
"376 396 LINE",
"360 396 LINE",
"360 408 LINE",
"104 408 LINE",
"104 424 LINE"
);
},
{
closed = 1;
nodes = (
"440 408 LINE",
"504 408 LINE",
"504 296 LINE",
"536 296 LINE",
"536 280 LINE",
"488 280 LINE",
"488 392 LINE",
"468 392 LINE",
"468 396 LINE",
"424 396 LINE",
"424 424 LINE",
"440 424 LINE"
);
},
{
closed = 1;
nodes = (
"792 408 LINE",
"808 408 LINE",
"808 392 LINE",
"792 392 LINE",
"792 408 LINE",
"776 408 LINE",
"776 424 LINE",
"792 424 LINE"
);
},
{
closed = 1;
nodes = (
"684 396 LINE",
"684 408 LINE",
"696 408 LINE",
"696 396 LINE",
"684 396 LINE",
"684 376 LINE",
"680 376 LINE",
"680 392 LINE",
"664 392 LINE",
"664 396 LINE"
);
},
{
closed = 1;
nodes = (
"84 372 LINE",
"84 376 LINE",
"72 376 LINE",
"72 392 LINE",
"84 392 LINE",
"84 396 LINE",
"324 396 LINE",
"324 392 LINE",
"84 392 LINE",
"84 376 LINE",
"324 376 LINE",
"324 372 LINE"
);
},
{
closed = 1;
nodes = (
"588 228 LINE",
"588 232 LINE",
"536 232 LINE",
"536 248 LINE",
"468 248 LINE",
"468 252 LINE",
"456 252 LINE",
"456 300 LINE",
"440 300 LINE",
"440 252 LINE",
"424 252 LINE",
"424 300 LINE",
"420 300 LINE",
"420 324 LINE",
"424 324 LINE",
"424 300 LINE",
"440 300 LINE",
"440 324 LINE",
"456 324 LINE",
"456 300 LINE",
"468 300 LINE",
"468 376 LINE",
"472 376 LINE",
"472 264 LINE",
"552 264 LINE",
"552 248 LINE",
"588 248 LINE",
"588 264 LINE",
"568 264 LINE",
"568 280 LINE",
"872 280 LINE",
"872 264 LINE",
"612 264 LINE",
"612 252 LINE",
"876 252 LINE",
"876 228 LINE"
);
},
{
closed = 1;
nodes = (
"660 348 LINE",
"660 372 LINE",
"636 372 LINE",
"636 360 LINE",
"648 360 LINE",
"648 348 LINE"
);
},
{
closed = 1;
nodes = (
"550 300 LINE",
"600 350 LINE",
"650 300 LINE"
);
},
{
closed = 1;
nodes = (
"824 328 LINE",
"824 344 LINE",
"756 344 LINE",
"756 348 LINE",
"828 348 LINE",
"828 324 LINE",
"756 324 LINE",
"756 328 LINE"
);
},
{
closed = 1;
nodes = (
"408 252 LINE",
"392 252 LINE",
"392 296 LINE",
"328 296 LINE",
"328 300 LINE",
"324 300 LINE",
"324 324 LINE",
"328 324 LINE",
"328 300 LINE",
"348 300 LINE",
"348 312 LINE",
"344 312 LINE",
"344 324 LINE",
"348 324 LINE",
"348 312 LINE",
"408 312 LINE"
);
},
{
closed = 1;
nodes = (
"184 276 LINE",
"184 280 LINE",
"200 280 LINE",
"200 276 LINE",
"204 276 LINE",
"204 232 LINE",
"216 232 LINE",
"216 200 LINE",
"200 200 LINE",
"200 216 LINE",
"184 216 LINE",
"184 228 LINE",
"180 228 LINE",
"180 276 LINE"
);
},
{
closed = 1;
nodes = (
"232 280 LINE",
"232 264 LINE",
"248 264 LINE",
"248 252 LINE",
"324 252 LINE",
"324 248 LINE",
"248 248 LINE",
"248 252 LINE",
"228 252 LINE",
"228 248 LINE",
"232 248 LINE",
"232 232 LINE",
"324 232 LINE",
"324 228 LINE",
"228 228 LINE",
"228 248 LINE",
"216 248 LINE",
"216 280 LINE"
);
},
{
closed = 1;
nodes = (
"376 280 LINE",
"376 252 LINE",
"360 252 LINE",
"360 264 LINE",
"264 264 LINE",
"264 280 LINE"
);
},
{
closed = 1;
nodes = (
"184 228 LINE",
"204 228 LINE",
"204 232 LINE",
"200 232 LINE",
"200 276 LINE",
"184 276 LINE"
);
},
{
closed = 1;
nodes = (
"588 276 LINE",
"588 264 LINE",
"612 264 LINE",
"612 276 LINE"
);
},
{
closed = 1;
nodes = (
"152 264 LINE",
"168 264 LINE",
"168 204 LINE",
"180 204 LINE",
"180 200 LINE",
"184 200 LINE",
"184 168 LINE",
"168 168 LINE",
"168 180 LINE",
"156 180 LINE",
"156 184 LINE",
"152 184 LINE"
);
},
{
closed = 1;
nodes = (
"872 232 LINE",
"872 248 LINE",
"588 248 LINE",
"588 232 LINE"
);
},
{
closed = 1;
nodes = (
"568 104 LINE",
"568 88 LINE",
"564 88 LINE",
"564 84 LINE",
"528 84 LINE",
"528 72 LINE",
"776 72 LINE",
"776 56 LINE",
"528 56 LINE",
"528 48 LINE",
"472 48 LINE",
"472 40 LINE",
"744 40 LINE",
"744 24 LINE",
"456 24 LINE",
"456 36 LINE",
"444 36 LINE",
"444 40 LINE",
"440 40 LINE",
"440 48 LINE",
"432 48 LINE",
"432 56 LINE",
"424 56 LINE",
"424 60 LINE",
"420 60 LINE",
"420 72 LINE",
"408 72 LINE",
"408 84 LINE",
"300 84 LINE",
"300 88 LINE",
"296 88 LINE",
"296 104 LINE",
"300 104 LINE",
"300 108 LINE",
"420 108 LINE",
"420 104 LINE",
"424 104 LINE",
"424 88 LINE",
"432 88 LINE",
"432 120 LINE",
"328 120 LINE",
"328 132 LINE",
"324 132 LINE",
"324 180 LINE",
"328 180 LINE",
"328 132 LINE",
"348 132 LINE",
"348 136 LINE",
"344 136 LINE",
"344 180 LINE",
"348 180 LINE",
"348 136 LINE",
"432 136 LINE",
"432 152 LINE",
"360 152 LINE",
"360 180 LINE",
"376 180 LINE",
"376 168 LINE",
"432 168 LINE",
"432 180 LINE",
"492 180 LINE",
"492 184 LINE",
"504 184 LINE",
"504 168 LINE",
"520 168 LINE",
"520 200 LINE",
"492 200 LINE",
"492 204 LINE",
"468 204 LINE",
"468 216 LINE",
"520 216 LINE",
"520 232 LINE",
"468 232 LINE",
"468 240 LINE",
"528 240 LINE",
"528 120 LINE",
"536 120 LINE",
"536 108 LINE",
"564 108 LINE",
"564 104 LINE"
);
},
{
closed = 1;
nodes = (
"120 232 LINE",
"136 232 LINE",
"136 168 LINE",
"152 168 LINE",
"152 156 LINE",
"156 156 LINE",
"156 152 LINE",
"168 152 LINE",
"168 136 LINE",
"184 136 LINE",
"184 120 LINE",
"152 120 LINE",
"152 132 LINE",
"132 132 LINE",
"132 152 LINE",
"120 152 LINE"
);
},
{
closed = 1;
nodes = (
"88 216 LINE",
"88 204 LINE",
"108 204 LINE",
"108 136 LINE",
"120 136 LINE",
"120 120 LINE",
"136 120 LINE",
"136 108 LINE",
"204 108 LINE",
"204 104 LINE",
"216 104 LINE",
"216 88 LINE",
"204 88 LINE",
"204 84 LINE",
"132 84 LINE",
"132 88 LINE",
"120 88 LINE",
"120 104 LINE",
"104 104 LINE",
"104 120 LINE",
"88 120 LINE",
"88 132 LINE",
"84 132 LINE",
"84 184 LINE",
"72 184 LINE",
"72 216 LINE"
);
},
{
closed = 1;
nodes = (
"88 132 LINE",
"108 132 LINE",
"108 136 LINE",
"104 136 LINE",
"104 200 LINE",
"88 200 LINE",
"88 204 LINE",
"84 204 LINE",
"84 184 LINE",
"88 184 LINE"
);
},
{
closed = 1;
nodes = (
"168 180 LINE",
"180 180 LINE",
"180 200 LINE",
"168 200 LINE",
"168 204 LINE",
"156 204 LINE",
"156 184 LINE",
"168 184 LINE"
);
},
{
closed = 1;
nodes = (
"250 100 LINE",
"200 150 LINE",
"250 200 LINE",
"300 200 LINE",
"300 150 LINE"
);
},
{
closed = 1;
nodes = (
"88 56 LINE",
"88 60 LINE",
"60 60 LINE",
"60 88 LINE",
"56 88 LINE",
"56 168 LINE",
"72 168 LINE",
"72 108 LINE",
"84 108 LINE",
"84 104 LINE",
"88 104 LINE",
"88 88 LINE",
"104 88 LINE",
"104 84 LINE",
"108 84 LINE",
"108 72 LINE",
"376 72 LINE",
"376 56 LINE"
);
},
{
closed = 1;
nodes = (
"528 108 LINE",
"528 120 LINE",
"520 120 LINE",
"520 136 LINE",
"504 136 LINE",
"504 152 LINE",
"492 152 LINE",
"492 156 LINE",
"488 156 LINE",
"488 168 LINE",
"432 168 LINE",
"432 152 LINE",
"468 152 LINE",
"468 132 LINE",
"488 132 LINE",
"488 120 LINE",
"504 120 LINE",
"504 104 LINE",
"516 104 LINE",
"516 84 LINE",
"528 84 LINE",
"528 88 LINE",
"564 88 LINE",
"564 104 LINE",
"536 104 LINE",
"536 108 LINE"
);
},
{
closed = 1;
nodes = (
"136 152 LINE",
"136 136 LINE",
"152 136 LINE",
"152 132 LINE",
"156 132 LINE",
"156 152 LINE",
"152 152 LINE",
"152 156 LINE",
"132 156 LINE",
"132 152 LINE"
);
},
{
closed = 1;
nodes = (
"56 24 LINE",
"56 40 LINE",
"40 40 LINE",
"40 56 LINE",
"24 56 LINE",
"24 136 LINE",
"40 136 LINE",
"40 72 LINE",
"56 72 LINE",
"56 56 LINE",
"72 56 LINE",
"72 40 LINE",
"344 40 LINE",
"344 24 LINE"
);
},
{
closed = 1;
nodes = (
"492 88 LINE",
"492 108 LINE",
"472 108 LINE",
"472 120 LINE",
"456 120 LINE",
"456 136 LINE",
"432 136 LINE",
"432 120 LINE",
"440 120 LINE",
"440 104 LINE",
"456 104 LINE",
"456 88 LINE",
"468 88 LINE",
"468 84 LINE",
"472 84 LINE",
"472 72 LINE",
"488 72 LINE",
"488 56 LINE",
"528 56 LINE",
"528 72 LINE",
"504 72 LINE",
"504 88 LINE"
);
},
{
closed = 1;
nodes = (
"104 72 LINE",
"104 84 LINE",
"84 84 LINE",
"84 104 LINE",
"72 104 LINE",
"72 108 LINE",
"60 108 LINE",
"60 88 LINE",
"72 88 LINE",
"72 72 LINE",
"88 72 LINE",
"88 60 LINE",
"108 60 LINE",
"108 72 LINE"
);
},
{
closed = 1;
nodes = (
"204 88 LINE",
"204 104 LINE",
"136 104 LINE",
"136 108 LINE",
"132 108 LINE",
"132 88 LINE"
);
},
{
closed = 1;
nodes = (
"636 108 LINE",
"804 108 LINE",
"804 104 LINE",
"808 104 LINE",
"808 88 LINE",
"824 88 LINE",
"824 72 LINE",
"792 72 LINE",
"792 84 LINE",
"636 84 LINE",
"636 88 LINE",
"632 88 LINE",
"632 104 LINE",
"636 104 LINE"
);
},
{
closed = 1;
nodes = (
"300 104 LINE",
"300 88 LINE",
"408 88 LINE",
"408 84 LINE",
"420 84 LINE",
"420 104 LINE"
);
},
{
closed = 1;
nodes = (
"792 88 LINE",
"792 84 LINE",
"804 84 LINE",
"804 104 LINE",
"636 104 LINE",
"636 88 LINE"
);
},
{
closed = 1;
nodes = (
"456 60 LINE",
"456 72 LINE",
"444 72 LINE",
"444 84 LINE",
"440 84 LINE",
"440 88 LINE",
"432 88 LINE",
"432 84 LINE",
"420 84 LINE",
"420 72 LINE",
"424 72 LINE",
"424 60 LINE",
"432 60 LINE",
"432 56 LINE",
"440 56 LINE",
"440 48 LINE",
"444 48 LINE",
"444 40 LINE",
"456 40 LINE",
"456 36 LINE",
"468 36 LINE",
"468 48 LINE",
"472 48 LINE",
"472 56 LINE",
"468 56 LINE",
"468 60 LINE"
);
}
);
width = 935;
}
);
leftKerningGroup = a;
rightKerningGroup = e;
unicode = 00E6;
userData = {
com.typemytype.robofont.guides = (
{
angle = 0;
isGlobal = 0;
magnetic = 5;
x = 0;
y = "-10";
},
{
angle = 0;
isGlobal = 0;
magnetic = 5;
x = 0;
y = 530;
},
{
angle = 90;
isGlobal = 0;
magnetic = 5;
x = 473;
y = 0;
},
{
angle = 90;
isGlobal = 0;
magnetic = 5;
x = "-379";
y = 0;
},
{
angle = 90;
isGlobal = 0;
magnetic = 5;
x = 453;
y = 0;
}
);
};
},
{
color = 1;
glyphname = b;
layers = (
{
hints = (
{
horizontal = 1;
place = "{-2147483648, 0}";
type = Tag;
name = hr01;
},
{
horizontal = 1;
place = "{-2147483648, 0}";
type = Tag;
name = hr02;
}
);
layerId = "EC64484B-0978-4CB1-9EE9-C40A2D8C4059";
paths = (
{
closed = 1;
nodes = (
"500 500 LINE",
"300 500 LINE",
"250 450 LINE",
"250 700 LINE",
"50 700 LINE",
"0 650 LINE",
"0 0 LINE",
"250 0 LINE",
"250 50 LINE",
"300 0 LINE",
"550 0 LINE",
"550 50 LINE",
"600 100 LINE",
"600 350 LINE",
"550 400 LINE",
"550 450 LINE"
);
},
{
closed = 1;
nodes = (
"312 24 LINE",
"312 48 LINE",
"304 48 LINE",
"304 72 LINE",
"264 72 LINE",
"264 112 LINE",
"224 112 LINE",
"224 96 LINE",
"96 96 LINE",
"96 624 LINE",
"48 624 LINE",
"48 656 LINE",
"96 656 LINE",
"96 672 LINE",
"160 672 LINE",
"160 648 LINE",
"168 648 LINE",
"168 168 LINE",
"216 168 LINE",
"216 160 LINE",
"224 160 LINE",
"224 144 LINE",
"272 144 LINE",
"272 120 LINE",
"360 120 LINE",
"360 72 LINE",
"504 72 LINE",
"504 24 LINE"
);
},
{
closed = 1;
nodes = (
"160 160 LINE",
"160 648 LINE",
"144 648 LINE",
"144 656 LINE",
"96 656 LINE",
"96 624 LINE",
"112 624 LINE",
"112 112 LINE",
"224 112 LINE",
"224 144 LINE",
"216 144 LINE",
"216 160 LINE"
);
},
{
closed = 1;
nodes = (
"24 24 LINE",
"24 600 LINE",
"72 600 LINE",
"72 72 LINE",
"216 72 LINE",
"216 24 LINE"
);
},
{
closed = 1;
nodes = (
"496 208 LINE",
"496 224 LINE",
"480 224 LINE",
"480 352 LINE",
"496 352 LINE",
"496 360 LINE",
"456 360 LINE",
"456 168 LINE",
"552 168 LINE",
"552 144 LINE",
"560 144 LINE",
"560 112 LINE",
"544 112 LINE",
"544 96 LINE",
"416 96 LINE",
"416 112 LINE",
"400 112 LINE",
"400 144 LINE",
"368 144 LINE",
"368 176 LINE",
"408 176 LINE",
"408 208 LINE",
"400 208 LINE",
"400 272 LINE",
"368 272 LINE",
"368 312 LINE",
"360 312 LINE",
"360 336 LINE",
"336 336 LINE",
"336 400 LINE",
"272 400 LINE",
"272 432 LINE",
"312 432 LINE",
"312 456 LINE",
"408 456 LINE",
"408 416 LINE",
"416 416 LINE",
"416 360 LINE",
"440 360 LINE",
"440 440 LINE",
"456 440 LINE",
"456 456 LINE",
"464 456 LINE",
"464 464 LINE",
"496 464 LINE",
"496 456 LINE",
"504 456 LINE",
"504 440 LINE",
"520 440 LINE",
"520 432 LINE",
"528 432 LINE",
"528 360 LINE",
"552 360 LINE",
"552 240 LINE",
"560 240 LINE",
"560 208 LINE"
);
},
{
closed = 1;
nodes = (
"552 240 LINE",
"544 240 LINE",
"544 352 LINE",
"528 352 LINE",
"528 360 LINE",
"520 360 LINE",
"520 432 LINE",
"504 432 LINE",
"504 440 LINE",
"496 440 LINE",
"496 456 LINE",
"464 456 LINE",
"464 440 LINE",
"456 440 LINE",
"456 408 LINE",
"464 408 LINE",
"464 400 LINE",
"496 400 LINE",
"496 360 LINE",
"504 360 LINE",
"504 352 LINE",
"496 352 LINE",
"496 224 LINE",
"504 224 LINE",
"504 216 LINE",
"552 216 LINE"
);
},
{
closed = 1;
nodes = (
"416 352 LINE",
"416 360 LINE",
"408 360 LINE",
"408 416 LINE",
"368 416 LINE",
"368 432 LINE",
"312 432 LINE",
"312 408 LINE",
"352 408 LINE",
"352 352 LINE",
"360 352 LINE",
"360 336 LINE",
"368 336 LINE",
"368 312 LINE",
"400 312 LINE",
"400 352 LINE"
);
},
{
closed = 1;
nodes = (
"240 400 LINE",
"240 336 LINE",
"208 336 LINE",
"208 400 LINE"
);
},
{
closed = 1;
nodes = (
"350 250 LINE",
"350 200 LINE",
"300 150 LINE",
"250 200 LINE",
"250 300 LINE",
"300 350 LINE"
);
},
{
closed = 1;
nodes = (
"400 312 LINE",
"400 304 LINE",
"408 304 LINE",
"408 312 LINE"
);
},
{
closed = 1;
nodes = (
"432 304 LINE",
"408 304 LINE",
"408 208 LINE",
"432 208 LINE"
);
},
{
closed = 1;
nodes = (
"432 160 LINE",
"432 176 LINE",
"408 176 LINE",
"408 120 LINE",
"416 120 LINE",
"416 112 LINE",
"544 112 LINE",
"544 120 LINE",
"552 120 LINE",
"552 144 LINE",
"544 144 LINE",
"544 160 LINE"
);
},
{
closed = 1;
nodes = (
"264 112 LINE",
"272 112 LINE",
"272 120 LINE",
"264 120 LINE"
);
},
{
closed = 1;
nodes = (
"272 112 LINE",
"272 80 LINE",
"304 80 LINE",
"304 72 LINE",
"312 72 LINE",
"312 48 LINE",
"336 48 LINE",
"336 112 LINE"
);
}
);
width = 661;
}
);
leftKerningGroup = h;
rightKerningGroup = b;
unicode = 0062;
userData = {
com.typemytype.robofont.guides = (
{
angle = 0;
isGlobal = 0;
magnetic = 5;
x = 0;
y = 530;
},
{
angle = 0;
isGlobal = 0;
magnetic = 5;
x = 0;
y = "-10";
},
{
angle = 0;
isGlobal = 0;
magnetic = 5;
x = 0;
y = 710;
},
{
angle = 0;
isGlobal = 0;
magnetic = 5;
x = 0;
y = 288;
},
{
angle = 0;
isGlobal = 0;
magnetic = 5;
x = 0;
y = 232;
},
{
angle = 0;
isGlobal = 0;
magnetic = 5;
x = 0;
y = 451;
},
{
angle = 0;
isGlobal = 0;
magnetic = 5;
x = 0;
y = 69;
},
{
angle = 90;
isGlobal = 0;
magnetic = 5;
x = 121;
y = 0;
},
{
angle = 90;
isGlobal = 0;
magnetic = 5;
x = 79;
y = 0;
}
);
};
},
